<svg width="229" height="450" viewBox="0 0 229 450" fill="none" xmlns="http://www.w3.org/2000/svg">
<g id="Group 38">
<g id="Group 2 Copy 3">
<g id="iPhone-X-Mockup">
<g id="phone">
<g id="body" filter="url(#filter0_d_0_1395)">
<path fill-rule="evenodd" clip-rule="evenodd" d="M74.6767 55.3303H185.199C195.799 55.3303 204.392 63.5868 204.392 73.7717V326.228C204.392 336.413 195.799 344.67 185.199 344.67H74.6767C64.0769 344.67 55.4841 336.413 55.4841 326.228V73.7717C55.4841 63.5868 64.0769 55.3303 74.6767 55.3303Z" fill="#213648"/>
</g>
<g id="frame">
<path id="reflect-frame-top" opacity="0.595562" fill-rule="evenodd" clip-rule="evenodd" d="M185.627 55H74.1835C68.9806 55.3184 64.1821 57.701 59.7881 62.1479C62.6139 59.6724 67.6541 56.3598 74.3177 56.3598C74.3177 56.3598 181.05 56.3598 185.493 56.3598C192.156 56.3598 197.196 59.6724 200.022 62.1479C195.628 57.701 190.83 55.3184 185.627 55Z" fill="url(#paint0_linear_0_1395)" fill-opacity="0.65"/>
<path id="reflect-frame-right" opacity="0.75" fill-rule="evenodd" clip-rule="evenodd" d="M201.376 323.349V75.2894C201.376 68.6338 198.939 66.1734 197.485 64.5935C196.031 63.0136 195.969 62.2078 198.058 63.4006C200.147 64.5935 204.326 68.0677 204.326 75.2894V323.349C204.326 330.571 200.147 334.045 198.058 335.238C195.969 336.431 196.031 335.625 197.485 334.045C198.939 332.465 201.376 330.005 201.376 323.349Z" fill="url(#paint1_linear_0_1395)"/>
<path id="reflect-frame-left" opacity="0.75" fill-rule="evenodd" clip-rule="evenodd" d="M58.4339 323.349V75.2894C58.4339 68.6338 60.8714 66.1734 62.3255 64.5935C63.7795 63.0136 63.8414 62.2078 61.7522 63.4006C59.6629 64.5935 55.4841 68.0677 55.4841 75.2894V323.349C55.4841 330.571 59.6629 334.045 61.7522 335.238C63.8414 336.431 63.7795 335.625 62.3255 334.045C60.8714 332.465 58.4339 330.005 58.4339 323.349Z" fill="url(#paint2_linear_0_1395)"/>
</g>
<g id="controls">
<path id="vol+" fill-rule="evenodd" clip-rule="evenodd" d="M54 115.337C54 114.545 54.6423 113.903 55.4346 113.903C56.2269 113.903 56.8692 114.545 56.8692 115.337V149.792C56.8692 150.584 56.2269 151.226 55.4346 151.226C54.6423 151.226 54 150.584 54 149.792V115.337Z" fill="#2E423C"/>
<path id="power" fill-rule="evenodd" clip-rule="evenodd" d="M202.842 145.78C202.842 144.987 203.484 144.345 204.276 144.345C205.069 144.345 205.711 144.987 205.711 145.78V170.142C205.711 170.934 205.069 171.576 204.276 171.576C203.484 171.576 202.842 170.934 202.842 170.142V145.78Z" fill="#2E423C"/>
</g>
</g>
<g id="Screen">
<path id="Screen Mask" fill-rule="evenodd" clip-rule="evenodd" d="M116.809 62.2178L73.8062 62.2178C67.3884 62.2178 62.7122 66.6045 62.7122 72.3338V317.32C62.7122 324.79 69.9378 331.409 78.1082 331.409H181.753C189.623 331.409 197.149 324.739 197.149 317.32V72.996C197.149 66.1291 192.069 62.2586 186.055 62.2178L142.37 62.2178C142.205 62.245 139.204 63.4832 137.936 66.6045C136.668 69.7258 134.116 72.214 131.322 72.214H128.076C126.748 72.214 123.252 70.9208 121.481 66.6045C119.711 62.2882 116.975 62.245 116.809 62.2178Z" fill="#36536B"/>
<mask id="mask0_0_1395" style="mask-type:luminance" maskUnits="userSpaceOnUse" x="62" y="62" width="136" height="270">
<path id="Screen Mask_2" fill-rule="evenodd" clip-rule="evenodd" d="M116.809 62.2178L73.8062 62.2178C67.3884 62.2178 62.7122 66.6045 62.7122 72.3338V317.32C62.7122 324.79 69.9378 331.409 78.1082 331.409H181.753C189.623 331.409 197.149 324.739 197.149 317.32V72.996C197.149 66.1291 192.069 62.2586 186.055 62.2178L142.37 62.2178C142.205 62.245 139.204 63.4832 137.936 66.6045C136.668 69.7258 134.116 72.214 131.322 72.214H128.076C126.748 72.214 123.252 70.9208 121.481 66.6045C119.711 62.2882 116.975 62.245 116.809 62.2178Z" fill="white"/>
</mask>
<g mask="url(#mask0_0_1395)">
</g>
</g>
</g>
</g>
<g id="Group 39">
<g id="Group 33">
<g id="Group 34">
<g id="Rectangle" filter="url(#filter1_d_0_1395)">
<rect x="78.8518" y="137.36" width="101.719" height="110.78" rx="2" fill="#FBFCFE"/>
</g>
<g id="Group 32">
<path id="Paymentof$9204iscompletedandprocessedsuccessfully" fill-rule="evenodd" clip-rule="evenodd" d="M141.349 205.847L141.349 206.52H140.403L140.403 205.848L140.386 205.846C139.961 205.794 139.601 205.672 139.306 205.481C138.9 205.219 138.667 204.814 138.607 204.266L139.749 204.243C139.809 204.492 139.939 204.681 140.138 204.81C140.337 204.94 140.587 205.005 140.887 205.005C141.068 205.005 141.227 204.975 141.366 204.916C141.505 204.857 141.615 204.776 141.695 204.675C141.775 204.573 141.815 204.457 141.815 204.326C141.815 204.125 141.751 203.975 141.624 203.875C141.496 203.776 141.299 203.696 141.034 203.636L140.143 203.444C139.73 203.361 139.399 203.196 139.15 202.948C138.901 202.7 138.774 202.368 138.769 201.951C138.766 201.609 138.858 201.313 139.045 201.063C139.231 200.813 139.485 200.62 139.807 200.484L139.948 200.43C140.09 200.38 140.24 200.343 140.398 200.318L140.421 200.316L140.421 199.568H141.372L141.372 200.32L141.465 200.336C141.643 200.373 141.806 200.428 141.956 200.501C142.255 200.648 142.486 200.846 142.647 201.093C142.809 201.341 142.887 201.614 142.882 201.913L141.774 201.932C141.739 201.691 141.659 201.501 141.533 201.363C141.408 201.224 141.2 201.155 140.91 201.155C140.76 201.155 140.626 201.172 140.508 201.204C140.39 201.237 140.289 201.283 140.204 201.342C140.118 201.401 140.054 201.471 140.01 201.551C139.966 201.632 139.944 201.722 139.944 201.823C139.944 201.981 139.998 202.106 140.104 202.198C140.21 202.289 140.411 202.374 140.707 202.452L141.582 202.667C142.076 202.785 142.432 202.988 142.651 203.274C142.87 203.561 142.98 203.909 142.98 204.318C142.98 204.633 142.894 204.906 142.722 205.14C142.551 205.374 142.309 205.555 141.995 205.683L141.858 205.734C141.717 205.781 141.566 205.817 141.405 205.84L141.349 205.847ZM98.9808 203.802V205.8H98.1618V200.349H100.044C100.432 200.349 100.78 200.415 101.086 200.548C101.393 200.682 101.635 200.878 101.811 201.136C101.988 201.395 102.076 201.713 102.076 202.09C102.076 202.452 101.995 202.761 101.834 203.016C101.672 203.271 101.447 203.466 101.158 203.6C100.868 203.735 100.534 203.802 100.153 203.802H98.9808ZM98.977 203.142H100.13C100.476 203.142 100.758 203.042 100.976 202.842C101.193 202.643 101.302 202.377 101.302 202.045C101.302 201.708 101.19 201.45 100.964 201.27C100.739 201.091 100.451 201.001 100.1 201.001H98.977V203.142ZM103.787 205.875C104.065 205.875 104.314 205.818 104.536 205.704C104.758 205.589 104.941 205.383 105.086 205.084L105.15 205.8H105.83V203.074C105.83 202.808 105.775 202.582 105.663 202.396C105.552 202.21 105.382 202.068 105.154 201.972C104.926 201.875 104.636 201.826 104.283 201.826C103.964 201.826 103.688 201.872 103.452 201.962C103.217 202.053 103.032 202.186 102.898 202.364C102.764 202.541 102.69 202.759 102.675 203.018H103.373C103.424 202.799 103.529 202.642 103.691 202.546C103.852 202.451 104.037 202.403 104.245 202.403C104.52 202.401 104.725 202.464 104.857 202.592C104.99 202.72 105.056 202.896 105.056 203.12V203.402L104.418 203.421C103.749 203.434 103.262 203.547 102.956 203.76C102.651 203.974 102.498 204.297 102.498 204.729C102.498 204.971 102.553 205.177 102.663 205.348C102.774 205.518 102.926 205.649 103.12 205.74C103.314 205.83 103.536 205.875 103.787 205.875ZM103.49 205.138C103.635 205.255 103.818 205.314 104.038 205.314C104.161 205.314 104.283 205.292 104.403 205.248C104.523 205.204 104.632 205.143 104.73 205.067C104.827 204.99 104.906 204.904 104.964 204.808C105.023 204.713 105.054 204.615 105.056 204.514V203.87L104.53 203.881C104.263 203.884 104.035 203.911 103.849 203.964C103.662 204.017 103.519 204.098 103.42 204.209C103.321 204.32 103.272 204.467 103.272 204.65C103.272 204.859 103.345 205.021 103.49 205.138ZM107.216 207.044C107.401 207.044 107.573 207.015 107.73 206.957C107.888 206.9 108.033 206.797 108.164 206.648C108.296 206.5 108.417 206.29 108.527 206.019L110.146 201.902H109.357L108.275 204.782L107.186 201.902H106.382L107.896 205.687L107.775 206.015C107.76 206.058 107.738 206.104 107.708 206.154C107.678 206.205 107.635 206.252 107.578 206.296C107.522 206.34 107.446 206.374 107.349 206.399C107.253 206.425 107.129 206.433 106.979 206.426L106.585 206.418V206.939L106.722 206.991C106.813 207.026 106.978 207.044 107.216 207.044ZM111.587 203.225V205.8H110.783V201.902H111.565V202.464C111.675 202.293 111.825 202.144 112.016 202.017C112.206 201.89 112.451 201.826 112.752 201.826C112.892 201.826 113.034 201.85 113.178 201.898C113.322 201.946 113.455 202.017 113.576 202.111C113.698 202.205 113.794 202.322 113.864 202.46C113.987 202.274 114.151 202.122 114.356 202.004C114.561 201.885 114.792 201.826 115.047 201.826C115.185 201.826 115.328 201.848 115.475 201.892C115.623 201.936 115.76 202.011 115.887 202.115C116.013 202.219 116.116 202.363 116.195 202.546C116.274 202.73 116.313 202.962 116.313 203.244V205.8H115.505V203.331C115.505 203.117 115.47 202.95 115.398 202.829C115.327 202.709 115.234 202.624 115.12 202.575C115.006 202.526 114.886 202.501 114.758 202.501C114.643 202.501 114.522 202.524 114.397 202.569C114.272 202.614 114.166 202.69 114.078 202.795C113.99 202.901 113.946 203.044 113.946 203.225V205.8H113.143V203.157C113.143 203.014 113.104 202.893 113.028 202.795C112.952 202.697 112.856 202.624 112.742 202.575C112.629 202.526 112.515 202.501 112.402 202.501C112.277 202.501 112.152 202.526 112.027 202.577C111.902 202.627 111.797 202.705 111.713 202.812C111.629 202.919 111.587 203.057 111.587 203.225ZM118.95 205.875C119.208 205.875 119.455 205.828 119.69 205.734C119.926 205.64 120.127 205.5 120.293 205.314C120.46 205.128 120.565 204.901 120.61 204.635H119.867C119.814 204.844 119.703 205.001 119.534 205.106C119.365 205.212 119.165 205.265 118.935 205.265C118.705 205.265 118.512 205.211 118.357 205.104C118.201 204.998 118.085 204.852 118.009 204.667C117.933 204.482 117.894 204.273 117.894 204.039H120.629V203.772C120.629 203.377 120.563 203.035 120.43 202.744C120.297 202.454 120.103 202.229 119.846 202.068C119.589 201.907 119.273 201.826 118.897 201.826C118.517 201.826 118.191 201.914 117.921 202.09C117.65 202.266 117.444 202.509 117.301 202.82C117.158 203.13 117.087 203.488 117.087 203.892C117.087 204.302 117.165 204.655 117.322 204.952C117.478 205.248 117.697 205.476 117.977 205.636C118.258 205.796 118.582 205.875 118.95 205.875ZM117.894 203.515H119.863C119.863 203.312 119.828 203.126 119.758 202.959C119.688 202.792 119.581 202.66 119.437 202.563C119.293 202.467 119.112 202.418 118.894 202.418C118.671 202.418 118.485 202.472 118.338 202.58C118.19 202.688 118.079 202.827 118.005 202.995C117.931 203.163 117.894 203.337 117.894 203.515ZM122.273 205.8V203.225C122.273 203.064 122.317 202.93 122.404 202.824C122.492 202.717 122.607 202.637 122.75 202.584C122.893 202.531 123.043 202.505 123.201 202.505C123.436 202.505 123.628 202.573 123.777 202.709C123.926 202.844 124.001 203.052 124.001 203.331V205.8H124.805V203.244C124.805 202.92 124.742 202.655 124.617 202.45C124.492 202.246 124.326 202.095 124.119 201.998C123.913 201.901 123.688 201.853 123.445 201.853C123.239 201.853 123.059 201.882 122.902 201.94C122.745 201.997 122.614 202.073 122.508 202.166C122.401 202.259 122.317 202.358 122.254 202.464V201.902H121.469V205.8H122.273ZM127.479 205.804C127.38 205.819 127.253 205.826 127.097 205.826C126.809 205.826 126.586 205.787 126.427 205.71C126.268 205.632 126.158 205.519 126.096 205.372C126.035 205.225 126.004 205.047 126.004 204.839V202.482H125.373V201.902H126.027L126.226 200.756H126.808V201.898H127.68V202.482H126.808L126.812 204.808C126.812 204.937 126.825 205.03 126.851 205.089C126.878 205.148 126.923 205.186 126.987 205.202C127.051 205.219 127.138 205.227 127.248 205.227H127.702V205.751C127.652 205.771 127.578 205.789 127.479 205.804ZM131.7 205.875C132.088 205.875 132.415 205.791 132.682 205.621C132.949 205.451 133.151 205.216 133.29 204.914C133.429 204.612 133.499 204.264 133.499 203.87C133.499 203.437 133.425 203.069 133.277 202.763C133.13 202.458 132.922 202.225 132.654 202.066C132.386 201.906 132.069 201.826 131.703 201.826C131.32 201.826 130.993 201.911 130.723 202.081C130.452 202.251 130.246 202.489 130.105 202.795C129.963 203.102 129.893 203.46 129.893 203.87C129.893 204.294 129.967 204.656 130.116 204.956C130.265 205.255 130.475 205.483 130.747 205.64C131.019 205.797 131.336 205.875 131.7 205.875ZM131.113 205.061C131.264 205.189 131.46 205.253 131.703 205.253C131.924 205.253 132.108 205.195 132.257 205.078C132.406 204.961 132.518 204.797 132.594 204.584C132.669 204.372 132.706 204.126 132.706 203.847C132.706 203.588 132.673 203.353 132.607 203.14C132.54 202.928 132.433 202.759 132.286 202.633C132.138 202.508 131.944 202.445 131.703 202.445C131.478 202.445 131.29 202.502 131.14 202.616C130.99 202.731 130.876 202.893 130.8 203.103C130.723 203.312 130.685 203.561 130.685 203.847C130.685 204.101 130.719 204.335 130.787 204.548C130.854 204.762 130.963 204.933 131.113 205.061ZM135.494 205.8V202.482H136.403V201.902H135.479V201.404C135.479 201.236 135.507 201.111 135.564 201.029C135.62 200.947 135.726 200.907 135.881 200.907H136.441L136.437 200.349H135.663C135.343 200.349 135.1 200.431 134.934 200.596C134.769 200.76 134.686 200.998 134.686 201.31V201.902H133.894V202.482H134.686V205.8H135.494ZM145.615 205.883C146.091 205.883 146.501 205.775 146.844 205.561C147.187 205.346 147.451 205.021 147.635 204.588C147.819 204.154 147.911 203.612 147.911 202.961C147.911 202.416 147.821 201.941 147.642 201.538C147.463 201.135 147.206 200.823 146.872 200.603C146.538 200.383 146.14 200.273 145.679 200.273C145.269 200.273 144.91 200.352 144.605 200.511C144.299 200.669 144.061 200.888 143.891 201.167C143.721 201.446 143.636 201.764 143.636 202.12C143.636 202.475 143.716 202.781 143.878 203.038C144.04 203.296 144.262 203.495 144.547 203.634C144.831 203.774 145.157 203.843 145.525 203.843C145.728 203.843 145.912 203.816 146.078 203.762C146.243 203.708 146.387 203.632 146.511 203.532C146.635 203.433 146.732 203.317 146.803 203.184C146.833 203.618 146.798 203.97 146.699 204.239C146.6 204.508 146.453 204.704 146.256 204.827C146.059 204.95 145.831 205.012 145.57 205.012C145.335 205.012 145.14 204.946 144.984 204.814C144.829 204.682 144.729 204.511 144.684 204.3H143.639C143.662 204.619 143.766 204.897 143.951 205.135C144.137 205.372 144.376 205.556 144.669 205.687C144.962 205.818 145.277 205.883 145.615 205.883ZM145.063 202.733C145.228 202.89 145.445 202.969 145.713 202.969C145.866 202.969 146.014 202.934 146.158 202.865C146.302 202.796 146.421 202.709 146.513 202.603C146.606 202.497 146.652 202.388 146.652 202.275C146.655 202.031 146.617 201.822 146.538 201.647C146.459 201.473 146.349 201.339 146.207 201.246C146.066 201.153 145.901 201.106 145.713 201.106C145.54 201.106 145.386 201.147 145.251 201.227C145.116 201.307 145.009 201.421 144.932 201.566C144.854 201.712 144.815 201.88 144.815 202.071C144.815 202.355 144.898 202.576 145.063 202.733ZM152.598 205.8V204.873H149.829V204.824C149.829 204.658 149.879 204.516 149.979 204.398C150.079 204.279 150.212 204.173 150.377 204.079C150.543 203.985 150.724 203.892 150.92 203.802C151.117 203.711 151.314 203.613 151.512 203.508C151.71 203.402 151.891 203.279 152.057 203.138C152.222 202.998 152.355 202.828 152.455 202.629C152.555 202.431 152.605 202.195 152.605 201.921C152.605 201.591 152.525 201.304 152.365 201.057C152.204 200.811 151.977 200.619 151.683 200.481C151.389 200.342 151.039 200.273 150.633 200.273C150.16 200.273 149.766 200.356 149.453 200.522C149.14 200.688 148.905 200.912 148.749 201.195C148.592 201.478 148.512 201.792 148.507 202.139H149.555C149.6 201.82 149.718 201.581 149.908 201.423C150.098 201.265 150.33 201.186 150.603 201.186C150.866 201.186 151.073 201.255 151.225 201.393C151.376 201.531 151.452 201.71 151.452 201.928C151.452 202.099 151.4 202.247 151.298 202.373C151.195 202.499 151.059 202.612 150.89 202.714C150.721 202.816 150.535 202.917 150.332 203.018C150.129 203.118 149.927 203.225 149.726 203.338C149.524 203.451 149.339 203.583 149.17 203.732C149.001 203.882 148.865 204.058 148.762 204.26C148.659 204.462 148.608 204.702 148.608 204.978V205.8H152.598ZM156.86 205.161C156.492 205.642 155.98 205.883 155.323 205.883C154.665 205.883 154.151 205.643 153.781 205.163C153.412 204.683 153.227 203.992 153.227 203.089C153.227 202.486 153.312 201.975 153.483 201.555C153.653 201.135 153.895 200.817 154.208 200.599C154.521 200.382 154.893 200.273 155.323 200.273C155.97 200.273 156.479 200.515 156.852 200.999C157.226 201.483 157.412 202.178 157.412 203.086C157.412 203.988 157.228 204.68 156.86 205.161ZM155.324 204.982C154.998 204.982 154.757 204.836 154.602 204.545C154.447 204.253 154.369 203.768 154.369 203.089C154.369 202.398 154.448 201.901 154.604 201.596C154.761 201.292 154.999 201.14 155.32 201.14C155.64 201.14 155.877 201.291 156.03 201.593C156.183 201.894 156.259 202.393 156.259 203.089C156.259 203.77 156.184 204.256 156.034 204.546C155.883 204.837 155.647 204.982 155.324 204.982ZM161.532 204.594V205.8H160.476L160.48 204.594H157.978V203.689L160.454 200.349H161.532V203.67H162.37V204.594H161.532ZM160.48 203.67H158.992L160.48 201.672V203.67ZM102.07 210.792V211.588H101.262V210.792H102.07ZM102.055 216.24V212.342H101.281V216.24H102.055ZM105.396 216.174C105.167 216.268 104.895 216.315 104.579 216.315C104.308 216.315 104.055 216.273 103.818 216.187C103.582 216.102 103.384 215.967 103.225 215.784C103.066 215.6 102.966 215.365 102.926 215.079H103.644C103.676 215.227 103.738 215.35 103.83 215.446C103.921 215.543 104.031 215.615 104.16 215.661C104.289 215.708 104.427 215.731 104.575 215.731C104.821 215.731 105.019 215.686 105.171 215.597C105.322 215.508 105.398 215.37 105.398 215.184C105.398 215.051 105.357 214.944 105.276 214.864C105.194 214.784 105.066 214.724 104.891 214.687L104.117 214.502C103.796 214.427 103.54 214.307 103.347 214.142C103.154 213.977 103.056 213.747 103.054 213.45C103.054 213.221 103.111 213.018 103.225 212.839C103.339 212.661 103.508 212.521 103.734 212.419C103.959 212.317 104.24 212.266 104.575 212.266C105.013 212.266 105.365 212.364 105.631 212.56C105.896 212.757 106.034 213.041 106.044 213.412H105.349C105.324 213.234 105.243 213.094 105.107 212.992C104.97 212.89 104.791 212.839 104.568 212.839C104.337 212.839 104.148 212.885 104 212.977C103.853 213.069 103.779 213.209 103.779 213.397C103.779 213.526 103.833 213.627 103.94 213.701C104.048 213.775 104.21 213.836 104.425 213.884L105.161 214.068C105.352 214.119 105.508 214.185 105.631 214.266C105.754 214.348 105.85 214.438 105.92 214.536C105.99 214.634 106.04 214.736 106.068 214.841C106.097 214.947 106.112 215.046 106.112 215.139C106.112 215.385 106.05 215.596 105.926 215.771C105.802 215.945 105.625 216.08 105.396 216.174ZM110.069 216.315C110.354 216.315 110.61 216.26 110.837 216.15C111.064 216.039 111.248 215.884 111.389 215.686C111.531 215.487 111.615 215.257 111.643 214.996H110.959C110.939 215.114 110.893 215.228 110.82 215.339C110.747 215.45 110.649 215.54 110.525 215.61C110.401 215.681 110.255 215.716 110.088 215.716C109.739 215.716 109.475 215.588 109.293 215.331C109.111 215.075 109.021 214.731 109.021 214.298C109.021 213.826 109.118 213.475 109.314 213.247C109.509 213.018 109.762 212.904 110.073 212.904C110.243 212.904 110.39 212.937 110.514 213.003C110.638 213.07 110.737 213.159 110.811 213.269C110.885 213.38 110.933 213.499 110.955 213.627H111.65C111.62 213.356 111.535 213.118 111.395 212.915C111.255 212.711 111.071 212.552 110.845 212.438C110.618 212.324 110.359 212.266 110.069 212.266C109.691 212.266 109.366 212.352 109.094 212.523C108.822 212.694 108.615 212.932 108.472 213.239C108.329 213.546 108.258 213.901 108.258 214.306C108.258 214.736 108.335 215.101 108.489 215.401C108.643 215.702 108.857 215.929 109.13 216.084C109.403 216.238 109.716 216.315 110.069 216.315ZM115.045 216.061C114.778 216.231 114.45 216.315 114.062 216.315C113.699 216.315 113.382 216.237 113.11 216.08C112.838 215.923 112.628 215.695 112.479 215.396C112.33 215.096 112.255 214.734 112.255 214.31C112.255 213.9 112.326 213.542 112.468 213.235C112.609 212.929 112.815 212.691 113.086 212.521C113.356 212.351 113.683 212.266 114.066 212.266C114.432 212.266 114.749 212.346 115.016 212.506C115.284 212.665 115.492 212.898 115.64 213.203C115.788 213.509 115.862 213.877 115.862 214.31C115.862 214.704 115.792 215.052 115.653 215.354C115.514 215.656 115.311 215.891 115.045 216.061ZM114.066 215.693C113.823 215.693 113.627 215.629 113.476 215.501C113.326 215.373 113.217 215.202 113.149 214.988C113.082 214.775 113.048 214.541 113.048 214.287C113.048 214.001 113.086 213.752 113.163 213.543C113.239 213.333 113.352 213.171 113.503 213.056C113.653 212.942 113.841 212.885 114.066 212.885C114.306 212.885 114.501 212.948 114.648 213.073C114.796 213.199 114.903 213.368 114.97 213.58C115.036 213.793 115.069 214.028 115.069 214.287C115.069 214.566 115.032 214.812 114.956 215.024C114.881 215.237 114.769 215.401 114.62 215.518C114.471 215.635 114.286 215.693 114.066 215.693ZM117.466 213.665V216.24H116.662V212.342H117.444V212.904C117.554 212.733 117.704 212.584 117.895 212.457C118.085 212.33 118.33 212.266 118.631 212.266C118.771 212.266 118.913 212.29 119.057 212.338C119.201 212.386 119.334 212.457 119.455 212.551C119.577 212.645 119.673 212.762 119.743 212.9C119.866 212.714 120.03 212.562 120.235 212.444C120.44 212.325 120.671 212.266 120.926 212.266C121.064 212.266 121.207 212.288 121.354 212.332C121.502 212.376 121.639 212.451 121.766 212.555C121.892 212.659 121.995 212.803 122.074 212.986C122.153 213.17 122.192 213.402 122.192 213.684V216.24H121.384V213.771C121.384 213.557 121.349 213.39 121.277 213.269C121.206 213.149 121.113 213.064 120.999 213.015C120.885 212.966 120.765 212.941 120.637 212.941C120.522 212.941 120.401 212.964 120.276 213.009C120.151 213.054 120.045 213.13 119.957 213.235C119.869 213.341 119.825 213.484 119.825 213.665V216.24H119.022V213.597C119.022 213.454 118.983 213.333 118.907 213.235C118.831 213.137 118.735 213.064 118.621 213.015C118.507 212.966 118.394 212.941 118.281 212.941C118.156 212.941 118.031 212.966 117.906 213.017C117.781 213.067 117.676 213.145 117.592 213.252C117.508 213.359 117.466 213.497 117.466 213.665ZM123.973 217.454V215.569C124.018 215.654 124.075 215.74 124.143 215.827C124.212 215.914 124.296 215.994 124.393 216.068C124.491 216.143 124.604 216.202 124.731 216.248C124.859 216.293 125.003 216.315 125.163 216.315C125.496 216.315 125.784 216.237 126.027 216.08C126.27 215.923 126.458 215.691 126.589 215.384C126.721 215.078 126.786 214.698 126.786 214.246C126.786 213.796 126.721 213.424 126.589 213.132C126.458 212.839 126.275 212.621 126.041 212.479C125.806 212.337 125.537 212.266 125.231 212.266C125.068 212.266 124.92 212.288 124.786 212.33C124.652 212.373 124.533 212.43 124.429 212.502C124.325 212.574 124.235 212.652 124.16 212.736C124.085 212.82 124.024 212.905 123.976 212.99L123.969 212.342H123.165V217.454H123.973ZM124.427 215.505C124.58 215.636 124.769 215.701 124.994 215.701C125.292 215.701 125.537 215.585 125.729 215.352C125.92 215.12 126.016 214.756 126.016 214.261C126.016 213.836 125.928 213.5 125.751 213.252C125.575 213.005 125.322 212.881 124.994 212.881C124.656 212.881 124.401 213.01 124.228 213.267C124.055 213.525 123.969 213.856 123.969 214.261C123.969 214.525 124.007 214.765 124.083 214.983C124.16 215.2 124.274 215.374 124.427 215.505ZM128.64 216.293C128.698 216.293 128.76 216.286 128.826 216.274C128.893 216.261 128.957 216.245 129.02 216.225V215.712L128.817 215.705C128.669 215.692 128.56 215.638 128.488 215.543C128.417 215.447 128.381 215.309 128.381 215.128V210.638H127.588V215.211C127.588 215.349 127.6 215.483 127.624 215.612C127.648 215.742 127.696 215.857 127.769 215.959C127.841 216.061 127.947 216.142 128.086 216.202C128.225 216.263 128.41 216.293 128.64 216.293ZM132.167 216.174C131.931 216.268 131.685 216.315 131.427 216.315C131.059 216.315 130.734 216.236 130.454 216.076C130.173 215.916 129.955 215.688 129.798 215.392C129.642 215.095 129.564 214.742 129.564 214.332C129.564 213.928 129.635 213.57 129.778 213.26C129.92 212.949 130.127 212.706 130.397 212.53C130.668 212.354 130.994 212.266 131.374 212.266C131.75 212.266 132.066 212.347 132.323 212.508C132.579 212.669 132.774 212.894 132.907 213.184C133.04 213.475 133.106 213.817 133.106 214.212V214.479H130.371C130.371 214.713 130.409 214.922 130.486 215.107C130.562 215.292 130.678 215.438 130.833 215.544C130.989 215.651 131.181 215.705 131.412 215.705C131.642 215.705 131.842 215.652 132.011 215.546C132.18 215.441 132.291 215.284 132.343 215.075H133.087C133.042 215.341 132.936 215.568 132.77 215.754C132.603 215.94 132.402 216.08 132.167 216.174ZM132.34 213.955H130.371C130.371 213.777 130.408 213.603 130.482 213.435C130.556 213.267 130.667 213.128 130.814 213.02C130.962 212.912 131.148 212.858 131.37 212.858C131.588 212.858 131.769 212.907 131.913 213.003C132.057 213.1 132.164 213.232 132.234 213.399C132.305 213.566 132.34 213.752 132.34 213.955ZM135.706 216.244C135.607 216.259 135.48 216.266 135.324 216.266C135.036 216.266 134.813 216.227 134.654 216.15C134.495 216.072 134.385 215.959 134.323 215.812C134.262 215.665 134.231 215.487 134.231 215.279V212.922H133.6V212.342H134.254L134.453 211.196H135.035V212.338H135.907V212.922H135.035L135.039 215.248C135.039 215.377 135.052 215.47 135.078 215.529C135.105 215.588 135.15 215.626 135.213 215.642C135.277 215.659 135.364 215.667 135.475 215.667H135.929V216.191C135.879 216.211 135.805 216.229 135.706 216.244ZM138.349 216.315C138.607 216.315 138.854 216.268 139.089 216.174C139.325 216.08 139.526 215.94 139.692 215.754C139.859 215.568 139.965 215.341 140.01 215.075H139.266C139.213 215.284 139.103 215.441 138.933 215.546C138.764 215.652 138.565 215.705 138.334 215.705C138.104 215.705 137.911 215.651 137.756 215.544C137.6 215.438 137.485 215.292 137.408 215.107C137.332 214.922 137.294 214.713 137.294 214.479H140.029V214.212C140.029 213.817 139.962 213.475 139.829 213.184C139.697 212.894 139.502 212.669 139.245 212.508C138.989 212.347 138.672 212.266 138.297 212.266C137.916 212.266 137.59 212.354 137.32 212.53C137.05 212.706 136.843 212.949 136.7 213.26C136.557 213.57 136.486 213.928 136.486 214.332C136.486 214.742 136.564 215.095 136.721 215.392C136.877 215.688 137.096 215.916 137.376 216.076C137.657 216.236 137.981 216.315 138.349 216.315ZM137.294 213.955H139.262C139.262 213.752 139.227 213.566 139.157 213.399C139.087 213.232 138.98 213.1 138.836 213.003C138.692 212.907 138.511 212.858 138.293 212.858C138.07 212.858 137.885 212.912 137.737 213.02C137.589 213.128 137.478 213.267 137.405 213.435C137.331 213.603 137.294 213.777 137.294 213.955ZM142.284 216.315C142.5 216.315 142.684 216.286 142.837 216.229C142.989 216.171 143.115 216.097 143.214 216.006C143.313 215.916 143.391 215.82 143.449 215.72C143.507 215.619 143.549 215.526 143.577 215.441L143.667 216.24H144.268V210.638H143.46V212.934C143.423 212.866 143.369 212.793 143.301 212.715C143.232 212.637 143.145 212.564 143.041 212.496C142.937 212.429 142.817 212.373 142.681 212.33C142.544 212.288 142.388 212.266 142.213 212.266C141.867 212.266 141.577 212.349 141.343 212.515C141.109 212.681 140.933 212.914 140.816 213.215C140.698 213.515 140.639 213.867 140.639 214.272C140.639 214.933 140.785 215.439 141.078 215.789C141.372 216.14 141.773 216.315 142.284 216.315ZM141.696 215.331C141.868 215.583 142.115 215.708 142.438 215.708C142.799 215.708 143.059 215.595 143.22 215.367C143.38 215.14 143.46 214.766 143.46 214.246C143.458 213.952 143.421 213.703 143.351 213.499C143.281 213.296 143.173 213.142 143.026 213.037C142.88 212.933 142.688 212.881 142.45 212.881C142.152 212.881 141.909 212.988 141.721 213.203C141.533 213.418 141.439 213.766 141.439 214.246C141.439 214.718 141.525 215.08 141.696 215.331ZM148.028 216.315C148.306 216.315 148.555 216.258 148.777 216.144C148.999 216.029 149.182 215.823 149.327 215.524L149.391 216.24H150.071V213.514C150.071 213.248 150.015 213.022 149.904 212.836C149.793 212.65 149.623 212.508 149.395 212.412C149.167 212.315 148.877 212.266 148.523 212.266C148.205 212.266 147.929 212.312 147.693 212.402C147.458 212.493 147.273 212.626 147.139 212.804C147.005 212.981 146.931 213.199 146.916 213.458H147.614C147.664 213.239 147.77 213.082 147.932 212.986C148.093 212.891 148.278 212.843 148.486 212.843C148.761 212.841 148.965 212.904 149.098 213.032C149.231 213.16 149.297 213.336 149.297 213.56V213.842L148.659 213.861C147.99 213.874 147.503 213.987 147.197 214.2C146.892 214.414 146.739 214.737 146.739 215.169C146.739 215.411 146.794 215.617 146.904 215.788C147.014 215.958 147.167 216.089 147.361 216.18C147.555 216.27 147.777 216.315 148.028 216.315ZM147.731 215.578C147.876 215.695 148.059 215.754 148.279 215.754C148.402 215.754 148.523 215.732 148.644 215.688C148.764 215.644 148.873 215.583 148.97 215.507C149.068 215.43 149.146 215.344 149.205 215.248C149.264 215.153 149.295 215.055 149.297 214.954V214.31L148.771 214.321C148.503 214.324 148.276 214.351 148.09 214.404C147.903 214.457 147.76 214.538 147.661 214.649C147.562 214.76 147.513 214.907 147.513 215.09C147.513 215.299 147.585 215.461 147.731 215.578ZM151.945 216.24V213.665C151.945 213.504 151.989 213.37 152.076 213.264C152.164 213.157 152.279 213.077 152.422 213.024C152.565 212.971 152.715 212.945 152.873 212.945C153.108 212.945 153.3 213.013 153.45 213.149C153.599 213.284 153.673 213.492 153.673 213.771V216.24H154.477V213.684C154.477 213.36 154.414 213.095 154.289 212.89C154.164 212.686 153.998 212.535 153.791 212.438C153.585 212.341 153.36 212.293 153.117 212.293C152.912 212.293 152.731 212.322 152.574 212.38C152.418 212.437 152.286 212.513 152.18 212.606C152.073 212.699 151.989 212.798 151.926 212.904V212.342H151.141V216.24H151.945ZM157.42 216.229C157.267 216.286 157.083 216.315 156.867 216.315C156.356 216.315 155.954 216.14 155.661 215.789C155.368 215.439 155.222 214.933 155.222 214.272C155.222 213.867 155.281 213.515 155.398 213.215C155.516 212.914 155.692 212.681 155.926 212.515C156.16 212.349 156.45 212.266 156.796 212.266C156.971 212.266 157.127 212.288 157.264 212.33C157.4 212.373 157.52 212.429 157.624 212.496C157.728 212.564 157.815 212.637 157.883 212.715C157.952 212.793 158.006 212.866 158.043 212.934V210.638H158.851V216.24H158.25L158.16 215.441C158.132 215.526 158.089 215.619 158.032 215.72C157.974 215.82 157.896 215.916 157.797 216.006C157.698 216.097 157.572 216.171 157.42 216.229ZM157.021 215.708C156.698 215.708 156.451 215.583 156.279 215.331C156.108 215.08 156.022 214.718 156.022 214.246C156.022 213.766 156.116 213.418 156.304 213.203C156.492 212.988 156.735 212.881 157.033 212.881C157.271 212.881 157.463 212.933 157.609 213.037C157.756 213.142 157.864 213.296 157.934 213.499C158.004 213.703 158.041 213.952 158.043 214.246C158.043 214.766 157.963 215.14 157.803 215.367C157.642 215.595 157.382 215.708 157.021 215.708ZM90.9979 226.009V227.894H90.1902V222.782H90.9941L91.0016 223.43C91.0492 223.345 91.1106 223.26 91.1857 223.176C91.2608 223.092 91.3504 223.014 91.4543 222.942C91.5582 222.87 91.6772 222.813 91.8112 222.77C91.9452 222.728 92.0936 222.706 92.2563 222.706C92.5619 222.706 92.8317 222.777 93.0659 222.919C93.3001 223.061 93.4829 223.279 93.6144 223.572C93.7459 223.864 93.8116 224.236 93.8116 224.686C93.8116 225.138 93.7459 225.518 93.6144 225.824C93.4829 226.131 93.2957 226.363 93.0528 226.52C92.8098 226.677 92.5218 226.755 92.1887 226.755C92.0284 226.755 91.8844 226.733 91.7567 226.688C91.629 226.642 91.5163 226.583 91.4186 226.508C91.3209 226.434 91.2377 226.354 91.1688 226.267C91.0999 226.18 91.0429 226.094 90.9979 226.009ZM92.0197 226.141C91.7943 226.141 91.6052 226.076 91.4524 225.945C91.2997 225.814 91.1851 225.64 91.1087 225.423C91.0323 225.205 90.9941 224.965 90.9941 224.701C90.9941 224.296 91.0805 223.965 91.2533 223.707C91.4261 223.45 91.6816 223.321 92.0197 223.321C92.3478 223.321 92.6001 223.445 92.7766 223.692C92.9532 223.94 93.0415 224.276 93.0415 224.701C93.0415 225.196 92.9457 225.56 92.7541 225.792C92.5625 226.025 92.3177 226.141 92.0197 226.141ZM95.4178 224.335V226.68H94.6138V222.782H95.384V223.581C95.4491 223.39 95.5399 223.23 95.6563 223.1C95.7728 222.971 95.9086 222.873 96.0639 222.806C96.2192 222.74 96.3832 222.706 96.556 222.706C96.6086 222.706 96.6587 222.71 96.7063 222.716C96.7539 222.722 96.7915 222.733 96.819 222.748V223.524C96.7864 223.509 96.7445 223.499 96.6932 223.494C96.6418 223.489 96.5974 223.486 96.5598 223.483C96.3895 223.47 96.2342 223.479 96.094 223.509C95.9537 223.54 95.8329 223.59 95.7314 223.66C95.63 223.731 95.5524 223.822 95.4985 223.935C95.4447 224.049 95.4178 224.182 95.4178 224.335ZM99.0173 226.755C99.4055 226.755 99.733 226.671 99.9997 226.501C100.266 226.331 100.469 226.096 100.608 225.794C100.747 225.492 100.817 225.144 100.817 224.75C100.817 224.317 100.743 223.949 100.595 223.643C100.447 223.338 100.239 223.105 99.9715 222.946C99.7035 222.786 99.3867 222.706 99.0211 222.706C98.6379 222.706 98.3111 222.791 98.0406 222.961C97.7701 223.131 97.5641 223.369 97.4226 223.675C97.2811 223.982 97.2104 224.34 97.2104 224.75C97.2104 225.174 97.2849 225.536 97.4339 225.836C97.5829 226.135 97.7933 226.363 98.065 226.52C98.3367 226.677 98.6542 226.755 99.0173 226.755ZM98.4313 225.941C98.5815 226.069 98.7781 226.133 99.0211 226.133C99.2415 226.133 99.4262 226.075 99.5752 225.958C99.7242 225.841 99.8363 225.677 99.9114 225.464C99.9865 225.252 100.024 225.006 100.024 224.727C100.024 224.468 99.9909 224.233 99.9245 224.02C99.8582 223.808 99.7511 223.639 99.6033 223.513C99.4556 223.388 99.2615 223.325 99.0211 223.325C98.7957 223.325 98.6078 223.382 98.4576 223.496C98.3073 223.611 98.194 223.773 98.1176 223.983C98.0412 224.192 98.003 224.441 98.003 224.727C98.003 224.981 98.0368 225.215 98.1044 225.428C98.1721 225.642 98.281 225.813 98.4313 225.941ZM103.199 226.755C103.484 226.755 103.74 226.7 103.967 226.59C104.194 226.479 104.378 226.324 104.519 226.126C104.661 225.927 104.745 225.697 104.773 225.436H104.089C104.069 225.554 104.023 225.668 103.95 225.779C103.878 225.89 103.779 225.98 103.655 226.05C103.531 226.121 103.385 226.156 103.218 226.156C102.87 226.156 102.605 226.028 102.423 225.771C102.242 225.515 102.151 225.171 102.151 224.738C102.151 224.266 102.248 223.915 102.444 223.687C102.639 223.458 102.892 223.344 103.203 223.344C103.373 223.344 103.52 223.377 103.644 223.443C103.768 223.51 103.867 223.599 103.941 223.709C104.015 223.82 104.063 223.939 104.085 224.067H104.78C104.75 223.796 104.665 223.558 104.525 223.355C104.385 223.151 104.201 222.992 103.975 222.878C103.748 222.764 103.489 222.706 103.199 222.706C102.821 222.706 102.496 222.792 102.224 222.963C101.952 223.134 101.745 223.372 101.602 223.679C101.46 223.986 101.388 224.341 101.388 224.746C101.388 225.176 101.465 225.541 101.619 225.841C101.773 226.142 101.987 226.369 102.26 226.524C102.533 226.678 102.846 226.755 103.199 226.755ZM108.019 226.614C107.783 226.708 107.537 226.755 107.279 226.755C106.911 226.755 106.586 226.676 106.306 226.516C106.025 226.356 105.807 226.128 105.65 225.832C105.494 225.535 105.416 225.182 105.416 224.772C105.416 224.368 105.487 224.01 105.63 223.7C105.772 223.389 105.979 223.146 106.25 222.97C106.52 222.794 106.846 222.706 107.226 222.706C107.602 222.706 107.918 222.787 108.175 222.948C108.431 223.109 108.626 223.334 108.759 223.624C108.892 223.915 108.958 224.257 108.958 224.652V224.919H106.223C106.223 225.153 106.261 225.362 106.338 225.547C106.414 225.732 106.53 225.878 106.685 225.984C106.841 226.091 107.033 226.145 107.264 226.145C107.494 226.145 107.694 226.092 107.863 225.986C108.032 225.881 108.143 225.724 108.195 225.515H108.939C108.894 225.781 108.788 226.008 108.622 226.194C108.455 226.38 108.254 226.52 108.019 226.614ZM108.192 224.395H106.223C106.223 224.217 106.26 224.043 106.334 223.875C106.408 223.707 106.519 223.568 106.666 223.46C106.814 223.352 107 223.298 107.222 223.298C107.44 223.298 107.621 223.347 107.765 223.443C107.909 223.54 108.016 223.672 108.087 223.839C108.157 224.006 108.192 224.192 108.192 224.395ZM112.016 226.614C111.787 226.708 111.514 226.755 111.199 226.755C110.928 226.755 110.675 226.713 110.438 226.627C110.201 226.542 110.004 226.407 109.845 226.224C109.686 226.04 109.586 225.805 109.546 225.519H110.263C110.296 225.667 110.358 225.79 110.449 225.886C110.541 225.983 110.651 226.055 110.78 226.101C110.909 226.148 111.047 226.171 111.195 226.171C111.441 226.171 111.639 226.126 111.791 226.037C111.942 225.948 112.018 225.81 112.018 225.624C112.018 225.491 111.977 225.384 111.896 225.304C111.814 225.224 111.686 225.164 111.511 225.127L110.737 224.942C110.416 224.867 110.16 224.747 109.967 224.582C109.774 224.417 109.676 224.187 109.674 223.89C109.674 223.661 109.731 223.458 109.845 223.279C109.959 223.101 110.128 222.961 110.354 222.859C110.579 222.757 110.86 222.706 111.195 222.706C111.633 222.706 111.985 222.804 112.251 223C112.516 223.197 112.654 223.481 112.664 223.852H111.969C111.944 223.674 111.863 223.534 111.727 223.432C111.59 223.33 111.41 223.279 111.188 223.279C110.957 223.279 110.768 223.325 110.62 223.417C110.473 223.509 110.399 223.649 110.399 223.837C110.399 223.966 110.453 224.067 110.56 224.141C110.668 224.215 110.829 224.276 111.045 224.324L111.781 224.508C111.971 224.559 112.128 224.625 112.251 224.706C112.373 224.788 112.47 224.878 112.54 224.976C112.61 225.074 112.66 225.176 112.688 225.281C112.717 225.387 112.732 225.486 112.732 225.579C112.732 225.825 112.67 226.036 112.546 226.211C112.422 226.385 112.245 226.52 112.016 226.614ZM114.95 226.755C115.266 226.755 115.538 226.708 115.767 226.614C115.996 226.52 116.173 226.385 116.297 226.211C116.421 226.036 116.483 225.825 116.483 225.579C116.483 225.486 116.468 225.387 116.44 225.281C116.411 225.176 116.361 225.074 116.291 224.976C116.221 224.878 116.125 224.788 116.002 224.706C115.879 224.625 115.723 224.559 115.532 224.508L114.796 224.324C114.581 224.276 114.419 224.215 114.311 224.141C114.204 224.067 114.15 223.966 114.15 223.837C114.15 223.649 114.224 223.509 114.372 223.417C114.519 223.325 114.708 223.279 114.939 223.279C115.162 223.279 115.341 223.33 115.478 223.432C115.614 223.534 115.695 223.674 115.72 223.852H116.415C116.405 223.481 116.267 223.197 116.002 223C115.736 222.804 115.385 222.706 114.946 222.706C114.611 222.706 114.33 222.757 114.105 222.859C113.879 222.961 113.71 223.101 113.596 223.279C113.482 223.458 113.425 223.661 113.425 223.89C113.427 224.187 113.525 224.417 113.718 224.582C113.911 224.747 114.167 224.867 114.488 224.942L115.262 225.127C115.437 225.164 115.566 225.224 115.647 225.304C115.728 225.384 115.769 225.491 115.769 225.624C115.769 225.81 115.693 225.948 115.542 226.037C115.39 226.126 115.192 226.171 114.946 226.171C114.799 226.171 114.66 226.148 114.531 226.101C114.402 226.055 114.292 225.983 114.201 225.886C114.109 225.79 114.047 225.667 114.015 225.519H113.297C113.337 225.805 113.437 226.04 113.596 226.224C113.755 226.407 113.953 226.542 114.189 226.627C114.426 226.713 114.68 226.755 114.95 226.755ZM119.742 226.614C119.506 226.708 119.26 226.755 119.002 226.755C118.634 226.755 118.309 226.676 118.029 226.516C117.748 226.356 117.53 226.128 117.373 225.832C117.217 225.535 117.139 225.182 117.139 224.772C117.139 224.368 117.21 224.01 117.353 223.7C117.495 223.389 117.702 223.146 117.973 222.97C118.243 222.794 118.569 222.706 118.949 222.706C119.325 222.706 119.641 222.787 119.898 222.948C120.154 223.109 120.349 223.334 120.482 223.624C120.615 223.915 120.681 224.257 120.681 224.652V224.919H117.946C117.946 225.153 117.984 225.362 118.061 225.547C118.137 225.732 118.253 225.878 118.408 225.984C118.564 226.091 118.756 226.145 118.987 226.145C119.217 226.145 119.417 226.092 119.586 225.986C119.755 225.881 119.866 225.724 119.918 225.515H120.662C120.617 225.781 120.511 226.008 120.345 226.194C120.178 226.38 119.977 226.52 119.742 226.614ZM119.915 224.395H117.946C117.946 224.217 117.983 224.043 118.057 223.875C118.131 223.707 118.242 223.568 118.389 223.46C118.537 223.352 118.723 223.298 118.945 223.298C119.163 223.298 119.344 223.347 119.488 223.443C119.632 223.54 119.739 223.672 119.81 223.839C119.88 224.006 119.915 224.192 119.915 224.395ZM123.489 226.669C123.336 226.726 123.152 226.755 122.937 226.755C122.426 226.755 122.024 226.58 121.731 226.229C121.438 225.879 121.291 225.373 121.291 224.712C121.291 224.307 121.35 223.955 121.468 223.655C121.586 223.354 121.762 223.121 121.996 222.955C122.23 222.789 122.52 222.706 122.866 222.706C123.041 222.706 123.197 222.728 123.333 222.77C123.47 222.813 123.59 222.869 123.694 222.936C123.798 223.004 123.884 223.077 123.953 223.155C124.022 223.233 124.075 223.306 124.113 223.374V221.078H124.92V226.68H124.319L124.229 225.881C124.202 225.966 124.159 226.059 124.101 226.16C124.044 226.26 123.966 226.356 123.867 226.446C123.768 226.537 123.642 226.611 123.489 226.669ZM123.091 226.148C122.768 226.148 122.521 226.023 122.349 225.771C122.177 225.52 122.092 225.158 122.092 224.686C122.092 224.206 122.186 223.858 122.373 223.643C122.561 223.428 122.804 223.321 123.102 223.321C123.34 223.321 123.532 223.373 123.679 223.477C123.825 223.582 123.934 223.736 124.004 223.939C124.074 224.143 124.11 224.392 124.113 224.686C124.113 225.206 124.033 225.58 123.872 225.807C123.712 226.035 123.452 226.148 123.091 226.148ZM129.831 226.614C129.602 226.708 129.33 226.755 129.014 226.755C128.744 226.755 128.49 226.713 128.254 226.627C128.017 226.542 127.819 226.407 127.66 226.224C127.501 226.04 127.402 225.805 127.361 225.519H128.079C128.112 225.667 128.174 225.79 128.265 225.886C128.356 225.983 128.467 226.055 128.596 226.101C128.724 226.148 128.863 226.171 129.011 226.171C129.256 226.171 129.455 226.126 129.606 226.037C129.758 225.948 129.833 225.81 129.833 225.624C129.833 225.491 129.793 225.384 129.711 225.304C129.63 225.224 129.501 225.164 129.326 225.127L128.552 224.942C128.232 224.867 127.975 224.747 127.782 224.582C127.589 224.417 127.492 224.187 127.489 223.89C127.489 223.661 127.546 223.458 127.66 223.279C127.774 223.101 127.944 222.961 128.169 222.859C128.395 222.757 128.675 222.706 129.011 222.706C129.449 222.706 129.801 222.804 130.066 223C130.332 223.197 130.469 223.481 130.479 223.852H129.784C129.759 223.674 129.679 223.534 129.542 223.432C129.406 223.33 129.226 223.279 129.003 223.279C128.773 223.279 128.584 223.325 128.436 223.417C128.288 223.509 128.214 223.649 128.214 223.837C128.214 223.966 128.268 224.067 128.376 224.141C128.483 224.215 128.645 224.276 128.86 224.324L129.597 224.508C129.787 224.559 129.944 224.625 130.066 224.706C130.189 224.788 130.285 224.878 130.355 224.976C130.426 225.074 130.475 225.176 130.504 225.281C130.533 225.387 130.547 225.486 130.547 225.579C130.547 225.825 130.485 226.036 130.361 226.211C130.237 226.385 130.061 226.52 129.831 226.614ZM132.829 226.755C133.007 226.758 133.176 226.732 133.335 226.678C133.494 226.624 133.632 226.536 133.748 226.414C133.864 226.292 133.945 226.13 133.99 225.926L134.08 226.68H134.704V222.782H133.904V225.319C133.904 225.588 133.824 225.792 133.663 225.932C133.503 226.071 133.29 226.141 133.025 226.141C132.732 226.141 132.513 226.068 132.367 225.922C132.222 225.776 132.15 225.587 132.15 225.353V222.782H131.342V225.44C131.342 225.656 131.383 225.846 131.464 226.009C131.545 226.172 131.655 226.309 131.794 226.42C131.933 226.53 132.092 226.613 132.27 226.669C132.448 226.724 132.634 226.753 132.829 226.755ZM138.027 226.59C137.801 226.7 137.545 226.755 137.259 226.755C136.906 226.755 136.593 226.678 136.32 226.524C136.047 226.369 135.834 226.142 135.68 225.841C135.526 225.541 135.449 225.176 135.449 224.746C135.449 224.341 135.52 223.986 135.663 223.679C135.805 223.372 136.013 223.134 136.284 222.963C136.556 222.792 136.881 222.706 137.259 222.706C137.55 222.706 137.808 222.764 138.035 222.878C138.262 222.992 138.445 223.151 138.585 223.355C138.726 223.558 138.811 223.796 138.841 224.067H138.146C138.123 223.939 138.075 223.82 138.001 223.709C137.927 223.599 137.828 223.51 137.704 223.443C137.58 223.377 137.433 223.344 137.263 223.344C136.952 223.344 136.699 223.458 136.504 223.687C136.309 223.915 136.211 224.266 136.211 224.738C136.211 225.171 136.302 225.515 136.483 225.771C136.665 226.028 136.93 226.156 137.278 226.156C137.446 226.156 137.592 226.121 137.716 226.05C137.84 225.98 137.938 225.89 138.011 225.779C138.083 225.668 138.13 225.554 138.15 225.436H138.833C138.806 225.697 138.721 225.927 138.58 226.126C138.438 226.324 138.254 226.479 138.027 226.59ZM141.256 226.755C141.542 226.755 141.798 226.7 142.025 226.59C142.251 226.479 142.435 226.324 142.577 226.126C142.718 225.927 142.803 225.697 142.831 225.436H142.147C142.127 225.554 142.08 225.668 142.008 225.779C141.935 225.89 141.837 225.98 141.713 226.05C141.589 226.121 141.443 226.156 141.275 226.156C140.927 226.156 140.662 226.028 140.481 225.771C140.299 225.515 140.208 225.171 140.208 224.738C140.208 224.266 140.306 223.915 140.501 223.687C140.697 223.458 140.95 223.344 141.26 223.344C141.431 223.344 141.578 223.377 141.702 223.443C141.826 223.51 141.925 223.599 141.998 223.709C142.072 223.82 142.121 223.939 142.143 224.067H142.838C142.808 223.796 142.723 223.558 142.583 223.355C142.442 223.151 142.259 222.992 142.032 222.878C141.806 222.764 141.547 222.706 141.256 222.706C140.878 222.706 140.553 222.792 140.282 222.963C140.01 223.134 139.803 223.372 139.66 223.679C139.517 223.986 139.446 224.341 139.446 224.746C139.446 225.176 139.523 225.541 139.677 225.841C139.831 226.142 140.044 226.369 140.317 226.524C140.59 226.678 140.903 226.755 141.256 226.755ZM146.076 226.614C145.841 226.708 145.594 226.755 145.336 226.755C144.968 226.755 144.644 226.676 144.363 226.516C144.083 226.356 143.864 226.128 143.708 225.832C143.551 225.535 143.473 225.182 143.473 224.772C143.473 224.368 143.544 224.01 143.687 223.7C143.83 223.389 144.037 223.146 144.307 222.97C144.578 222.794 144.903 222.706 145.284 222.706C145.659 222.706 145.976 222.787 146.232 222.948C146.489 223.109 146.684 223.334 146.817 223.624C146.949 223.915 147.016 224.257 147.016 224.652V224.919H144.281C144.281 225.153 144.319 225.362 144.395 225.547C144.472 225.732 144.588 225.878 144.743 225.984C144.898 226.091 145.091 226.145 145.321 226.145C145.552 226.145 145.752 226.092 145.921 225.986C146.09 225.881 146.2 225.724 146.253 225.515H146.997C146.952 225.781 146.846 226.008 146.679 226.194C146.513 226.38 146.312 226.52 146.076 226.614ZM146.249 224.395H144.281C144.281 224.217 144.318 224.043 144.392 223.875C144.466 223.707 144.576 223.568 144.724 223.46C144.872 223.352 145.057 223.298 145.28 223.298C145.498 223.298 145.679 223.347 145.823 223.443C145.967 223.54 146.074 223.672 146.144 223.839C146.214 224.006 146.249 224.192 146.249 224.395ZM150.074 226.614C149.844 226.708 149.572 226.755 149.256 226.755C148.986 226.755 148.732 226.713 148.496 226.627C148.259 226.542 148.061 226.407 147.902 226.224C147.743 226.04 147.644 225.805 147.604 225.519H148.321C148.354 225.667 148.416 225.79 148.507 225.886C148.598 225.983 148.709 226.055 148.838 226.101C148.967 226.148 149.105 226.171 149.253 226.171C149.498 226.171 149.697 226.126 149.848 226.037C150 225.948 150.075 225.81 150.075 225.624C150.075 225.491 150.035 225.384 149.953 225.304C149.872 225.224 149.744 225.164 149.568 225.127L148.794 224.942C148.474 224.867 148.217 224.747 148.024 224.582C147.831 224.417 147.734 224.187 147.731 223.89C147.731 223.661 147.788 223.458 147.902 223.279C148.016 223.101 148.186 222.961 148.411 222.859C148.637 222.757 148.917 222.706 149.253 222.706C149.691 222.706 150.043 222.804 150.308 223C150.574 223.197 150.712 223.481 150.722 223.852H150.027C150.002 223.674 149.921 223.534 149.784 223.432C149.648 223.33 149.468 223.279 149.245 223.279C149.015 223.279 148.826 223.325 148.678 223.417C148.53 223.509 148.456 223.649 148.456 223.837C148.456 223.966 148.51 224.067 148.618 224.141C148.726 224.215 148.887 224.276 149.102 224.324L149.839 224.508C150.029 224.559 150.186 224.625 150.308 224.706C150.431 224.788 150.527 224.878 150.598 224.976C150.668 225.074 150.717 225.176 150.746 225.281C150.775 225.387 150.789 225.486 150.789 225.579C150.789 225.825 150.727 226.036 150.603 226.211C150.479 226.385 150.303 226.52 150.074 226.614ZM153.008 226.755C153.323 226.755 153.596 226.708 153.825 226.614C154.054 226.52 154.23 226.385 154.354 226.211C154.478 226.036 154.54 225.825 154.54 225.579C154.54 225.486 154.526 225.387 154.497 225.281C154.468 225.176 154.419 225.074 154.349 224.976C154.279 224.878 154.182 224.788 154.06 224.706C153.937 224.625 153.78 224.559 153.59 224.508L152.854 224.324C152.638 224.276 152.477 224.215 152.369 224.141C152.261 224.067 152.208 223.966 152.208 223.837C152.208 223.649 152.281 223.509 152.429 223.417C152.577 223.325 152.766 223.279 152.996 223.279C153.219 223.279 153.399 223.33 153.535 223.432C153.672 223.534 153.753 223.674 153.778 223.852H154.473C154.463 223.481 154.325 223.197 154.06 223C153.794 222.804 153.442 222.706 153.004 222.706C152.668 222.706 152.388 222.757 152.162 222.859C151.937 222.961 151.767 223.101 151.653 223.279C151.539 223.458 151.482 223.661 151.482 223.89C151.485 224.187 151.583 224.417 151.775 224.582C151.968 224.747 152.225 224.867 152.546 224.942L153.319 225.127C153.495 225.164 153.623 225.224 153.705 225.304C153.786 225.384 153.827 225.491 153.827 225.624C153.827 225.81 153.751 225.948 153.599 226.037C153.448 226.126 153.249 226.171 153.004 226.171C152.856 226.171 152.718 226.148 152.589 226.101C152.46 226.055 152.35 225.983 152.258 225.886C152.167 225.79 152.105 225.667 152.072 225.519H151.355C151.395 225.805 151.494 226.04 151.653 226.224C151.812 226.407 152.01 226.542 152.247 226.627C152.484 226.713 152.737 226.755 153.008 226.755ZM156.729 223.362V226.68H155.921V223.362H155.129V222.782H155.921V222.19C155.921 221.878 156.004 221.64 156.169 221.476C156.334 221.311 156.577 221.229 156.898 221.229H157.672L157.676 221.787H157.116C156.96 221.787 156.855 221.827 156.798 221.909C156.742 221.991 156.714 222.116 156.714 222.284V222.782H157.638V223.362H156.729ZM159.805 226.755C159.983 226.758 160.151 226.732 160.31 226.678C160.469 226.624 160.607 226.536 160.723 226.414C160.84 226.292 160.921 226.13 160.966 225.926L161.056 226.68H161.679V222.782H160.879V225.319C160.879 225.588 160.799 225.792 160.639 225.932C160.478 226.071 160.266 226.141 160 226.141C159.707 226.141 159.488 226.068 159.343 225.922C159.197 225.776 159.125 225.587 159.125 225.353V222.782H158.317V225.44C158.317 225.656 158.358 225.846 158.439 226.009C158.521 226.172 158.631 226.309 158.77 226.42C158.909 226.53 159.067 226.613 159.245 226.669C159.423 226.724 159.609 226.753 159.805 226.755ZM163.932 226.714C163.866 226.726 163.804 226.733 163.746 226.733C163.516 226.733 163.331 226.703 163.192 226.642C163.053 226.582 162.947 226.501 162.875 226.399C162.802 226.297 162.754 226.182 162.73 226.052C162.706 225.923 162.694 225.789 162.694 225.651V221.078H163.487V225.568C163.487 225.749 163.523 225.887 163.594 225.983C163.665 226.078 163.775 226.132 163.923 226.145L164.126 226.152V226.665C164.063 226.685 163.999 226.701 163.932 226.714ZM165.868 226.733C165.925 226.733 165.987 226.726 166.054 226.714C166.12 226.701 166.185 226.685 166.247 226.665V226.152L166.044 226.145C165.897 226.132 165.787 226.078 165.716 225.983C165.644 225.887 165.609 225.749 165.609 225.568V221.078H164.816V225.651C164.816 225.789 164.828 225.923 164.852 226.052C164.875 226.182 164.924 226.297 164.996 226.399C165.069 226.501 165.175 226.582 165.314 226.642C165.453 226.703 165.637 226.733 165.868 226.733ZM167.847 227.837C167.689 227.895 167.517 227.924 167.332 227.924C167.094 227.924 166.929 227.906 166.838 227.871L166.701 227.819V227.298L167.095 227.306C167.245 227.313 167.369 227.305 167.465 227.279C167.562 227.254 167.638 227.22 167.694 227.176C167.751 227.132 167.794 227.085 167.824 227.034C167.854 226.984 167.877 226.938 167.892 226.895L168.012 226.567L166.498 222.782H167.302L168.391 225.662L169.473 222.782H170.262L168.643 226.899C168.533 227.17 168.412 227.38 168.28 227.528C168.149 227.677 168.004 227.78 167.847 227.837Z" fill="#36536B"/>
<g id="Group 31">
<ellipse id="Oval" opacity="0.25" cx="129.133" cy="174.48" rx="16.1825" ry="16.24" fill="#BA4270"/>
<path id="Path 2" d="M123.932 175.464L126.577 178.118L134.248 170.42" stroke="#BA4270" stroke-width="3"/>
</g>
</g>
</g>
</g>
<g id="Group 2 Copy">
<rect id="Rectangle_2" x="92.1445" y="239.44" width="75.711" height="17.4" rx="8.7" fill="#BA4270"/>
<path id="Dismiss" fill-rule="evenodd" clip-rule="evenodd" d="M121.787 250.176C121.43 250.365 120.977 250.46 120.428 250.46H119.087V245.847H119.66C119.806 245.847 119.951 245.848 120.096 245.849C120.241 245.85 120.362 245.852 120.46 245.854C121.017 245.866 121.472 245.966 121.824 246.153C122.175 246.341 122.433 246.602 122.598 246.938C122.762 247.274 122.844 247.672 122.844 248.131C122.844 248.61 122.757 249.023 122.583 249.371C122.409 249.718 122.144 249.987 121.787 250.176ZM120.021 249.707H120.447C120.71 249.707 120.949 249.656 121.164 249.554C121.379 249.452 121.551 249.285 121.68 249.053C121.81 248.821 121.874 248.512 121.874 248.125C121.874 247.766 121.817 247.474 121.703 247.249C121.588 247.025 121.425 246.861 121.213 246.756C121.001 246.652 120.75 246.6 120.46 246.6H120.021V249.707ZM124.442 246.689V245.85H123.539V246.689H124.442ZM124.432 247.162V250.46H123.545V247.162H124.432ZM126.526 250.524C126.799 250.524 127.039 250.483 127.247 250.403C127.455 250.322 127.617 250.204 127.733 250.05C127.85 249.896 127.908 249.709 127.908 249.49C127.908 249.416 127.896 249.332 127.872 249.24C127.847 249.147 127.803 249.055 127.74 248.964C127.676 248.872 127.587 248.788 127.471 248.71C127.356 248.633 127.206 248.572 127.021 248.527L126.487 248.406C126.309 248.369 126.178 248.326 126.093 248.276C126.009 248.226 125.966 248.158 125.966 248.071C125.966 247.954 126.018 247.867 126.122 247.809C126.226 247.752 126.358 247.723 126.519 247.723C126.674 247.723 126.803 247.758 126.905 247.827C127.008 247.896 127.071 247.994 127.095 248.122H127.87C127.866 247.796 127.742 247.544 127.5 247.366C127.257 247.187 126.934 247.098 126.529 247.098C126.23 247.098 125.978 247.143 125.772 247.235C125.567 247.326 125.411 247.451 125.307 247.608C125.202 247.766 125.149 247.943 125.149 248.141C125.153 248.413 125.243 248.623 125.419 248.771C125.595 248.919 125.828 249.023 126.119 249.085L126.697 249.206C126.846 249.234 126.952 249.274 127.017 249.328C127.081 249.381 127.114 249.452 127.114 249.541C127.114 249.658 127.059 249.745 126.95 249.801C126.841 249.858 126.697 249.886 126.519 249.886C126.434 249.886 126.345 249.871 126.252 249.843C126.159 249.814 126.076 249.766 126.003 249.698C125.93 249.63 125.879 249.537 125.852 249.42H125.047C125.088 249.68 125.181 249.891 125.327 250.053C125.473 250.216 125.652 250.335 125.864 250.411C126.076 250.486 126.297 250.524 126.526 250.524ZM129.436 248.348V250.46H128.508V247.162H129.417V247.627C129.517 247.483 129.651 247.358 129.819 247.254C129.988 247.15 130.2 247.098 130.456 247.098C130.569 247.098 130.683 247.118 130.8 247.158C130.916 247.199 131.026 247.258 131.129 247.335C131.231 247.413 131.315 247.51 131.378 247.627C131.484 247.476 131.624 247.35 131.796 247.249C131.969 247.148 132.161 247.098 132.373 247.098C132.496 247.098 132.621 247.118 132.747 247.158C132.873 247.199 132.989 247.265 133.095 247.356C133.201 247.448 133.286 247.569 133.351 247.721C133.415 247.873 133.448 248.061 133.448 248.284V250.46H132.519V248.399C132.519 248.267 132.493 248.162 132.442 248.082C132.39 248.002 132.324 247.945 132.244 247.91C132.165 247.875 132.081 247.857 131.992 247.857C131.909 247.857 131.825 247.873 131.741 247.906C131.656 247.939 131.584 247.992 131.524 248.064C131.465 248.137 131.435 248.231 131.435 248.348V250.46H130.51V248.316C130.51 248.216 130.484 248.132 130.431 248.064C130.378 247.996 130.312 247.945 130.232 247.91C130.153 247.875 130.072 247.857 129.989 247.857C129.904 247.857 129.82 247.875 129.735 247.91C129.65 247.945 129.579 247.999 129.522 248.072C129.465 248.146 129.436 248.238 129.436 248.348ZM135.096 246.689V245.85H134.193V246.689H135.096ZM135.087 247.162V250.46H134.2V247.162H135.087ZM137.18 250.524C137.453 250.524 137.694 250.483 137.902 250.403C138.109 250.322 138.271 250.204 138.388 250.05C138.505 249.896 138.563 249.709 138.563 249.49C138.563 249.416 138.551 249.332 138.526 249.24C138.502 249.147 138.458 249.055 138.394 248.964C138.331 248.872 138.241 248.788 138.126 248.71C138.01 248.633 137.86 248.572 137.676 248.527L137.142 248.406C136.964 248.369 136.833 248.326 136.748 248.276C136.663 248.226 136.621 248.158 136.621 248.071C136.621 247.954 136.673 247.867 136.776 247.809C136.88 247.752 137.013 247.723 137.174 247.723C137.328 247.723 137.457 247.758 137.56 247.827C137.663 247.896 137.726 247.994 137.749 248.122H138.525C138.52 247.796 138.397 247.544 138.154 247.366C137.912 247.187 137.588 247.098 137.183 247.098C136.884 247.098 136.632 247.143 136.427 247.235C136.221 247.326 136.066 247.451 135.961 247.608C135.856 247.766 135.804 247.943 135.804 248.141C135.808 248.413 135.898 248.623 136.074 248.771C136.25 248.919 136.483 249.023 136.773 249.085L137.352 249.206C137.5 249.234 137.607 249.274 137.671 249.328C137.736 249.381 137.768 249.452 137.768 249.541C137.768 249.658 137.714 249.745 137.604 249.801C137.495 249.858 137.352 249.886 137.174 249.886C137.089 249.886 137 249.871 136.907 249.843C136.814 249.814 136.73 249.766 136.657 249.698C136.584 249.63 136.534 249.537 136.506 249.42H135.702C135.742 249.68 135.836 249.891 135.982 250.053C136.128 250.216 136.307 250.335 136.519 250.411C136.731 250.486 136.951 250.524 137.18 250.524ZM141.143 250.403C140.935 250.483 140.695 250.524 140.421 250.524C140.192 250.524 139.972 250.486 139.76 250.411C139.548 250.335 139.369 250.216 139.223 250.053C139.077 249.891 138.983 249.68 138.943 249.42H139.747C139.775 249.537 139.825 249.63 139.898 249.698C139.971 249.766 140.055 249.814 140.148 249.843C140.241 249.871 140.33 249.886 140.415 249.886C140.593 249.886 140.736 249.858 140.846 249.801C140.955 249.745 141.009 249.658 141.009 249.541C141.009 249.452 140.977 249.381 140.912 249.328C140.848 249.274 140.741 249.234 140.593 249.206L140.014 249.085C139.724 249.023 139.491 248.919 139.315 248.771C139.139 248.623 139.049 248.413 139.045 248.141C139.045 247.943 139.097 247.766 139.202 247.608C139.307 247.451 139.462 247.326 139.668 247.235C139.873 247.143 140.126 247.098 140.424 247.098C140.829 247.098 141.153 247.187 141.395 247.366C141.638 247.544 141.762 247.796 141.766 248.122H140.99C140.967 247.994 140.904 247.896 140.801 247.827C140.698 247.758 140.57 247.723 140.415 247.723C140.254 247.723 140.121 247.752 140.017 247.809C139.914 247.867 139.862 247.954 139.862 248.071C139.862 248.158 139.904 248.226 139.989 248.276C140.074 248.326 140.205 248.369 140.383 248.406L140.917 248.527C141.101 248.572 141.251 248.633 141.367 248.71C141.482 248.788 141.572 248.872 141.635 248.964C141.699 249.055 141.743 249.147 141.767 249.24C141.792 249.332 141.804 249.416 141.804 249.49C141.804 249.709 141.746 249.896 141.629 250.05C141.513 250.204 141.35 250.322 141.143 250.403Z" fill="#FBFCFE"/>
</g>
</g>
</g>
<defs>
<filter id="filter0_d_0_1395" x="0.484131" y="0.330292" width="308.907" height="449.339" filterUnits="userSpaceOnUse" color-interpolation-filters="sRGB">
<feFlood flood-opacity="0" result="BackgroundImageFix"/>
<feColorMatrix in="SourceAlpha" type="matrix" values="0 0 0 0 0 0 0 0 0 0 0 0 0 0 0 0 0 0 127 0" result="hardAlpha"/>
<feOffset dx="25" dy="25"/>
<feGaussianBlur stdDeviation="40"/>
<feColorMatrix type="matrix" values="0 0 0 0 0.212302 0 0 0 0 0.32521 0 0 0 0 0.419299 0 0 0 0.300727 0"/>
<feBlend mode="normal" in2="BackgroundImageFix" result="effect1_dropShadow_0_1395"/>
<feBlend mode="normal" in="SourceGraphic" in2="effect1_dropShadow_0_1395" result="shape"/>
</filter>
<filter id="filter1_d_0_1395" x="73.8518" y="132.36" width="131.719" height="140.78" filterUnits="userSpaceOnUse" color-interpolation-filters="sRGB">
<feFlood flood-opacity="0" result="BackgroundImageFix"/>
<feColorMatrix in="SourceAlpha" type="matrix" values="0 0 0 0 0 0 0 0 0 0 0 0 0 0 0 0 0 0 127 0" result="hardAlpha"/>
<feMorphology radius="10" operator="erode" in="SourceAlpha" result="effect1_dropShadow_0_1395"/>
<feOffset dx="10" dy="10"/>
<feGaussianBlur stdDeviation="12.5"/>
<feColorMatrix type="matrix" values="0 0 0 0 0.212302 0 0 0 0 0.32521 0 0 0 0 0.419299 0 0 0 0.25 0"/>
<feBlend mode="normal" in2="BackgroundImageFix" result="effect1_dropShadow_0_1395"/>
<feBlend mode="normal" in="SourceGraphic" in2="effect1_dropShadow_0_1395" result="shape"/>
</filter>
<linearGradient id="paint0_linear_0_1395" x1="59.7881" y1="55" x2="59.7881" y2="62.1479" gradientUnits="userSpaceOnUse">
<stop stop-color="#454545"/>
<stop offset="0.226279" stop-color="#999999"/>
<stop offset="1" stop-color="white"/>
</linearGradient>
<linearGradient id="paint1_linear_0_1395" x1="204.326" y1="104.733" x2="198.858" y2="104.733" gradientUnits="userSpaceOnUse">
<stop stop-color="white" stop-opacity="0.01"/>
<stop offset="0.222178" stop-color="#BABABA"/>
<stop offset="0.54678" stop-color="white" stop-opacity="0.01"/>
<stop offset="1" stop-color="white" stop-opacity="0.01"/>
</linearGradient>
<linearGradient id="paint2_linear_0_1395" x1="55.4841" y1="104.582" x2="60.9608" y2="104.582" gradientUnits="userSpaceOnUse">
<stop stop-color="white" stop-opacity="0.01"/>
<stop offset="0.222178" stop-color="#BABABA"/>
<stop offset="0.54678" stop-color="white" stop-opacity="0.01"/>
<stop offset="1" stop-color="white" stop-opacity="0.01"/>
</linearGradient>
</defs>
</svg>
