<svg width="419" height="660" viewBox="0 0 419 660" fill="none" xmlns="http://www.w3.org/2000/svg">
<g id="Group 38">
<g id="Group 2 Copy 3">
<g id="iPhone-X-Mockup">
<g id="phone">
<g id="body" filter="url(#filter0_d_0_4933)">
<path fill-rule="evenodd" clip-rule="evenodd" d="M88.776 55.5695H280.009C298.35 55.5695 313.217 69.8048 313.217 87.365V522.635C313.217 540.195 298.35 554.431 280.009 554.431H88.776C70.4357 554.431 55.5679 540.195 55.5679 522.635V87.365C55.5679 69.8048 70.4357 55.5695 88.776 55.5695Z" fill="#213648"/>
</g>
<g id="frame">
<path id="reflect-frame-top" opacity="0.595562" fill-rule="evenodd" clip-rule="evenodd" d="M280.749 55H87.9226C78.92 55.549 70.6174 59.6569 63.0146 67.3239C67.9041 63.0559 76.6249 57.3446 88.1546 57.3446C88.1546 57.3446 272.83 57.3446 280.517 57.3446C292.046 57.3446 300.767 63.0559 305.656 67.3239C298.054 59.6569 289.751 55.549 280.749 55Z" fill="url(#paint0_linear_0_4933)" fill-opacity="0.65"/>
<path id="reflect-frame-right" opacity="0.75" fill-rule="evenodd" clip-rule="evenodd" d="M307.999 517.671V89.9818C307.999 78.5065 303.782 74.2644 301.266 71.5405C298.75 68.8165 298.643 67.4272 302.258 69.4838C305.873 71.5405 313.103 77.5305 313.103 89.9818V517.671C313.103 530.122 305.873 536.112 302.258 538.169C298.643 540.225 298.75 538.836 301.266 536.112C303.782 533.388 307.999 529.146 307.999 517.671Z" fill="url(#paint1_linear_0_4933)"/>
<path id="reflect-frame-left" opacity="0.75" fill-rule="evenodd" clip-rule="evenodd" d="M60.672 517.671V89.9818C60.672 78.5065 64.8894 74.2644 67.4053 71.5405C69.9212 68.8165 70.0283 67.4272 66.4134 69.4838C62.7984 71.5405 55.568 77.5305 55.568 89.9818V517.671C55.568 530.122 62.7984 536.112 66.4134 538.169C70.0283 540.225 69.9212 538.836 67.4053 536.112C64.8894 533.388 60.672 529.146 60.672 517.671Z" fill="url(#paint2_linear_0_4933)"/>
</g>
<g id="controls">
<path id="vol+" fill-rule="evenodd" clip-rule="evenodd" d="M53 158.557C53 157.452 53.8954 156.557 55 156.557H55.9645C57.0691 156.557 57.9645 157.452 57.9645 158.557V218.907C57.9645 220.012 57.0691 220.907 55.9645 220.907H55C53.8954 220.907 53 220.012 53 218.907V158.557Z" fill="#2E423C"/>
<path id="power" fill-rule="evenodd" clip-rule="evenodd" d="M310.535 211.043C310.535 209.939 311.431 209.043 312.535 209.043H313.5C314.605 209.043 315.5 209.939 315.5 211.043V253.993C315.5 255.098 314.605 255.993 313.5 255.993H312.535C311.431 255.993 310.535 255.098 310.535 253.993V211.043Z" fill="#2E423C"/>
</g>
</g>
<g id="Screen">
<path id="Screen Mask" fill-rule="evenodd" clip-rule="evenodd" d="M161.676 67.4445L87.2698 67.4445C76.1653 67.4445 68.0742 75.0078 68.0742 84.8859V507.276C68.0742 520.156 80.5765 531.567 94.7134 531.567H274.046C287.664 531.567 300.686 520.067 300.686 507.276V86.0276C300.686 74.188 291.896 67.5149 281.49 67.4445L205.904 67.4445C205.618 67.4914 200.425 69.6262 198.231 75.0078C196.036 80.3893 191.621 84.6793 186.787 84.6793H181.172C178.874 84.6793 172.824 82.4496 169.76 75.0078C166.697 67.5659 161.963 67.4914 161.676 67.4445Z" fill="#36536B"/>
<mask id="mask0_0_4933" style="mask-type:luminance" maskUnits="userSpaceOnUse" x="68" y="67" width="233" height="465">
<path id="Screen Mask_2" fill-rule="evenodd" clip-rule="evenodd" d="M161.676 67.4445L87.2698 67.4445C76.1653 67.4445 68.0742 75.0078 68.0742 84.8859V507.276C68.0742 520.156 80.5765 531.567 94.7134 531.567H274.046C287.664 531.567 300.686 520.067 300.686 507.276V86.0276C300.686 74.188 291.896 67.5149 281.49 67.4445L205.904 67.4445C205.618 67.4914 200.425 69.6262 198.231 75.0078C196.036 80.3893 191.621 84.6793 186.787 84.6793H181.172C178.874 84.6793 172.824 82.4496 169.76 75.0078C166.697 67.5659 161.963 67.4914 161.676 67.4445Z" fill="white"/>
</mask>
<g mask="url(#mask0_0_4933)">
</g>
</g>
</g>
</g>
<g id="Group 39">
<g id="Group 33">
<g id="Group 34">
<g id="Rectangle" filter="url(#filter1_d_0_4933)">
<rect x="96" y="197" width="176" height="191" rx="5" fill="#FBFCFE"/>
</g>
<g id="Group 32" clip-path="url(#clip0_0_4933)">
<path id="Payment of $9204 is" d="M129.597 315V305.601H132.776C133.448 305.601 134.046 305.714 134.57 305.939C135.094 306.164 135.506 306.498 135.805 306.94C136.108 307.382 136.26 307.926 136.26 308.571C136.26 309.195 136.119 309.728 135.837 310.17C135.56 310.612 135.172 310.948 134.674 311.178C134.176 311.408 133.597 311.522 132.938 311.522H130.832V315H129.597ZM130.826 310.508H132.912C133.558 310.508 134.082 310.329 134.485 309.969C134.888 309.609 135.09 309.12 135.09 308.5C135.09 307.876 134.882 307.404 134.466 307.083C134.05 306.762 133.513 306.602 132.854 306.602H130.826V310.508ZM139.26 315.13C138.827 315.13 138.443 315.054 138.109 314.902C137.776 314.746 137.514 314.523 137.323 314.233C137.137 313.943 137.043 313.592 137.043 313.18C137.043 312.435 137.303 311.88 137.823 311.516C138.343 311.152 139.178 310.957 140.326 310.931L141.528 310.898V310.372C141.528 309.96 141.405 309.635 141.158 309.397C140.911 309.154 140.527 309.033 140.007 309.033C139.622 309.037 139.282 309.128 138.987 309.306C138.697 309.484 138.508 309.774 138.421 310.177H137.362C137.388 309.739 137.511 309.371 137.732 309.072C137.953 308.769 138.261 308.539 138.655 308.383C139.054 308.227 139.524 308.149 140.066 308.149C140.651 308.149 141.136 308.231 141.522 308.396C141.912 308.561 142.202 308.803 142.393 309.124C142.588 309.445 142.685 309.839 142.685 310.307V315H141.658L141.574 313.739C141.314 314.263 140.982 314.627 140.579 314.831C140.181 315.03 139.741 315.13 139.26 315.13ZM139.624 314.265C139.849 314.265 140.072 314.224 140.293 314.142C140.519 314.06 140.725 313.949 140.911 313.81C141.097 313.667 141.245 313.509 141.353 313.336C141.466 313.158 141.524 312.976 141.528 312.79V311.639L140.527 311.659C140.016 311.668 139.587 311.72 139.24 311.815C138.898 311.91 138.64 312.06 138.467 312.263C138.298 312.467 138.213 312.734 138.213 313.063C138.213 313.44 138.343 313.735 138.603 313.947C138.868 314.159 139.208 314.265 139.624 314.265ZM145.086 317.145C144.692 317.145 144.421 317.117 144.273 317.061C144.126 317.004 144.052 316.976 144.052 316.976V316.196L144.735 316.209C144.986 316.218 145.194 316.2 145.359 316.157C145.524 316.114 145.656 316.055 145.755 315.982C145.855 315.908 145.931 315.826 145.983 315.735C146.039 315.644 146.085 315.557 146.119 315.475L146.353 314.837L143.727 308.279H144.943L146.925 313.466L148.895 308.279H150.071L147.237 315.507C147.064 315.932 146.869 316.263 146.652 316.502C146.44 316.74 146.202 316.907 145.937 317.002C145.677 317.097 145.394 317.145 145.086 317.145ZM151.255 315V308.279H152.412V309.254C152.598 308.959 152.854 308.701 153.179 308.48C153.504 308.259 153.926 308.149 154.446 308.149C154.689 308.149 154.936 308.19 155.187 308.272C155.443 308.355 155.677 308.478 155.889 308.643C156.101 308.808 156.266 309.009 156.383 309.247C156.591 308.918 156.873 308.654 157.228 308.454C157.583 308.251 157.984 308.149 158.431 308.149C158.665 308.149 158.909 308.186 159.165 308.259C159.421 308.329 159.657 308.454 159.874 308.636C160.095 308.814 160.274 309.063 160.413 309.384C160.552 309.7 160.621 310.108 160.621 310.606V315H159.412V310.723C159.412 310.316 159.347 310.001 159.217 309.78C159.087 309.555 158.916 309.397 158.704 309.306C158.496 309.215 158.272 309.169 158.034 309.169C157.826 309.169 157.605 309.211 157.371 309.293C157.137 309.375 156.938 309.514 156.773 309.709C156.608 309.904 156.526 310.17 156.526 310.508V315H155.33V310.372C155.33 310.108 155.259 309.887 155.116 309.709C154.977 309.531 154.801 309.397 154.589 309.306C154.381 309.215 154.173 309.169 153.965 309.169C153.735 309.169 153.504 309.215 153.27 309.306C153.04 309.397 152.845 309.542 152.685 309.741C152.529 309.936 152.451 310.192 152.451 310.508V315H151.255ZM163.261 311.919C163.261 312.344 163.33 312.729 163.469 313.076C163.612 313.418 163.826 313.691 164.112 313.895C164.402 314.099 164.764 314.2 165.198 314.2C165.627 314.2 165.995 314.101 166.303 313.901C166.615 313.702 166.814 313.414 166.901 313.037H168.038C167.956 313.492 167.774 313.875 167.492 314.188C167.21 314.499 166.87 314.736 166.472 314.896C166.073 315.052 165.657 315.13 165.224 315.13C164.595 315.13 164.043 314.994 163.566 314.72C163.089 314.447 162.717 314.055 162.448 313.544C162.179 313.033 162.045 312.419 162.045 311.704C162.045 310.998 162.166 310.378 162.409 309.845C162.652 309.312 163.003 308.896 163.462 308.597C163.926 308.298 164.483 308.149 165.133 308.149C165.765 308.149 166.3 308.285 166.738 308.558C167.176 308.831 167.507 309.217 167.733 309.715C167.962 310.209 168.077 310.797 168.077 311.477V311.919H163.261ZM163.267 311.106H166.92C166.92 310.721 166.855 310.374 166.725 310.066C166.595 309.754 166.396 309.51 166.127 309.332C165.863 309.15 165.529 309.059 165.126 309.059C164.706 309.059 164.357 309.161 164.08 309.364C163.807 309.564 163.601 309.822 163.462 310.138C163.328 310.45 163.263 310.773 163.267 311.106ZM169.628 315V308.279H170.791V309.254C170.9 309.068 171.049 308.892 171.24 308.727C171.435 308.563 171.669 308.431 171.942 308.331C172.219 308.231 172.538 308.181 172.897 308.181C173.322 308.181 173.712 308.266 174.067 308.435C174.427 308.604 174.713 308.868 174.925 309.228C175.142 309.583 175.25 310.043 175.25 310.606V315H174.048V310.723C174.048 310.199 173.909 309.811 173.632 309.559C173.359 309.304 173.003 309.176 172.566 309.176C172.262 309.176 171.979 309.226 171.714 309.325C171.45 309.421 171.235 309.568 171.071 309.767C170.906 309.962 170.824 310.209 170.824 310.508V315H169.628ZM180.128 309.156H178.613V313.336C178.613 313.574 178.637 313.75 178.685 313.862C178.737 313.971 178.821 314.04 178.938 314.07C179.06 314.101 179.224 314.116 179.432 314.116H180.167V314.922C180.085 314.952 179.959 314.978 179.79 315C179.625 315.022 179.419 315.033 179.172 315.033C178.709 315.033 178.349 314.97 178.093 314.844C177.838 314.718 177.658 314.532 177.554 314.285C177.454 314.038 177.404 313.735 177.404 313.375V309.156H176.312V308.279H177.437L177.729 306.322H178.613V308.272H180.128V309.156ZM187.158 315.13C186.538 315.13 185.996 314.998 185.533 314.733C185.069 314.465 184.709 314.073 184.454 313.557C184.198 313.041 184.07 312.411 184.07 311.665C184.07 310.963 184.189 310.348 184.428 309.819C184.666 309.291 185.015 308.881 185.474 308.591C185.938 308.296 186.499 308.149 187.158 308.149C187.777 308.149 188.315 308.285 188.77 308.558C189.229 308.827 189.584 309.224 189.836 309.748C190.087 310.272 190.213 310.911 190.213 311.665C190.213 312.35 190.096 312.952 189.862 313.472C189.632 313.992 189.29 314.4 188.835 314.694C188.384 314.985 187.825 315.13 187.158 315.13ZM187.158 314.181C187.561 314.181 187.901 314.079 188.178 313.875C188.455 313.672 188.666 313.379 188.809 312.998C188.952 312.617 189.023 312.164 189.023 311.639C189.023 311.158 188.96 310.727 188.835 310.346C188.709 309.96 188.507 309.655 188.23 309.429C187.957 309.204 187.6 309.091 187.158 309.091C186.75 309.091 186.406 309.193 186.124 309.397C185.842 309.596 185.628 309.887 185.481 310.268C185.338 310.649 185.266 311.106 185.266 311.639C185.266 312.112 185.331 312.541 185.461 312.926C185.591 313.312 185.795 313.618 186.072 313.843C186.349 314.068 186.711 314.181 187.158 314.181ZM195.228 308.279V309.156H193.596V315H192.387V309.156H190.97V308.279H192.387V307.239C192.387 306.706 192.524 306.301 192.797 306.023C193.07 305.742 193.477 305.601 194.019 305.601H195.286L195.293 306.452H194.285C194.012 306.452 193.826 306.526 193.726 306.673C193.627 306.821 193.577 307.044 193.577 307.343V308.279H195.228ZM203.11 315.13C201.984 315.13 201.069 314.905 200.367 314.454C199.665 313.999 199.262 313.299 199.158 312.354L201.134 312.315C201.238 312.744 201.461 313.072 201.804 313.297C202.15 313.518 202.584 313.628 203.104 313.628C203.416 313.628 203.691 313.579 203.929 313.479C204.172 313.375 204.363 313.236 204.501 313.063C204.64 312.885 204.709 312.684 204.709 312.458C204.709 312.112 204.599 311.854 204.378 311.685C204.157 311.512 203.817 311.373 203.357 311.269L201.817 310.938C201.102 310.794 200.528 310.511 200.094 310.086C199.665 309.657 199.446 309.083 199.438 308.363C199.433 307.774 199.592 307.265 199.912 306.836C200.237 306.403 200.677 306.069 201.232 305.835C201.791 305.601 202.417 305.484 203.11 305.484C203.821 305.484 204.434 305.612 204.95 305.867C205.47 306.119 205.868 306.459 206.146 306.888C206.427 307.313 206.564 307.783 206.555 308.298L204.638 308.331C204.577 307.915 204.438 307.588 204.222 307.349C204.005 307.111 203.645 306.992 203.143 306.992C202.883 306.992 202.651 307.02 202.447 307.076C202.244 307.133 202.068 307.213 201.921 307.317C201.773 307.417 201.661 307.536 201.583 307.674C201.509 307.813 201.472 307.969 201.472 308.142C201.472 308.415 201.563 308.632 201.745 308.792C201.932 308.948 202.28 309.094 202.792 309.228L204.306 309.598C205.16 309.802 205.775 310.151 206.152 310.645C206.534 311.139 206.724 311.739 206.724 312.445C206.724 312.987 206.575 313.459 206.276 313.862C205.981 314.265 205.563 314.577 205.021 314.798C204.48 315.02 203.843 315.13 203.11 315.13ZM202.298 304.255H203.942V305.945H202.298V304.255ZM202.265 314.551H203.903V316.242H202.265V314.551ZM211.287 315.143C210.702 315.143 210.156 315.03 209.649 314.805C209.142 314.58 208.728 314.263 208.407 313.856C208.087 313.444 207.907 312.963 207.868 312.413H209.675C209.753 312.777 209.926 313.074 210.195 313.303C210.464 313.529 210.802 313.641 211.209 313.641C211.66 313.641 212.054 313.535 212.392 313.323C212.734 313.111 212.99 312.773 213.159 312.309C213.332 311.845 213.393 311.239 213.341 310.489C213.22 310.719 213.051 310.92 212.834 311.093C212.622 311.262 212.372 311.395 212.086 311.49C211.8 311.581 211.482 311.626 211.131 311.626C210.494 311.626 209.928 311.507 209.434 311.269C208.945 311.026 208.559 310.684 208.277 310.242C208 309.796 207.861 309.267 207.861 308.656C207.861 308.041 208.009 307.492 208.303 307.011C208.598 306.53 209.01 306.153 209.538 305.88C210.067 305.607 210.687 305.471 211.397 305.471C212.195 305.471 212.882 305.662 213.458 306.043C214.039 306.42 214.483 306.957 214.79 307.655C215.102 308.348 215.258 309.165 215.258 310.105C215.258 311.228 215.098 312.164 214.777 312.913C214.461 313.659 214.006 314.218 213.412 314.59C212.819 314.959 212.11 315.143 211.287 315.143ZM211.456 310.118C211.72 310.118 211.976 310.06 212.223 309.943C212.474 309.822 212.68 309.67 212.84 309.488C213.001 309.306 213.081 309.117 213.081 308.922C213.085 308.502 213.018 308.142 212.879 307.843C212.745 307.54 212.554 307.308 212.307 307.148C212.065 306.988 211.781 306.907 211.456 306.907C211.157 306.907 210.89 306.977 210.656 307.115C210.422 307.254 210.238 307.449 210.104 307.7C209.97 307.952 209.902 308.242 209.902 308.571C209.902 309.061 210.045 309.442 210.331 309.715C210.617 309.984 210.992 310.118 211.456 310.118ZM216.467 315V314.064V313.583C216.467 313.106 216.556 312.695 216.734 312.348C216.911 311.997 217.145 311.694 217.436 311.438C217.73 311.178 218.051 310.95 218.398 310.755C218.749 310.56 219.1 310.376 219.451 310.203C219.802 310.03 220.122 309.856 220.413 309.683C220.707 309.505 220.944 309.308 221.121 309.091C221.299 308.875 221.388 308.619 221.388 308.324C221.388 307.947 221.256 307.64 220.991 307.401C220.731 307.163 220.374 307.044 219.919 307.044C219.446 307.044 219.046 307.18 218.716 307.453C218.387 307.726 218.183 308.138 218.105 308.688H216.292C216.3 308.09 216.439 307.549 216.708 307.063C216.981 306.574 217.388 306.186 217.93 305.9C218.471 305.614 219.152 305.471 219.971 305.471C220.673 305.471 221.277 305.59 221.784 305.828C222.296 306.067 222.69 306.398 222.967 306.823C223.245 307.248 223.383 307.744 223.383 308.311C223.383 308.784 223.297 309.191 223.123 309.533C222.95 309.876 222.72 310.168 222.434 310.411C222.148 310.654 221.834 310.866 221.492 311.048C221.149 311.23 220.807 311.399 220.465 311.555C220.127 311.711 219.815 311.871 219.529 312.036C219.243 312.196 219.013 312.378 218.84 312.582C218.666 312.786 218.58 313.03 218.58 313.316V313.401H223.37V315H216.467ZM228.084 305.471C229.202 305.471 230.084 305.889 230.729 306.725C231.375 307.557 231.698 308.756 231.698 310.32C231.698 311.876 231.379 313.069 230.742 313.901C230.105 314.729 229.219 315.143 228.084 315.143C226.944 315.143 226.053 314.729 225.412 313.901C224.775 313.074 224.457 311.882 224.457 310.326C224.457 309.286 224.604 308.405 224.899 307.681C225.193 306.957 225.611 306.409 226.153 306.036C226.695 305.659 227.338 305.471 228.084 305.471ZM228.084 313.589C228.643 313.589 229.052 313.34 229.312 312.842C229.572 312.339 229.702 311.501 229.702 310.326C229.702 309.126 229.57 308.266 229.306 307.746C229.041 307.226 228.632 306.966 228.077 306.966C227.522 306.966 227.109 307.228 226.836 307.752C226.567 308.277 226.433 309.135 226.433 310.326C226.433 311.496 226.567 312.333 226.836 312.835C227.104 313.338 227.52 313.589 228.084 313.589ZM236.955 305.601H238.821V311.328H240.27V312.92H238.821V315H236.994L237.001 312.92H232.672V311.36L236.955 305.601ZM234.427 311.328H237.001V307.882L234.427 311.328ZM136.305 326.279V333H135.142V326.279H136.305ZM136.331 323.607V324.855H135.103V323.607H136.331ZM140.706 333.13C140.238 333.13 139.802 333.059 139.399 332.915C139.001 332.768 138.669 332.541 138.405 332.233C138.141 331.921 137.974 331.524 137.904 331.043H138.996C139.057 331.308 139.165 331.529 139.321 331.706C139.482 331.88 139.681 332.012 139.919 332.103C140.158 332.19 140.418 332.233 140.699 332.233C141.15 332.233 141.514 332.148 141.791 331.979C142.069 331.81 142.207 331.55 142.207 331.199C142.207 330.952 142.134 330.755 141.986 330.608C141.843 330.456 141.62 330.346 141.317 330.276L139.926 329.932C139.384 329.802 138.951 329.598 138.626 329.321C138.301 329.044 138.138 328.656 138.138 328.157C138.134 327.763 138.227 327.416 138.418 327.117C138.609 326.818 138.895 326.582 139.276 326.409C139.657 326.236 140.132 326.149 140.699 326.149C141.427 326.149 142.015 326.314 142.461 326.643C142.912 326.968 143.146 327.447 143.163 328.079H142.103C142.06 327.759 141.915 327.505 141.668 327.319C141.425 327.128 141.098 327.033 140.686 327.033C140.257 327.033 139.909 327.12 139.64 327.293C139.371 327.462 139.237 327.726 139.237 328.086C139.237 328.324 139.332 328.513 139.523 328.651C139.714 328.786 139.995 328.898 140.368 328.989L141.713 329.328C142.025 329.41 142.281 329.518 142.48 329.652C142.684 329.787 142.844 329.936 142.961 330.101C143.083 330.266 143.167 330.439 143.215 330.621C143.267 330.799 143.293 330.97 143.293 331.134C143.293 331.546 143.189 331.901 142.981 332.2C142.777 332.495 142.483 332.725 142.097 332.889C141.716 333.05 141.252 333.13 140.706 333.13ZM150.231 326.149C150.712 326.149 151.145 326.242 151.531 326.428C151.917 326.61 152.231 326.87 152.474 327.208C152.721 327.546 152.874 327.945 152.935 328.404H151.869C151.83 328.17 151.739 327.956 151.596 327.761C151.457 327.566 151.273 327.41 151.044 327.293C150.814 327.176 150.545 327.117 150.238 327.117C149.661 327.117 149.193 327.325 148.834 327.741C148.474 328.157 148.294 328.794 148.294 329.652C148.294 330.428 148.459 331.05 148.788 331.518C149.122 331.982 149.611 332.213 150.257 332.213C150.565 332.213 150.831 332.155 151.057 332.038C151.286 331.917 151.47 331.758 151.609 331.563C151.748 331.364 151.837 331.152 151.876 330.926H152.922C152.866 331.377 152.714 331.767 152.467 332.096C152.22 332.426 151.904 332.681 151.518 332.863C151.137 333.041 150.708 333.13 150.231 333.13C149.629 333.13 149.094 332.998 148.626 332.733C148.162 332.469 147.798 332.079 147.534 331.563C147.269 331.048 147.137 330.415 147.137 329.665C147.137 328.963 147.256 328.35 147.495 327.826C147.737 327.297 148.088 326.886 148.548 326.591C149.011 326.296 149.572 326.149 150.231 326.149ZM157.132 333.13C156.513 333.13 155.971 332.998 155.507 332.733C155.044 332.465 154.684 332.073 154.428 331.557C154.173 331.041 154.045 330.411 154.045 329.665C154.045 328.963 154.164 328.348 154.402 327.819C154.641 327.291 154.99 326.881 155.449 326.591C155.913 326.296 156.474 326.149 157.132 326.149C157.752 326.149 158.289 326.285 158.744 326.558C159.204 326.827 159.559 327.224 159.81 327.748C160.062 328.272 160.187 328.911 160.187 329.665C160.187 330.35 160.07 330.952 159.836 331.472C159.607 331.992 159.264 332.4 158.809 332.694C158.359 332.985 157.8 333.13 157.132 333.13ZM157.132 332.181C157.535 332.181 157.876 332.079 158.153 331.875C158.43 331.672 158.64 331.379 158.783 330.998C158.926 330.617 158.998 330.164 158.998 329.639C158.998 329.158 158.935 328.727 158.809 328.346C158.684 327.96 158.482 327.655 158.205 327.429C157.932 327.204 157.574 327.091 157.132 327.091C156.725 327.091 156.381 327.193 156.099 327.397C155.817 327.596 155.603 327.887 155.455 328.268C155.312 328.649 155.241 329.106 155.241 329.639C155.241 330.112 155.306 330.541 155.436 330.926C155.566 331.312 155.77 331.618 156.047 331.843C156.324 332.068 156.686 332.181 157.132 332.181ZM161.661 333V326.279H162.818V327.254C163.004 326.959 163.26 326.701 163.585 326.48C163.91 326.259 164.332 326.149 164.852 326.149C165.095 326.149 165.342 326.19 165.593 326.272C165.849 326.355 166.083 326.478 166.295 326.643C166.508 326.808 166.672 327.009 166.789 327.247C166.997 326.918 167.279 326.654 167.634 326.454C167.99 326.251 168.39 326.149 168.837 326.149C169.071 326.149 169.316 326.186 169.571 326.259C169.827 326.329 170.063 326.454 170.28 326.636C170.501 326.814 170.681 327.063 170.819 327.384C170.958 327.7 171.027 328.108 171.027 328.606V333H169.818V328.723C169.818 328.316 169.753 328.001 169.623 327.78C169.493 327.555 169.322 327.397 169.11 327.306C168.902 327.215 168.679 327.169 168.44 327.169C168.232 327.169 168.011 327.211 167.777 327.293C167.543 327.375 167.344 327.514 167.179 327.709C167.015 327.904 166.932 328.17 166.932 328.508V333H165.736V328.372C165.736 328.108 165.665 327.887 165.522 327.709C165.383 327.531 165.208 327.397 164.995 327.306C164.787 327.215 164.579 327.169 164.371 327.169C164.142 327.169 163.91 327.215 163.676 327.306C163.446 327.397 163.251 327.542 163.091 327.741C162.935 327.936 162.857 328.192 162.857 328.508V333H161.661ZM172.809 335.093V326.279H174.005L174.018 327.449C174.096 327.31 174.195 327.165 174.317 327.013C174.442 326.862 174.594 326.721 174.772 326.591C174.954 326.461 175.164 326.355 175.402 326.272C175.645 326.19 175.92 326.149 176.228 326.149C176.765 326.149 177.237 326.272 177.645 326.519C178.056 326.762 178.377 327.135 178.607 327.637C178.836 328.14 178.951 328.777 178.951 329.548C178.951 330.32 178.839 330.972 178.613 331.505C178.392 332.034 178.072 332.437 177.651 332.714C177.231 332.991 176.724 333.13 176.13 333.13C175.831 333.13 175.565 333.087 175.331 333C175.101 332.918 174.9 332.809 174.726 332.675C174.557 332.536 174.414 332.389 174.297 332.233C174.185 332.077 174.091 331.927 174.018 331.784V335.093H172.809ZM175.903 332.194C176.457 332.194 176.91 331.984 177.261 331.563C177.612 331.139 177.788 330.48 177.788 329.587C177.788 328.82 177.627 328.212 177.307 327.761C176.986 327.31 176.518 327.085 175.903 327.085C175.279 327.085 174.806 327.317 174.486 327.78C174.165 328.24 174.005 328.842 174.005 329.587C174.005 330.068 174.076 330.506 174.219 330.9C174.362 331.295 174.575 331.609 174.856 331.843C175.138 332.077 175.487 332.194 175.903 332.194ZM182.124 333.085C181.76 333.085 181.465 333.035 181.24 332.935C181.019 332.835 180.848 332.701 180.727 332.532C180.61 332.363 180.529 332.17 180.486 331.953C180.447 331.732 180.428 331.505 180.428 331.271V323.341H181.611V331.154C181.611 331.492 181.676 331.745 181.806 331.914C181.94 332.083 182.126 332.177 182.365 332.194L182.729 332.2V332.98C182.629 333.011 182.525 333.035 182.417 333.052C182.308 333.074 182.211 333.085 182.124 333.085ZM184.943 329.919C184.943 330.344 185.013 330.729 185.151 331.076C185.294 331.418 185.509 331.691 185.795 331.895C186.085 332.099 186.447 332.2 186.88 332.2C187.309 332.2 187.678 332.101 187.985 331.901C188.297 331.702 188.497 331.414 188.583 331.037H189.721C189.638 331.492 189.456 331.875 189.175 332.188C188.893 332.499 188.553 332.736 188.154 332.896C187.756 333.052 187.34 333.13 186.906 333.13C186.278 333.13 185.725 332.994 185.249 332.72C184.772 332.447 184.399 332.055 184.131 331.544C183.862 331.033 183.728 330.419 183.728 329.704C183.728 328.998 183.849 328.378 184.092 327.845C184.334 327.312 184.685 326.896 185.145 326.597C185.608 326.298 186.165 326.149 186.815 326.149C187.448 326.149 187.983 326.285 188.421 326.558C188.858 326.831 189.19 327.217 189.415 327.715C189.645 328.209 189.76 328.797 189.76 329.477V329.919H184.943ZM184.95 329.106H188.603C188.603 328.721 188.538 328.374 188.408 328.066C188.278 327.754 188.078 327.51 187.81 327.332C187.545 327.15 187.212 327.059 186.809 327.059C186.388 327.059 186.04 327.161 185.762 327.364C185.489 327.564 185.283 327.822 185.145 328.138C185.01 328.45 184.945 328.773 184.95 329.106ZM194.509 327.156H192.995V331.336C192.995 331.574 193.019 331.75 193.066 331.862C193.118 331.971 193.203 332.04 193.32 332.07C193.441 332.101 193.606 332.116 193.814 332.116H194.548V332.922C194.466 332.952 194.34 332.978 194.171 333C194.007 333.022 193.801 333.033 193.554 333.033C193.09 333.033 192.73 332.97 192.475 332.844C192.219 332.718 192.039 332.532 191.935 332.285C191.836 332.038 191.786 331.735 191.786 331.375V327.156H190.694V326.279H191.818L192.111 324.322H192.995V326.272H194.509V327.156ZM196.817 329.919C196.817 330.344 196.886 330.729 197.025 331.076C197.168 331.418 197.382 331.691 197.668 331.895C197.958 332.099 198.32 332.2 198.754 332.2C199.183 332.2 199.551 332.101 199.859 331.901C200.171 331.702 200.37 331.414 200.457 331.037H201.594C201.512 331.492 201.33 331.875 201.048 332.188C200.766 332.499 200.426 332.736 200.028 332.896C199.629 333.052 199.213 333.13 198.78 333.13C198.151 333.13 197.599 332.994 197.122 332.72C196.645 332.447 196.273 332.055 196.004 331.544C195.735 331.033 195.601 330.419 195.601 329.704C195.601 328.998 195.722 328.378 195.965 327.845C196.208 327.312 196.559 326.896 197.018 326.597C197.482 326.298 198.039 326.149 198.689 326.149C199.321 326.149 199.856 326.285 200.294 326.558C200.732 326.831 201.063 327.217 201.289 327.715C201.518 328.209 201.633 328.797 201.633 329.477V329.919H196.817ZM196.823 329.106H200.476C200.476 328.721 200.411 328.374 200.281 328.066C200.151 327.754 199.952 327.51 199.683 327.332C199.419 327.15 199.085 327.059 198.682 327.059C198.262 327.059 197.913 327.161 197.636 327.364C197.363 327.564 197.157 327.822 197.018 328.138C196.884 328.45 196.819 328.773 196.823 329.106ZM205.608 333.13C204.737 333.13 204.046 332.831 203.535 332.233C203.023 331.635 202.768 330.762 202.768 329.613C202.768 328.916 202.87 328.307 203.073 327.787C203.281 327.267 203.589 326.864 203.996 326.578C204.404 326.292 204.911 326.149 205.517 326.149C205.838 326.149 206.122 326.19 206.369 326.272C206.62 326.355 206.837 326.459 207.019 326.584C207.201 326.71 207.348 326.84 207.461 326.974C207.578 327.109 207.664 327.232 207.721 327.345V323.341H208.93V333H208.013L207.883 331.622C207.84 331.752 207.771 331.904 207.675 332.077C207.58 332.246 207.446 332.413 207.272 332.577C207.099 332.738 206.876 332.87 206.603 332.974C206.334 333.078 206.003 333.13 205.608 333.13ZM205.823 332.207C206.503 332.207 206.988 332.001 207.279 331.589C207.573 331.173 207.721 330.495 207.721 329.555C207.716 329.031 207.649 328.584 207.519 328.216C207.394 327.848 207.194 327.568 206.921 327.377C206.653 327.182 206.295 327.085 205.849 327.085C205.294 327.085 204.843 327.282 204.497 327.676C204.15 328.071 203.977 328.697 203.977 329.555C203.977 330.396 204.133 331.048 204.445 331.511C204.761 331.975 205.22 332.207 205.823 332.207ZM215.57 333.13C215.137 333.13 214.753 333.054 214.42 332.902C214.086 332.746 213.824 332.523 213.633 332.233C213.447 331.943 213.354 331.592 213.354 331.18C213.354 330.435 213.614 329.88 214.134 329.516C214.654 329.152 215.488 328.957 216.636 328.931L217.839 328.898V328.372C217.839 327.96 217.715 327.635 217.468 327.397C217.221 327.154 216.838 327.033 216.318 327.033C215.932 327.037 215.592 327.128 215.297 327.306C215.007 327.484 214.818 327.774 214.732 328.177H213.672C213.698 327.739 213.822 327.371 214.043 327.072C214.264 326.769 214.571 326.539 214.966 326.383C215.364 326.227 215.835 326.149 216.376 326.149C216.961 326.149 217.447 326.231 217.832 326.396C218.222 326.561 218.513 326.803 218.703 327.124C218.898 327.445 218.996 327.839 218.996 328.307V333H217.969L217.884 331.739C217.624 332.263 217.293 332.627 216.89 332.831C216.491 333.03 216.051 333.13 215.57 333.13ZM215.934 332.265C216.16 332.265 216.383 332.224 216.604 332.142C216.829 332.06 217.035 331.949 217.221 331.81C217.408 331.667 217.555 331.509 217.663 331.336C217.776 331.158 217.834 330.976 217.839 330.79V329.639L216.838 329.659C216.326 329.668 215.897 329.72 215.551 329.815C215.208 329.91 214.951 330.06 214.777 330.263C214.608 330.467 214.524 330.734 214.524 331.063C214.524 331.44 214.654 331.735 214.914 331.947C215.178 332.159 215.518 332.265 215.934 332.265ZM220.949 333V326.279H222.113V327.254C222.221 327.068 222.371 326.892 222.561 326.727C222.756 326.563 222.99 326.431 223.263 326.331C223.541 326.231 223.859 326.181 224.219 326.181C224.643 326.181 225.033 326.266 225.389 326.435C225.748 326.604 226.034 326.868 226.247 327.228C226.463 327.583 226.572 328.043 226.572 328.606V333H225.369V328.723C225.369 328.199 225.231 327.811 224.953 327.559C224.68 327.304 224.325 327.176 223.887 327.176C223.584 327.176 223.3 327.226 223.036 327.325C222.771 327.421 222.557 327.568 222.392 327.767C222.228 327.962 222.145 328.209 222.145 328.508V333H220.949ZM230.777 333.13C229.906 333.13 229.214 332.831 228.703 332.233C228.192 331.635 227.936 330.762 227.936 329.613C227.936 328.916 228.038 328.307 228.242 327.787C228.45 327.267 228.757 326.864 229.165 326.578C229.572 326.292 230.079 326.149 230.686 326.149C231.006 326.149 231.29 326.19 231.537 326.272C231.788 326.355 232.005 326.459 232.187 326.584C232.369 326.71 232.516 326.84 232.629 326.974C232.746 327.109 232.833 327.232 232.889 327.345V323.341H234.098V333H233.182L233.052 331.622C233.008 331.752 232.939 331.904 232.844 332.077C232.748 332.246 232.614 332.413 232.441 332.577C232.267 332.738 232.044 332.87 231.771 332.974C231.502 333.078 231.171 333.13 230.777 333.13ZM230.991 332.207C231.671 332.207 232.157 332.001 232.447 331.589C232.742 331.173 232.889 330.495 232.889 329.555C232.885 329.031 232.818 328.584 232.688 328.216C232.562 327.848 232.363 327.568 232.09 327.377C231.821 327.182 231.463 327.085 231.017 327.085C230.462 327.085 230.012 327.282 229.665 327.676C229.318 328.071 229.145 328.697 229.145 329.555C229.145 330.396 229.301 331.048 229.613 331.511C229.929 331.975 230.389 332.207 230.991 332.207ZM116.022 353.093V344.279H117.218L117.231 345.449C117.309 345.31 117.409 345.165 117.53 345.013C117.656 344.862 117.807 344.721 117.985 344.591C118.167 344.461 118.377 344.355 118.616 344.272C118.858 344.19 119.133 344.149 119.441 344.149C119.978 344.149 120.451 344.272 120.858 344.519C121.27 344.762 121.59 345.135 121.82 345.637C122.05 346.14 122.165 346.777 122.165 347.548C122.165 348.32 122.052 348.972 121.827 349.505C121.606 350.034 121.285 350.437 120.865 350.714C120.444 350.991 119.937 351.13 119.344 351.13C119.045 351.13 118.778 351.087 118.544 351C118.314 350.918 118.113 350.809 117.94 350.675C117.771 350.536 117.628 350.389 117.511 350.233C117.398 350.077 117.305 349.927 117.231 349.784V353.093H116.022ZM119.116 350.194C119.671 350.194 120.124 349.984 120.475 349.563C120.826 349.139 121.001 348.48 121.001 347.587C121.001 346.82 120.841 346.212 120.52 345.761C120.199 345.31 119.731 345.085 119.116 345.085C118.492 345.085 118.02 345.317 117.699 345.78C117.378 346.24 117.218 346.842 117.218 347.587C117.218 348.068 117.29 348.506 117.433 348.9C117.576 349.295 117.788 349.609 118.07 349.843C118.351 350.077 118.7 350.194 119.116 350.194ZM123.641 351V344.279H124.785V345.572C124.897 345.252 125.056 344.987 125.259 344.779C125.463 344.567 125.695 344.409 125.955 344.305C126.219 344.201 126.492 344.149 126.774 344.149C126.873 344.149 126.971 344.155 127.066 344.169C127.162 344.181 127.235 344.203 127.287 344.233V345.397C127.222 345.367 127.138 345.347 127.034 345.338C126.934 345.325 126.85 345.319 126.78 345.319C126.512 345.302 126.26 345.319 126.026 345.371C125.792 345.419 125.586 345.503 125.409 345.624C125.231 345.746 125.09 345.906 124.986 346.105C124.887 346.3 124.837 346.539 124.837 346.82V351H123.641ZM131.1 351.13C130.48 351.13 129.939 350.998 129.475 350.733C129.011 350.465 128.652 350.073 128.396 349.557C128.14 349.041 128.012 348.411 128.012 347.665C128.012 346.963 128.132 346.348 128.37 345.819C128.608 345.291 128.957 344.881 129.416 344.591C129.88 344.296 130.441 344.149 131.1 344.149C131.72 344.149 132.257 344.285 132.712 344.558C133.171 344.827 133.527 345.224 133.778 345.748C134.029 346.272 134.155 346.911 134.155 347.665C134.155 348.35 134.038 348.952 133.804 349.472C133.574 349.992 133.232 350.4 132.777 350.694C132.326 350.985 131.767 351.13 131.1 351.13ZM131.1 350.181C131.503 350.181 131.843 350.079 132.12 349.875C132.398 349.672 132.608 349.379 132.751 348.998C132.894 348.617 132.965 348.164 132.965 347.639C132.965 347.158 132.903 346.727 132.777 346.346C132.651 345.96 132.45 345.655 132.172 345.429C131.899 345.204 131.542 345.091 131.1 345.091C130.693 345.091 130.348 345.193 130.066 345.397C129.785 345.596 129.57 345.887 129.423 346.268C129.28 346.649 129.208 347.106 129.208 347.639C129.208 348.112 129.273 348.541 129.403 348.926C129.533 349.312 129.737 349.618 130.014 349.843C130.292 350.068 130.654 350.181 131.1 350.181ZM138.306 344.149C138.787 344.149 139.221 344.242 139.606 344.428C139.992 344.61 140.306 344.87 140.549 345.208C140.796 345.546 140.95 345.945 141.01 346.404H139.944C139.905 346.17 139.814 345.956 139.671 345.761C139.533 345.566 139.348 345.41 139.119 345.293C138.889 345.176 138.62 345.117 138.313 345.117C137.736 345.117 137.268 345.325 136.909 345.741C136.549 346.157 136.369 346.794 136.369 347.652C136.369 348.428 136.534 349.05 136.863 349.518C137.197 349.982 137.687 350.213 138.332 350.213C138.64 350.213 138.906 350.155 139.132 350.038C139.361 349.917 139.546 349.758 139.684 349.563C139.823 349.364 139.912 349.152 139.951 348.926H140.997C140.941 349.377 140.789 349.767 140.542 350.096C140.295 350.426 139.979 350.681 139.593 350.863C139.212 351.041 138.783 351.13 138.306 351.13C137.704 351.13 137.169 350.998 136.701 350.733C136.237 350.469 135.873 350.079 135.609 349.563C135.344 349.048 135.212 348.415 135.212 347.665C135.212 346.963 135.331 346.35 135.57 345.826C135.812 345.297 136.163 344.886 136.623 344.591C137.086 344.296 137.648 344.149 138.306 344.149ZM143.394 347.919C143.394 348.344 143.463 348.729 143.602 349.076C143.745 349.418 143.96 349.691 144.246 349.895C144.536 350.099 144.898 350.2 145.331 350.2C145.76 350.2 146.128 350.101 146.436 349.901C146.748 349.702 146.947 349.414 147.034 349.037H148.172C148.089 349.492 147.907 349.875 147.626 350.188C147.344 350.499 147.004 350.736 146.605 350.896C146.206 351.052 145.79 351.13 145.357 351.13C144.729 351.13 144.176 350.994 143.7 350.72C143.223 350.447 142.85 350.055 142.582 349.544C142.313 349.033 142.179 348.419 142.179 347.704C142.179 346.998 142.3 346.378 142.543 345.845C142.785 345.312 143.136 344.896 143.596 344.597C144.059 344.298 144.616 344.149 145.266 344.149C145.899 344.149 146.434 344.285 146.872 344.558C147.309 344.831 147.641 345.217 147.866 345.715C148.096 346.209 148.211 346.797 148.211 347.477V347.919H143.394ZM143.401 347.106H147.054C147.054 346.721 146.989 346.374 146.859 346.066C146.729 345.754 146.529 345.51 146.261 345.332C145.996 345.15 145.663 345.059 145.26 345.059C144.839 345.059 144.49 345.161 144.213 345.364C143.94 345.564 143.734 345.822 143.596 346.138C143.461 346.45 143.396 346.773 143.401 347.106ZM152.096 351.13C151.628 351.13 151.193 351.059 150.79 350.915C150.391 350.768 150.059 350.541 149.795 350.233C149.531 349.921 149.364 349.524 149.295 349.043H150.387C150.447 349.308 150.556 349.529 150.712 349.706C150.872 349.88 151.071 350.012 151.31 350.103C151.548 350.19 151.808 350.233 152.09 350.233C152.54 350.233 152.904 350.148 153.182 349.979C153.459 349.81 153.598 349.55 153.598 349.199C153.598 348.952 153.524 348.755 153.377 348.608C153.234 348.456 153.01 348.346 152.707 348.276L151.316 347.932C150.774 347.802 150.341 347.598 150.016 347.321C149.691 347.044 149.529 346.656 149.529 346.157C149.524 345.763 149.617 345.416 149.808 345.117C149.999 344.818 150.285 344.582 150.666 344.409C151.047 344.236 151.522 344.149 152.09 344.149C152.818 344.149 153.405 344.314 153.851 344.643C154.302 344.968 154.536 345.447 154.553 346.079H153.494C153.45 345.759 153.305 345.505 153.058 345.319C152.815 345.128 152.488 345.033 152.077 345.033C151.648 345.033 151.299 345.12 151.03 345.293C150.761 345.462 150.627 345.726 150.627 346.086C150.627 346.324 150.722 346.513 150.913 346.651C151.104 346.786 151.385 346.898 151.758 346.989L153.104 347.328C153.416 347.41 153.671 347.518 153.871 347.652C154.074 347.787 154.235 347.936 154.352 348.101C154.473 348.266 154.557 348.439 154.605 348.621C154.657 348.799 154.683 348.97 154.683 349.134C154.683 349.546 154.579 349.901 154.371 350.2C154.167 350.495 153.873 350.725 153.487 350.889C153.106 351.05 152.642 351.13 152.096 351.13ZM158.534 351.13C158.066 351.13 157.631 351.059 157.228 350.915C156.829 350.768 156.497 350.541 156.233 350.233C155.969 349.921 155.802 349.524 155.733 349.043H156.825C156.885 349.308 156.994 349.529 157.15 349.706C157.31 349.88 157.509 350.012 157.748 350.103C157.986 350.19 158.246 350.233 158.528 350.233C158.978 350.233 159.342 350.148 159.62 349.979C159.897 349.81 160.036 349.55 160.036 349.199C160.036 348.952 159.962 348.755 159.815 348.608C159.672 348.456 159.448 348.346 159.145 348.276L157.754 347.932C157.212 347.802 156.779 347.598 156.454 347.321C156.129 347.044 155.967 346.656 155.967 346.157C155.962 345.763 156.055 345.416 156.246 345.117C156.437 344.818 156.723 344.582 157.104 344.409C157.485 344.236 157.96 344.149 158.528 344.149C159.256 344.149 159.843 344.314 160.289 344.643C160.74 344.968 160.974 345.447 160.991 346.079H159.932C159.888 345.759 159.743 345.505 159.496 345.319C159.253 345.128 158.926 345.033 158.515 345.033C158.086 345.033 157.737 345.12 157.468 345.293C157.199 345.462 157.065 345.726 157.065 346.086C157.065 346.324 157.16 346.513 157.351 346.651C157.542 346.786 157.823 346.898 158.196 346.989L159.542 347.328C159.854 347.41 160.109 347.518 160.309 347.652C160.512 347.787 160.673 347.936 160.79 348.101C160.911 348.266 160.995 348.439 161.043 348.621C161.095 348.799 161.121 348.97 161.121 349.134C161.121 349.546 161.017 349.901 160.809 350.2C160.605 350.495 160.311 350.725 159.925 350.889C159.544 351.05 159.08 351.13 158.534 351.13ZM163.559 347.919C163.559 348.344 163.628 348.729 163.767 349.076C163.91 349.418 164.124 349.691 164.41 349.895C164.701 350.099 165.063 350.2 165.496 350.2C165.925 350.2 166.293 350.101 166.601 349.901C166.913 349.702 167.112 349.414 167.199 349.037H168.336C168.254 349.492 168.072 349.875 167.79 350.188C167.509 350.499 167.169 350.736 166.77 350.896C166.371 351.052 165.955 351.13 165.522 351.13C164.894 351.13 164.341 350.994 163.864 350.72C163.388 350.447 163.015 350.055 162.746 349.544C162.478 349.033 162.343 348.419 162.343 347.704C162.343 346.998 162.465 346.378 162.707 345.845C162.95 345.312 163.301 344.896 163.76 344.597C164.224 344.298 164.781 344.149 165.431 344.149C166.064 344.149 166.599 344.285 167.036 344.558C167.474 344.831 167.806 345.217 168.031 345.715C168.261 346.209 168.375 346.797 168.375 347.477V347.919H163.559ZM163.565 347.106H167.218C167.218 346.721 167.153 346.374 167.023 346.066C166.893 345.754 166.694 345.51 166.425 345.332C166.161 345.15 165.827 345.059 165.424 345.059C165.004 345.059 164.655 345.161 164.378 345.364C164.105 345.564 163.899 345.822 163.76 346.138C163.626 346.45 163.561 346.773 163.565 347.106ZM172.351 351.13C171.48 351.13 170.788 350.831 170.277 350.233C169.766 349.635 169.51 348.762 169.51 347.613C169.51 346.916 169.612 346.307 169.816 345.787C170.024 345.267 170.331 344.864 170.739 344.578C171.146 344.292 171.653 344.149 172.26 344.149C172.58 344.149 172.864 344.19 173.111 344.272C173.362 344.355 173.579 344.459 173.761 344.584C173.943 344.71 174.09 344.84 174.203 344.974C174.32 345.109 174.407 345.232 174.463 345.345V341.341H175.672V351H174.756L174.626 349.622C174.582 349.752 174.513 349.904 174.418 350.077C174.322 350.246 174.188 350.413 174.015 350.577C173.841 350.738 173.618 350.87 173.345 350.974C173.076 351.078 172.745 351.13 172.351 351.13ZM172.565 350.207C173.245 350.207 173.731 350.001 174.021 349.589C174.316 349.173 174.463 348.495 174.463 347.555C174.459 347.031 174.392 346.584 174.262 346.216C174.136 345.848 173.937 345.568 173.664 345.377C173.395 345.182 173.037 345.085 172.591 345.085C172.036 345.085 171.586 345.282 171.239 345.676C170.892 346.071 170.719 346.697 170.719 347.555C170.719 348.396 170.875 349.048 171.187 349.511C171.503 349.975 171.963 350.207 172.565 350.207ZM182.839 351.13C182.371 351.13 181.936 351.059 181.533 350.915C181.134 350.768 180.803 350.541 180.538 350.233C180.274 349.921 180.107 349.524 180.038 349.043H181.13C181.19 349.308 181.299 349.529 181.455 349.706C181.615 349.88 181.814 350.012 182.053 350.103C182.291 350.19 182.551 350.233 182.833 350.233C183.283 350.233 183.647 350.148 183.925 349.979C184.202 349.81 184.341 349.55 184.341 349.199C184.341 348.952 184.267 348.755 184.12 348.608C183.977 348.456 183.754 348.346 183.45 348.276L182.059 347.932C181.518 347.802 181.084 347.598 180.759 347.321C180.434 347.044 180.272 346.656 180.272 346.157C180.267 345.763 180.361 345.416 180.551 345.117C180.742 344.818 181.028 344.582 181.409 344.409C181.791 344.236 182.265 344.149 182.833 344.149C183.561 344.149 184.148 344.314 184.594 344.643C185.045 344.968 185.279 345.447 185.296 346.079H184.237C184.193 345.759 184.048 345.505 183.801 345.319C183.559 345.128 183.231 345.033 182.82 345.033C182.391 345.033 182.042 345.12 181.773 345.293C181.505 345.462 181.37 345.726 181.37 346.086C181.37 346.324 181.466 346.513 181.656 346.651C181.847 346.786 182.129 346.898 182.501 346.989L183.847 347.328C184.159 347.41 184.414 347.518 184.614 347.652C184.817 347.787 184.978 347.936 185.095 348.101C185.216 348.266 185.301 348.439 185.348 348.621C185.4 348.799 185.426 348.97 185.426 349.134C185.426 349.546 185.322 349.901 185.114 350.2C184.911 350.495 184.616 350.725 184.23 350.889C183.849 351.05 183.385 351.13 182.839 351.13ZM189.476 351.13C189.125 351.126 188.794 351.076 188.482 350.98C188.174 350.881 187.901 350.736 187.663 350.545C187.424 350.354 187.236 350.118 187.097 349.836C186.963 349.55 186.896 349.219 186.896 348.842V344.279H188.098V348.718C188.098 349.156 188.232 349.511 188.501 349.784C188.774 350.057 189.184 350.194 189.73 350.194C190.224 350.194 190.62 350.066 190.919 349.81C191.222 349.55 191.374 349.165 191.374 348.653V344.279H192.57V351H191.615L191.491 349.713C191.409 350.051 191.268 350.324 191.069 350.532C190.874 350.74 190.637 350.894 190.36 350.993C190.087 351.089 189.792 351.134 189.476 351.13ZM197.023 344.149C197.504 344.149 197.938 344.242 198.323 344.428C198.709 344.61 199.023 344.87 199.266 345.208C199.513 345.546 199.667 345.945 199.727 346.404H198.661C198.622 346.17 198.531 345.956 198.388 345.761C198.25 345.566 198.066 345.41 197.836 345.293C197.606 345.176 197.338 345.117 197.03 345.117C196.454 345.117 195.986 345.325 195.626 345.741C195.266 346.157 195.086 346.794 195.086 347.652C195.086 348.428 195.251 349.05 195.58 349.518C195.914 349.982 196.404 350.213 197.049 350.213C197.357 350.213 197.624 350.155 197.849 350.038C198.079 349.917 198.263 349.758 198.401 349.563C198.54 349.364 198.629 349.152 198.668 348.926H199.714C199.658 349.377 199.506 349.767 199.259 350.096C199.012 350.426 198.696 350.681 198.31 350.863C197.929 351.041 197.5 351.13 197.023 351.13C196.421 351.13 195.886 350.998 195.418 350.733C194.954 350.469 194.59 350.079 194.326 349.563C194.062 349.048 193.929 348.415 193.929 347.665C193.929 346.963 194.049 346.35 194.287 345.826C194.53 345.297 194.881 344.886 195.34 344.591C195.804 344.296 196.365 344.149 197.023 344.149ZM203.931 344.149C204.412 344.149 204.846 344.242 205.231 344.428C205.617 344.61 205.931 344.87 206.174 345.208C206.421 345.546 206.575 345.945 206.635 346.404H205.569C205.53 346.17 205.439 345.956 205.296 345.761C205.158 345.566 204.973 345.41 204.744 345.293C204.514 345.176 204.245 345.117 203.938 345.117C203.361 345.117 202.893 345.325 202.534 345.741C202.174 346.157 201.994 346.794 201.994 347.652C201.994 348.428 202.159 349.05 202.488 349.518C202.822 349.982 203.312 350.213 203.957 350.213C204.265 350.213 204.531 350.155 204.757 350.038C204.986 349.917 205.171 349.758 205.309 349.563C205.448 349.364 205.537 349.152 205.576 348.926H206.622C206.566 349.377 206.414 349.767 206.167 350.096C205.92 350.426 205.604 350.681 205.218 350.863C204.837 351.041 204.408 351.13 203.931 351.13C203.329 351.13 202.794 350.998 202.326 350.733C201.862 350.469 201.498 350.079 201.234 349.563C200.969 349.048 200.837 348.415 200.837 347.665C200.837 346.963 200.956 346.35 201.195 345.826C201.437 345.297 201.788 344.886 202.248 344.591C202.711 344.296 203.273 344.149 203.931 344.149ZM209.019 347.919C209.019 348.344 209.088 348.729 209.227 349.076C209.37 349.418 209.585 349.691 209.871 349.895C210.161 350.099 210.523 350.2 210.956 350.2C211.385 350.2 211.753 350.101 212.061 349.901C212.373 349.702 212.572 349.414 212.659 349.037H213.797C213.714 349.492 213.532 349.875 213.251 350.188C212.969 350.499 212.629 350.736 212.23 350.896C211.831 351.052 211.415 351.13 210.982 351.13C210.354 351.13 209.801 350.994 209.325 350.72C208.848 350.447 208.475 350.055 208.207 349.544C207.938 349.033 207.804 348.419 207.804 347.704C207.804 346.998 207.925 346.378 208.168 345.845C208.41 345.312 208.761 344.896 209.221 344.597C209.684 344.298 210.241 344.149 210.891 344.149C211.524 344.149 212.059 344.285 212.497 344.558C212.934 344.831 213.266 345.217 213.491 345.715C213.721 346.209 213.836 346.797 213.836 347.477V347.919H209.019ZM209.026 347.106H212.679C212.679 346.721 212.614 346.374 212.484 346.066C212.354 345.754 212.154 345.51 211.886 345.332C211.621 345.15 211.288 345.059 210.885 345.059C210.464 345.059 210.115 345.161 209.838 345.364C209.565 345.564 209.359 345.822 209.221 346.138C209.086 346.45 209.021 346.773 209.026 347.106ZM217.721 351.13C217.253 351.13 216.818 351.059 216.415 350.915C216.016 350.768 215.684 350.541 215.42 350.233C215.156 349.921 214.989 349.524 214.92 349.043H216.012C216.072 349.308 216.181 349.529 216.337 349.706C216.497 349.88 216.696 350.012 216.935 350.103C217.173 350.19 217.433 350.233 217.715 350.233C218.165 350.233 218.529 350.148 218.807 349.979C219.084 349.81 219.223 349.55 219.223 349.199C219.223 348.952 219.149 348.755 219.002 348.608C218.859 348.456 218.635 348.346 218.332 348.276L216.941 347.932C216.399 347.802 215.966 347.598 215.641 347.321C215.316 347.044 215.154 346.656 215.154 346.157C215.149 345.763 215.242 345.416 215.433 345.117C215.624 344.818 215.91 344.582 216.291 344.409C216.672 344.236 217.147 344.149 217.715 344.149C218.443 344.149 219.03 344.314 219.476 344.643C219.927 344.968 220.161 345.447 220.178 346.079H219.119C219.075 345.759 218.93 345.505 218.683 345.319C218.44 345.128 218.113 345.033 217.702 345.033C217.273 345.033 216.924 345.12 216.655 345.293C216.386 345.462 216.252 345.726 216.252 346.086C216.252 346.324 216.347 346.513 216.538 346.651C216.729 346.786 217.01 346.898 217.383 346.989L218.729 347.328C219.041 347.41 219.296 347.518 219.496 347.652C219.699 347.787 219.86 347.936 219.977 348.101C220.098 348.266 220.182 348.439 220.23 348.621C220.282 348.799 220.308 348.97 220.308 349.134C220.308 349.546 220.204 349.901 219.996 350.2C219.792 350.495 219.498 350.725 219.112 350.889C218.731 351.05 218.267 351.13 217.721 351.13ZM224.159 351.13C223.691 351.13 223.256 351.059 222.853 350.915C222.454 350.768 222.122 350.541 221.858 350.233C221.594 349.921 221.427 349.524 221.358 349.043H222.45C222.51 349.308 222.619 349.529 222.775 349.706C222.935 349.88 223.134 350.012 223.373 350.103C223.611 350.19 223.871 350.233 224.153 350.233C224.603 350.233 224.967 350.148 225.245 349.979C225.522 349.81 225.661 349.55 225.661 349.199C225.661 348.952 225.587 348.755 225.44 348.608C225.297 348.456 225.073 348.346 224.77 348.276L223.379 347.932C222.837 347.802 222.404 347.598 222.079 347.321C221.754 347.044 221.592 346.656 221.592 346.157C221.587 345.763 221.68 345.416 221.871 345.117C222.062 344.818 222.348 344.582 222.729 344.409C223.11 344.236 223.585 344.149 224.153 344.149C224.881 344.149 225.468 344.314 225.914 344.643C226.365 344.968 226.599 345.447 226.616 346.079H225.557C225.513 345.759 225.368 345.505 225.121 345.319C224.878 345.128 224.551 345.033 224.14 345.033C223.711 345.033 223.362 345.12 223.093 345.293C222.824 345.462 222.69 345.726 222.69 346.086C222.69 346.324 222.785 346.513 222.976 346.651C223.167 346.786 223.448 346.898 223.821 346.989L225.167 347.328C225.479 347.41 225.734 347.518 225.934 347.652C226.137 347.787 226.298 347.936 226.415 348.101C226.536 348.266 226.62 348.439 226.668 348.621C226.72 348.799 226.746 348.97 226.746 349.134C226.746 349.546 226.642 349.901 226.434 350.2C226.23 350.495 225.936 350.725 225.55 350.889C225.169 351.05 224.705 351.13 224.159 351.13ZM232.122 344.279V345.156H230.49V351H229.281V345.156H227.864V344.279H229.281V343.239C229.281 342.706 229.418 342.301 229.691 342.023C229.964 341.742 230.371 341.601 230.913 341.601H232.18L232.187 342.452H231.179C230.906 342.452 230.72 342.526 230.62 342.673C230.521 342.821 230.471 343.044 230.471 343.343V344.279H232.122ZM235.977 351.13C235.626 351.126 235.295 351.076 234.983 350.98C234.675 350.881 234.402 350.736 234.164 350.545C233.925 350.354 233.737 350.118 233.598 349.836C233.464 349.55 233.397 349.219 233.397 348.842V344.279H234.599V348.718C234.599 349.156 234.734 349.511 235.002 349.784C235.275 350.057 235.685 350.194 236.231 350.194C236.725 350.194 237.121 350.066 237.42 349.81C237.724 349.55 237.875 349.165 237.875 348.653V344.279H239.071V351H238.116L237.992 349.713C237.91 350.051 237.769 350.324 237.57 350.532C237.375 350.74 237.139 350.894 236.861 350.993C236.588 351.089 236.294 351.134 235.977 351.13ZM242.632 351.085C242.268 351.085 241.973 351.035 241.748 350.935C241.527 350.835 241.356 350.701 241.235 350.532C241.118 350.363 241.037 350.17 240.994 349.953C240.955 349.732 240.936 349.505 240.936 349.271V341.341H242.119V349.154C242.119 349.492 242.184 349.745 242.314 349.914C242.448 350.083 242.634 350.177 242.873 350.194L243.237 350.2V350.98C243.137 351.011 243.033 351.035 242.925 351.052C242.816 351.074 242.719 351.085 242.632 351.085ZM246.214 351.085C245.85 351.085 245.555 351.035 245.33 350.935C245.109 350.835 244.937 350.701 244.816 350.532C244.699 350.363 244.619 350.17 244.576 349.953C244.537 349.732 244.517 349.505 244.517 349.271V341.341H245.7V349.154C245.7 349.492 245.765 349.745 245.895 349.914C246.029 350.083 246.216 350.177 246.454 350.194L246.818 350.2V350.98C246.718 351.011 246.614 351.035 246.506 351.052C246.398 351.074 246.3 351.085 246.214 351.085ZM248.698 353.145C248.304 353.145 248.033 353.117 247.886 353.061C247.738 353.004 247.665 352.976 247.665 352.976V352.196L248.347 352.209C248.599 352.218 248.807 352.2 248.971 352.157C249.136 352.114 249.268 352.055 249.368 351.982C249.467 351.908 249.543 351.826 249.595 351.735C249.652 351.644 249.697 351.557 249.732 351.475L249.966 350.837L247.34 344.279H248.555L250.538 349.466L252.507 344.279H253.684L250.85 351.507C250.676 351.932 250.481 352.263 250.265 352.502C250.052 352.74 249.814 352.907 249.55 353.002C249.29 353.097 249.006 353.145 248.698 353.145Z" fill="#36536B"/>
<g id="Group 31">
<circle id="Oval" opacity="0.25" cx="183" cy="261" r="28" fill="#BA4270"/>
<path id="Path 2" d="M174 262.696L178.577 267.273L191.85 254" stroke="#BA4270" stroke-width="3"/>
</g>
</g>
</g>
</g>
<g id="Group 2 Copy" clip-path="url(#clip1_0_4933)">
<rect id="Rectangle_2" x="119" y="373" width="131" height="30" rx="15" fill="#BA4270"/>
<path id="Dismiss" d="M165.574 384.047C165.614 384.047 165.726 384.047 165.909 384.047C166.096 384.047 166.314 384.047 166.564 384.047C166.817 384.047 167.068 384.049 167.317 384.052C167.57 384.052 167.781 384.054 167.95 384.058C168.914 384.08 169.7 384.252 170.309 384.575C170.918 384.898 171.363 385.349 171.646 385.928C171.932 386.507 172.075 387.193 172.075 387.985C172.075 388.81 171.924 389.523 171.624 390.124C171.323 390.722 170.863 391.184 170.243 391.51C169.627 391.837 168.844 392 167.895 392H165.574V384.047ZM167.191 385.345V390.702H167.928C168.382 390.702 168.795 390.614 169.165 390.438C169.539 390.262 169.838 389.974 170.062 389.574C170.285 389.175 170.397 388.641 170.397 387.974C170.397 387.354 170.298 386.852 170.1 386.467C169.902 386.078 169.62 385.794 169.253 385.614C168.886 385.435 168.452 385.345 167.95 385.345H167.191ZM174.819 386.313V392H173.285V386.313H174.819ZM174.836 384.052V385.499H173.274V384.052H174.836ZM178.44 392.11C178.044 392.11 177.662 392.046 177.296 391.917C176.929 391.785 176.619 391.58 176.366 391.301C176.113 391.019 175.952 390.654 175.882 390.207H177.274C177.321 390.409 177.407 390.568 177.532 390.685C177.66 390.803 177.805 390.887 177.967 390.938C178.128 390.986 178.282 391.01 178.429 391.01C178.737 391.01 178.984 390.962 179.171 390.867C179.362 390.768 179.457 390.618 179.457 390.416C179.457 390.262 179.4 390.139 179.287 390.047C179.177 389.956 178.993 389.886 178.737 389.838L177.736 389.629C177.233 389.523 176.83 389.343 176.526 389.09C176.221 388.834 176.065 388.471 176.058 388.001C176.058 387.66 176.148 387.354 176.328 387.083C176.511 386.812 176.78 386.597 177.136 386.439C177.492 386.282 177.928 386.203 178.445 386.203C179.145 386.203 179.705 386.357 180.123 386.665C180.544 386.973 180.759 387.407 180.766 387.968H179.424C179.384 387.748 179.274 387.58 179.094 387.462C178.918 387.341 178.696 387.281 178.429 387.281C178.15 387.281 177.921 387.33 177.741 387.429C177.561 387.528 177.472 387.679 177.472 387.88C177.472 388.031 177.545 388.15 177.692 388.238C177.838 388.322 178.066 388.396 178.374 388.458L179.298 388.667C179.617 388.744 179.875 388.85 180.073 388.986C180.275 389.118 180.431 389.263 180.541 389.42C180.651 389.578 180.726 389.738 180.766 389.899C180.81 390.057 180.832 390.2 180.832 390.328C180.832 390.706 180.731 391.028 180.53 391.296C180.328 391.56 180.047 391.762 179.688 391.901C179.329 392.04 178.913 392.11 178.44 392.11ZM181.874 392V386.313H183.447V387.116C183.619 386.867 183.85 386.652 184.14 386.473C184.433 386.293 184.802 386.203 185.246 386.203C185.44 386.203 185.638 386.238 185.84 386.307C186.041 386.377 186.23 386.48 186.406 386.615C186.586 386.747 186.731 386.914 186.841 387.116C187.024 386.856 187.264 386.639 187.561 386.467C187.862 386.291 188.195 386.203 188.562 386.203C188.775 386.203 188.989 386.238 189.206 386.307C189.426 386.377 189.627 386.491 189.811 386.648C189.994 386.806 190.141 387.017 190.251 387.281C190.364 387.541 190.421 387.864 190.421 388.249V392H188.815V388.447C188.815 388.22 188.769 388.038 188.678 387.902C188.59 387.763 188.476 387.664 188.337 387.605C188.201 387.543 188.056 387.512 187.902 387.512C187.759 387.512 187.614 387.541 187.468 387.6C187.321 387.655 187.196 387.745 187.094 387.869C186.991 387.994 186.94 388.157 186.94 388.359V392H185.339V388.304C185.339 388.132 185.293 387.987 185.202 387.869C185.11 387.752 184.994 387.664 184.855 387.605C184.719 387.543 184.58 387.512 184.437 387.512C184.29 387.512 184.144 387.543 183.997 387.605C183.85 387.664 183.728 387.758 183.629 387.886C183.53 388.011 183.48 388.168 183.48 388.359V392H181.874ZM193.257 386.313V392H191.722V386.313H193.257ZM193.273 384.052V385.499H191.711V384.052H193.273ZM196.877 392.11C196.481 392.11 196.1 392.046 195.733 391.917C195.366 391.785 195.057 391.58 194.804 391.301C194.551 391.019 194.389 390.654 194.32 390.207H195.711C195.759 390.409 195.845 390.568 195.97 390.685C196.098 390.803 196.243 390.887 196.404 390.938C196.565 390.986 196.719 391.01 196.866 391.01C197.174 391.01 197.422 390.962 197.609 390.867C197.799 390.768 197.895 390.618 197.895 390.416C197.895 390.262 197.838 390.139 197.724 390.047C197.614 389.956 197.431 389.886 197.174 389.838L196.173 389.629C195.671 389.523 195.267 389.343 194.963 389.09C194.659 388.834 194.503 388.471 194.496 388.001C194.496 387.66 194.585 387.354 194.765 387.083C194.948 386.812 195.218 386.597 195.574 386.439C195.929 386.282 196.366 386.203 196.883 386.203C197.583 386.203 198.142 386.357 198.56 386.665C198.982 386.973 199.196 387.407 199.204 387.968H197.862C197.821 387.748 197.711 387.58 197.532 387.462C197.356 387.341 197.134 387.281 196.866 387.281C196.587 387.281 196.358 387.33 196.179 387.429C195.999 387.528 195.909 387.679 195.909 387.88C195.909 388.031 195.982 388.15 196.129 388.238C196.276 388.322 196.503 388.396 196.811 388.458L197.735 388.667C198.054 388.744 198.313 388.85 198.511 388.986C198.712 389.118 198.868 389.263 198.978 389.42C199.088 389.578 199.163 389.738 199.204 389.899C199.248 390.057 199.27 390.2 199.27 390.328C199.27 390.706 199.169 391.028 198.967 391.296C198.765 391.56 198.485 391.762 198.126 391.901C197.766 392.04 197.35 392.11 196.877 392.11ZM202.486 392.11C202.09 392.11 201.709 392.046 201.342 391.917C200.975 391.785 200.665 391.58 200.412 391.301C200.159 391.019 199.998 390.654 199.928 390.207H201.32C201.368 390.409 201.454 390.568 201.578 390.685C201.707 390.803 201.852 390.887 202.013 390.938C202.174 390.986 202.328 391.01 202.475 391.01C202.783 391.01 203.03 390.962 203.217 390.867C203.408 390.768 203.503 390.618 203.503 390.416C203.503 390.262 203.447 390.139 203.333 390.047C203.223 389.956 203.04 389.886 202.783 389.838L201.782 389.629C201.28 389.523 200.876 389.343 200.572 389.09C200.268 388.834 200.112 388.471 200.104 388.001C200.104 387.66 200.194 387.354 200.374 387.083C200.557 386.812 200.827 386.597 201.182 386.439C201.538 386.282 201.974 386.203 202.491 386.203C203.192 386.203 203.751 386.357 204.169 386.665C204.591 386.973 204.805 387.407 204.812 387.968H203.47C203.43 387.748 203.32 387.58 203.14 387.462C202.964 387.341 202.743 387.281 202.475 387.281C202.196 387.281 201.967 387.33 201.787 387.429C201.608 387.528 201.518 387.679 201.518 387.88C201.518 388.031 201.591 388.15 201.738 388.238C201.885 388.322 202.112 388.396 202.42 388.458L203.344 388.667C203.663 388.744 203.921 388.85 204.119 388.986C204.321 389.118 204.477 389.263 204.587 389.42C204.697 389.578 204.772 389.738 204.812 389.899C204.856 390.057 204.878 390.2 204.878 390.328C204.878 390.706 204.778 391.028 204.576 391.296C204.374 391.56 204.094 391.762 203.734 391.901C203.375 392.04 202.959 392.11 202.486 392.11Z" fill="#FBFCFE"/>
</g>
</g>
</g>
<defs>
<filter id="filter0_d_0_4933" x="0.567871" y="0.569473" width="417.649" height="658.861" filterUnits="userSpaceOnUse" color-interpolation-filters="sRGB">
<feFlood flood-opacity="0" result="BackgroundImageFix"/>
<feColorMatrix in="SourceAlpha" type="matrix" values="0 0 0 0 0 0 0 0 0 0 0 0 0 0 0 0 0 0 127 0" result="hardAlpha"/>
<feOffset dx="25" dy="25"/>
<feGaussianBlur stdDeviation="40"/>
<feColorMatrix type="matrix" values="0 0 0 0 0.212302 0 0 0 0 0.32521 0 0 0 0 0.419299 0 0 0 0.300727 0"/>
<feBlend mode="normal" in2="BackgroundImageFix" result="effect1_dropShadow_0_4933"/>
<feBlend mode="normal" in="SourceGraphic" in2="effect1_dropShadow_0_4933" result="shape"/>
</filter>
<filter id="filter1_d_0_4933" x="91" y="192" width="206" height="221" filterUnits="userSpaceOnUse" color-interpolation-filters="sRGB">
<feFlood flood-opacity="0" result="BackgroundImageFix"/>
<feColorMatrix in="SourceAlpha" type="matrix" values="0 0 0 0 0 0 0 0 0 0 0 0 0 0 0 0 0 0 127 0" result="hardAlpha"/>
<feMorphology radius="10" operator="erode" in="SourceAlpha" result="effect1_dropShadow_0_4933"/>
<feOffset dx="10" dy="10"/>
<feGaussianBlur stdDeviation="12.5"/>
<feColorMatrix type="matrix" values="0 0 0 0 0.212302 0 0 0 0 0.32521 0 0 0 0 0.419299 0 0 0 0.25 0"/>
<feBlend mode="normal" in2="BackgroundImageFix" result="effect1_dropShadow_0_4933"/>
<feBlend mode="normal" in="SourceGraphic" in2="effect1_dropShadow_0_4933" result="shape"/>
</filter>
<linearGradient id="paint0_linear_0_4933" x1="63.0146" y1="55" x2="63.0146" y2="67.3239" gradientUnits="userSpaceOnUse">
<stop stop-color="#454545"/>
<stop offset="0.226279" stop-color="#999999"/>
<stop offset="1" stop-color="white"/>
</linearGradient>
<linearGradient id="paint1_linear_0_4933" x1="313.103" y1="140.747" x2="303.642" y2="140.747" gradientUnits="userSpaceOnUse">
<stop stop-color="white" stop-opacity="0.01"/>
<stop offset="0.222178" stop-color="#BABABA"/>
<stop offset="0.54678" stop-color="white" stop-opacity="0.01"/>
<stop offset="1" stop-color="white" stop-opacity="0.01"/>
</linearGradient>
<linearGradient id="paint2_linear_0_4933" x1="55.568" y1="140.487" x2="65.044" y2="140.487" gradientUnits="userSpaceOnUse">
<stop stop-color="white" stop-opacity="0.01"/>
<stop offset="0.222178" stop-color="#BABABA"/>
<stop offset="0.54678" stop-color="white" stop-opacity="0.01"/>
<stop offset="1" stop-color="white" stop-opacity="0.01"/>
</linearGradient>
<clipPath id="clip0_0_4933">
<rect width="149" height="122" fill="white" transform="translate(110 233)"/>
</clipPath>
<clipPath id="clip1_0_4933">
<rect width="131" height="30" fill="white" transform="translate(119 373)"/>
</clipPath>
</defs>
</svg>
