<svg width="120" height="24" viewBox="0 0 120 24" fill="none" xmlns="http://www.w3.org/2000/svg">
<path d="M22.675 0H1.325C0.593 0 0 0.593 0 1.325V22.676C0 23.407 0.593 24 1.325 24H12.82V14.706H9.692V11.084H12.82V8.413C12.82 5.313 14.713 3.625 17.479 3.625C18.804 3.625 19.942 3.724 20.274 3.768V7.008L18.356 7.009C16.852 7.009 16.561 7.724 16.561 8.772V11.085H20.148L19.681 14.707H16.561V24H22.677C23.407 24 24 23.407 24 22.675V1.325C24 0.593 23.407 0 22.675 0Z" fill="#FBFCFE"/>
<path d="M72 4.55705C71.117 4.94905 70.168 5.21305 69.172 5.33205C70.189 4.72305 70.97 3.75805 71.337 2.60805C70.386 3.17205 69.332 3.58205 68.21 3.80305C67.313 2.84605 66.032 2.24805 64.616 2.24805C61.437 2.24805 59.101 5.21405 59.819 8.29305C55.728 8.08805 52.1 6.12805 49.671 3.14905C48.381 5.36205 49.002 8.25705 51.194 9.72305C50.388 9.69705 49.628 9.47605 48.965 9.10705C48.911 11.388 50.546 13.522 52.914 13.997C52.221 14.185 51.462 14.229 50.69 14.081C51.316 16.037 53.134 17.46 55.29 17.5C53.22 19.123 50.612 19.848 48 19.54C50.179 20.937 52.768 21.752 55.548 21.752C64.69 21.752 69.855 14.031 69.543 7.10605C70.505 6.41105 71.34 5.54405 72 4.55705Z" fill="#FBFCFE"/>
<path fill-rule="evenodd" clip-rule="evenodd" d="M98.4 0H117.6C118.92 0 120 1.08 120 2.4V21.6C120 22.92 118.92 24 117.6 24H98.4C97.08 24 96 22.92 96 21.6V2.4C96 1.08 97.08 0 98.4 0ZM99.6 20.4H103.2V9.6H99.6V20.4ZM101.4 7.56C100.2 7.56 99.24 6.6 99.24 5.4C99.24 4.2 100.2 3.24 101.4 3.24C102.6 3.24 103.56 4.2 103.56 5.4C103.56 6.6 102.6 7.56 101.4 7.56ZM112.8 20.4H116.4V13.56C116.4 11.28 114.48 9.36 112.2 9.36C111.12 9.36 109.8 10.08 109.2 11.04V9.6H105.6V20.4H109.2V14.04C109.2 13.08 110.04 12.24 111 12.24C111.96 12.24 112.8 13.08 112.8 14.04V20.4Z" fill="white"/>
</svg>
