<svg width="838" height="1320" viewBox="0 0 838 1320" fill="none" xmlns="http://www.w3.org/2000/svg">
<g id="Group 30">
<g id="Group 2">
<g id="iPhone-X-Mockup">
<g id="phone">
<g id="body" filter="url(#filter0_d_0_4910)">
<path fill-rule="evenodd" clip-rule="evenodd" d="M177.552 111.139H560.018C596.699 111.139 626.435 139.61 626.435 174.73V1045.27C626.435 1080.39 596.699 1108.86 560.018 1108.86H177.552C140.871 1108.86 111.136 1080.39 111.136 1045.27V174.73C111.136 139.61 140.871 111.139 177.552 111.139Z" fill="#213648"/>
</g>
<g id="frame">
<path id="reflect-frame-top" opacity="0.595562" fill-rule="evenodd" clip-rule="evenodd" d="M561.497 110H175.845C157.84 111.098 141.235 119.314 126.029 134.648C135.808 126.112 153.25 114.689 176.309 114.689C176.309 114.689 545.66 114.689 561.033 114.689C584.093 114.689 601.534 126.112 611.313 134.648C596.108 119.314 579.502 111.098 561.497 110Z" fill="url(#paint0_linear_0_4910)" fill-opacity="0.65"/>
<path id="reflect-frame-right" opacity="0.75" fill-rule="evenodd" clip-rule="evenodd" d="M615.999 1035.34V179.964C615.999 157.013 607.564 148.529 602.532 143.081C597.5 137.633 597.286 134.854 604.516 138.968C611.746 143.081 626.207 155.061 626.207 179.964V1035.34C626.207 1060.24 611.746 1072.22 604.516 1076.34C597.286 1080.45 597.5 1077.67 602.532 1072.22C607.564 1066.78 615.999 1058.29 615.999 1035.34Z" fill="url(#paint1_linear_0_4910)"/>
<path id="reflect-frame-left" opacity="0.75" fill-rule="evenodd" clip-rule="evenodd" d="M121.344 1035.34V179.964C121.344 157.013 129.779 148.529 134.811 143.081C139.842 137.633 140.057 134.854 132.827 138.968C125.597 143.081 111.136 155.061 111.136 179.964V1035.34C111.136 1060.24 125.597 1072.22 132.827 1076.34C140.057 1080.45 139.842 1077.67 134.811 1072.22C129.779 1066.78 121.344 1058.29 121.344 1035.34Z" fill="url(#paint2_linear_0_4910)"/>
</g>
<g id="controls">
<path id="vol+" fill-rule="evenodd" clip-rule="evenodd" d="M106 317.113C106 314.904 107.791 313.113 110 313.113H111.929C114.138 313.113 115.929 314.904 115.929 317.113V437.814C115.929 440.024 114.138 441.814 111.929 441.814H110C107.791 441.814 106 440.024 106 437.814V317.113Z" fill="#2E423C"/>
<path id="power" fill-rule="evenodd" clip-rule="evenodd" d="M621.071 422.086C621.071 419.877 622.862 418.086 625.071 418.086H627C629.209 418.086 631 419.877 631 422.086V507.987C631 510.196 629.209 511.987 627 511.987H625.071C622.862 511.987 621.071 510.196 621.071 507.987V422.086Z" fill="#2E423C"/>
</g>
</g>
<g id="Screen" clip-path="url(#clip0_0_4910)">
<path id="Screen Mask" fill-rule="evenodd" clip-rule="evenodd" d="M323.352 134.889L174.54 134.889C152.331 134.889 136.148 150.016 136.148 169.772V1014.55C136.148 1040.31 161.153 1063.13 189.427 1063.13H548.093C575.328 1063.13 601.371 1040.13 601.371 1014.55V172.055C601.371 148.376 583.792 135.03 562.98 134.889L411.808 134.889C411.235 134.983 400.851 139.252 396.462 150.016C392.073 160.779 383.242 169.359 373.573 169.359H362.343C357.747 169.359 345.647 164.899 339.521 150.016C333.394 135.132 323.925 134.983 323.352 134.889Z" fill="white"/>
<mask id="mask0_0_4910" style="mask-type:luminance" maskUnits="userSpaceOnUse" x="136" y="134" width="466" height="930">
<path id="Screen Mask_2" fill-rule="evenodd" clip-rule="evenodd" d="M323.352 134.889L174.54 134.889C152.331 134.889 136.148 150.016 136.148 169.772V1014.55C136.148 1040.31 161.153 1063.13 189.427 1063.13H548.093C575.328 1063.13 601.371 1040.13 601.371 1014.55V172.055C601.371 148.376 583.792 135.03 562.98 134.889L411.808 134.889C411.235 134.983 400.851 139.252 396.462 150.016C392.073 160.779 383.242 169.359 373.573 169.359H362.343C357.747 169.359 345.647 164.899 339.521 150.016C333.394 135.132 323.925 134.983 323.352 134.889Z" fill="white"/>
</mask>
<g mask="url(#mask0_0_4910)">
<rect id="Rectangle" x="136" y="134.889" width="466" height="930" fill="url(#paint3_linear_0_4910)"/>
<path id="12:49" d="M295.008 392V357.344H286.752V352.064C289.397 352.064 291.531 351.819 293.152 351.328C294.795 350.816 296.021 350.091 296.832 349.152C297.643 348.192 298.123 347.051 298.272 345.728H304.48V392H295.008ZM314.991 392V387.392V385.024C314.991 382.677 315.428 380.651 316.303 378.944C317.178 377.216 318.33 375.723 319.759 374.464C321.21 373.184 322.788 372.064 324.495 371.104C326.223 370.144 327.951 369.237 329.679 368.384C331.407 367.531 332.986 366.677 334.415 365.824C335.866 364.949 337.028 363.979 337.903 362.912C338.778 361.845 339.215 360.587 339.215 359.136C339.215 357.28 338.564 355.765 337.263 354.592C335.983 353.419 334.223 352.832 331.983 352.832C329.658 352.832 327.684 353.504 326.063 354.848C324.442 356.192 323.439 358.219 323.055 360.928H314.127C314.17 357.984 314.852 355.317 316.175 352.928C317.519 350.517 319.524 348.608 322.191 347.2C324.858 345.792 328.207 345.088 332.239 345.088C335.695 345.088 338.671 345.675 341.167 346.848C343.684 348.021 345.626 349.653 346.991 351.744C348.356 353.835 349.039 356.277 349.039 359.072C349.039 361.397 348.612 363.403 347.759 365.088C346.906 366.773 345.775 368.213 344.367 369.408C342.959 370.603 341.412 371.648 339.727 372.544C338.042 373.44 336.356 374.272 334.671 375.04C333.007 375.808 331.471 376.597 330.063 377.408C328.655 378.197 327.524 379.093 326.671 380.096C325.818 381.099 325.391 382.304 325.391 383.712V384.128H348.975V392H314.991ZM365.408 359.712V369.728H355.168V359.712H365.408ZM365.408 381.824V391.808H355.168V381.824H365.408ZM392.903 345.728H402.087V373.92H409.223V381.76H402.087V392H393.095L393.127 381.76H371.815V374.08L392.903 345.728ZM380.455 373.92H393.127V356.96L380.455 373.92ZM430.871 392.704C427.991 392.704 425.303 392.149 422.807 391.04C420.311 389.931 418.273 388.373 416.695 386.368C415.116 384.341 414.231 381.973 414.039 379.264H422.935C423.319 381.056 424.172 382.517 425.495 383.648C426.817 384.757 428.481 385.312 430.487 385.312C432.705 385.312 434.647 384.789 436.311 383.744C437.996 382.699 439.255 381.035 440.087 378.752C440.94 376.469 441.239 373.483 440.983 369.792C440.385 370.923 439.553 371.915 438.487 372.768C437.441 373.6 436.215 374.251 434.807 374.72C433.399 375.168 431.831 375.392 430.103 375.392C426.967 375.392 424.183 374.805 421.751 373.632C419.34 372.437 417.441 370.752 416.055 368.576C414.689 366.379 414.007 363.776 414.007 360.768C414.007 357.739 414.732 355.04 416.183 352.672C417.633 350.304 419.66 348.448 422.263 347.104C424.865 345.76 427.916 345.088 431.415 345.088C435.34 345.088 438.721 346.027 441.559 347.904C444.417 349.76 446.604 352.405 448.119 355.84C449.655 359.253 450.423 363.275 450.423 367.904C450.423 373.429 449.633 378.037 448.055 381.728C446.497 385.397 444.257 388.149 441.335 389.984C438.412 391.797 434.924 392.704 430.871 392.704ZM431.703 367.968C433.004 367.968 434.263 367.68 435.479 367.104C436.716 366.507 437.729 365.76 438.519 364.864C439.308 363.968 439.703 363.04 439.703 362.08C439.724 360.011 439.393 358.24 438.711 356.768C438.049 355.275 437.111 354.133 435.895 353.344C434.7 352.555 433.303 352.16 431.703 352.16C430.231 352.16 428.919 352.501 427.767 353.184C426.615 353.867 425.708 354.827 425.047 356.064C424.385 357.301 424.055 358.731 424.055 360.352C424.055 362.763 424.759 364.64 426.167 365.984C427.575 367.307 429.42 367.968 431.703 367.968Z" fill="white"/>
</g>
</g>
</g>
</g>
<g id="Group 29" clip-path="url(#clip1_0_4910)">
<g id="Rectangle_2" filter="url(#filter1_d_0_4910)">
<rect x="150" y="444" width="436" height="174" rx="5" fill="#FBFCFE"/>
</g>
<g id="Group 28" clip-path="url(#clip2_0_4910)">
<path id="PayAPI" d="M183.62 496V481.54H188.94C189.993 481.54 190.937 481.723 191.77 482.09C192.603 482.45 193.26 482.983 193.74 483.69C194.227 484.397 194.47 485.26 194.47 486.28C194.47 487.24 194.257 488.06 193.83 488.74C193.403 489.42 192.803 489.94 192.03 490.3C191.263 490.66 190.36 490.84 189.32 490.84H186.56V496H183.62ZM186.53 488.58H189.24C189.973 488.58 190.573 488.347 191.04 487.88C191.507 487.407 191.74 486.823 191.74 486.13C191.74 485.41 191.493 484.84 191 484.42C190.507 483.993 189.907 483.78 189.2 483.78H186.53V488.58ZM199.023 496.2C198.363 496.2 197.77 496.077 197.243 495.83C196.717 495.583 196.3 495.227 195.993 494.76C195.687 494.287 195.533 493.713 195.533 493.04C195.533 491.907 195.957 491.047 196.803 490.46C197.65 489.867 198.987 489.56 200.813 489.54L202.103 489.52V488.9C202.103 488.427 201.963 488.063 201.683 487.81C201.41 487.55 200.983 487.423 200.403 487.43C199.977 487.437 199.57 487.537 199.183 487.73C198.803 487.923 198.543 488.26 198.403 488.74H195.973C196.013 487.993 196.23 487.38 196.623 486.9C197.017 486.413 197.55 486.053 198.223 485.82C198.903 485.58 199.673 485.46 200.533 485.46C201.593 485.46 202.443 485.593 203.083 485.86C203.723 486.12 204.187 486.497 204.473 486.99C204.76 487.477 204.903 488.057 204.903 488.73V496H202.463L202.223 494.22C201.87 494.967 201.427 495.483 200.893 495.77C200.367 496.057 199.743 496.2 199.023 496.2ZM200.003 494.28C200.27 494.28 200.527 494.233 200.773 494.14C201.027 494.04 201.25 493.91 201.443 493.75C201.643 493.583 201.803 493.397 201.923 493.19C202.043 492.983 202.103 492.77 202.103 492.55V491.02L201.053 491.04C200.567 491.047 200.113 491.107 199.693 491.22C199.273 491.327 198.933 491.503 198.673 491.75C198.42 491.997 198.293 492.33 198.293 492.75C198.293 493.23 198.46 493.607 198.793 493.88C199.127 494.147 199.53 494.28 200.003 494.28ZM208.727 499.3C208.021 499.3 207.521 499.24 207.227 499.12C206.941 499.007 206.797 498.95 206.797 498.95V497.09L207.817 497.13C208.264 497.157 208.624 497.133 208.897 497.06C209.171 496.993 209.377 496.903 209.517 496.79C209.664 496.677 209.767 496.557 209.827 496.43C209.887 496.31 209.931 496.213 209.957 496.14L210.147 495.57L206.127 485.66H209.017L211.497 492.4L214.007 485.66H216.857L212.667 496.06C212.307 496.94 211.927 497.613 211.527 498.08C211.127 498.547 210.694 498.867 210.227 499.04C209.767 499.213 209.267 499.3 208.727 499.3ZM216.456 496L221.636 481.54H224.716L229.886 496H226.976L225.796 492.65H220.596L219.386 496H216.456ZM221.246 490.1H225.096L223.186 484.36L221.246 490.1ZM232.058 496V481.54H237.378C238.431 481.54 239.374 481.723 240.208 482.09C241.041 482.45 241.698 482.983 242.178 483.69C242.664 484.397 242.908 485.26 242.908 486.28C242.908 487.24 242.694 488.06 242.268 488.74C241.841 489.42 241.241 489.94 240.468 490.3C239.701 490.66 238.798 490.84 237.758 490.84H234.998V496H232.058ZM234.968 488.58H237.678C238.411 488.58 239.011 488.347 239.478 487.88C239.944 487.407 240.178 486.823 240.178 486.13C240.178 485.41 239.931 484.84 239.438 484.42C238.944 483.993 238.344 483.78 237.638 483.78H234.968V488.58ZM245.104 481.54H248.014V496H245.104V481.54Z" fill="#BA4270"/>
<path id="Just Now" opacity="0.5" d="M477.218 492.59C477.218 493.357 477.131 494.01 476.958 494.55C476.785 495.09 476.475 495.5 476.028 495.78C475.588 496.06 474.961 496.2 474.148 496.2C473.635 496.2 473.151 496.14 472.698 496.02C472.251 495.9 471.955 495.81 471.808 495.75L471.938 493.98C472.145 494.053 472.381 494.147 472.648 494.26C472.921 494.367 473.258 494.42 473.658 494.42C474.311 494.42 474.758 494.24 474.998 493.88C475.245 493.52 475.368 492.913 475.368 492.06V481.54H477.218V492.59ZM484.081 496.2C483.541 496.193 483.031 496.117 482.551 495.97C482.078 495.817 481.658 495.593 481.291 495.3C480.925 495.007 480.635 494.643 480.421 494.21C480.215 493.77 480.111 493.26 480.111 492.68V485.66H481.961V492.49C481.961 493.163 482.168 493.71 482.581 494.13C483.001 494.55 483.631 494.76 484.471 494.76C485.231 494.76 485.841 494.563 486.301 494.17C486.768 493.77 487.001 493.177 487.001 492.39V485.66H488.841V496H487.371L487.181 494.02C487.055 494.54 486.838 494.96 486.531 495.28C486.231 495.6 485.868 495.837 485.441 495.99C485.021 496.137 484.568 496.207 484.081 496.2ZM495.397 496.2C494.677 496.2 494.007 496.09 493.387 495.87C492.773 495.643 492.263 495.293 491.857 494.82C491.45 494.34 491.193 493.73 491.087 492.99H492.767C492.86 493.397 493.027 493.737 493.267 494.01C493.513 494.277 493.82 494.48 494.187 494.62C494.553 494.753 494.953 494.82 495.387 494.82C496.08 494.82 496.64 494.69 497.067 494.43C497.493 494.17 497.707 493.77 497.707 493.23C497.707 492.85 497.593 492.547 497.367 492.32C497.147 492.087 496.803 491.917 496.337 491.81L494.197 491.28C493.363 491.08 492.697 490.767 492.197 490.34C491.697 489.913 491.447 489.317 491.447 488.55C491.44 487.943 491.583 487.41 491.877 486.95C492.17 486.49 492.61 486.127 493.197 485.86C493.783 485.593 494.513 485.46 495.387 485.46C496.507 485.46 497.41 485.713 498.097 486.22C498.79 486.72 499.15 487.457 499.177 488.43H497.547C497.48 487.937 497.257 487.547 496.877 487.26C496.503 486.967 496 486.82 495.367 486.82C494.707 486.82 494.17 486.953 493.757 487.22C493.343 487.48 493.137 487.887 493.137 488.44C493.137 488.807 493.283 489.097 493.577 489.31C493.87 489.517 494.303 489.69 494.877 489.83L496.947 490.35C497.427 490.477 497.82 490.643 498.127 490.85C498.44 491.057 498.687 491.287 498.867 491.54C499.053 491.793 499.183 492.06 499.257 492.34C499.337 492.613 499.377 492.877 499.377 493.13C499.377 493.763 499.217 494.31 498.897 494.77C498.583 495.223 498.13 495.577 497.537 495.83C496.95 496.077 496.237 496.2 495.397 496.2ZM507 487.01H504.67V493.44C504.67 493.807 504.706 494.077 504.78 494.25C504.86 494.417 504.99 494.523 505.17 494.57C505.356 494.617 505.61 494.64 505.93 494.64H507.06V495.88C506.933 495.927 506.74 495.967 506.48 496C506.226 496.033 505.91 496.05 505.53 496.05C504.816 496.05 504.263 495.953 503.87 495.76C503.476 495.567 503.2 495.28 503.04 494.9C502.886 494.52 502.81 494.053 502.81 493.5V487.01H501.13V485.66H502.86L503.31 482.65H504.67V485.65H507V487.01ZM524.056 481.54H525.906V496H524.256L516.496 484.6V496H514.646V481.54H516.416L524.056 492.78V481.54ZM533.317 496.2C532.364 496.2 531.531 495.997 530.817 495.59C530.104 495.177 529.551 494.573 529.157 493.78C528.764 492.987 528.567 492.017 528.567 490.87C528.567 489.79 528.751 488.843 529.117 488.03C529.484 487.217 530.021 486.587 530.727 486.14C531.441 485.687 532.304 485.46 533.317 485.46C534.271 485.46 535.097 485.67 535.797 486.09C536.504 486.503 537.051 487.113 537.437 487.92C537.824 488.727 538.017 489.71 538.017 490.87C538.017 491.923 537.837 492.85 537.477 493.65C537.124 494.45 536.597 495.077 535.897 495.53C535.204 495.977 534.344 496.2 533.317 496.2ZM533.317 494.74C533.937 494.74 534.461 494.583 534.887 494.27C535.314 493.957 535.637 493.507 535.857 492.92C536.077 492.333 536.187 491.637 536.187 490.83C536.187 490.09 536.091 489.427 535.897 488.84C535.704 488.247 535.394 487.777 534.967 487.43C534.547 487.083 533.997 486.91 533.317 486.91C532.691 486.91 532.161 487.067 531.727 487.38C531.294 487.687 530.964 488.133 530.737 488.72C530.517 489.307 530.407 490.01 530.407 490.83C530.407 491.557 530.507 492.217 530.707 492.81C530.907 493.403 531.221 493.873 531.647 494.22C532.074 494.567 532.631 494.74 533.317 494.74ZM553.667 485.66L550.537 496H548.717L546.357 488.37L544.117 496H542.307L539.117 485.66H540.827L543.197 493.61H543.357L545.687 485.66H547.087L549.507 493.59H549.667L551.937 485.66H553.667Z" fill="#36536B"/>
</g>
<path id="The payment has been" d="M182.46 515.24V513.54H193.4V515.24H188.99V528H187.13V515.24H182.46ZM195.405 528V513.14H197.205V519.18C197.378 518.893 197.612 518.627 197.905 518.38C198.198 518.127 198.555 517.923 198.975 517.77C199.395 517.61 199.882 517.53 200.435 517.53C201.108 517.53 201.718 517.657 202.265 517.91C202.812 518.157 203.245 518.51 203.565 518.97C203.885 519.43 204.045 519.977 204.045 520.61V528H202.195V520.98C202.195 520.36 201.982 519.883 201.555 519.55C201.135 519.21 200.585 519.04 199.905 519.04C199.445 519.04 199.012 519.117 198.605 519.27C198.198 519.417 197.868 519.643 197.615 519.95C197.368 520.25 197.245 520.633 197.245 521.1V528H195.405ZM208.248 523.26C208.248 523.913 208.355 524.507 208.568 525.04C208.788 525.567 209.118 525.987 209.558 526.3C210.005 526.613 210.562 526.77 211.228 526.77C211.888 526.77 212.455 526.617 212.928 526.31C213.408 526.003 213.715 525.56 213.848 524.98H215.598C215.472 525.68 215.192 526.27 214.758 526.75C214.325 527.23 213.802 527.593 213.188 527.84C212.575 528.08 211.935 528.2 211.268 528.2C210.302 528.2 209.452 527.99 208.718 527.57C207.985 527.15 207.412 526.547 206.998 525.76C206.585 524.973 206.378 524.03 206.378 522.93C206.378 521.843 206.565 520.89 206.938 520.07C207.312 519.25 207.852 518.61 208.558 518.15C209.272 517.69 210.128 517.46 211.128 517.46C212.102 517.46 212.925 517.67 213.598 518.09C214.272 518.51 214.782 519.103 215.128 519.87C215.482 520.63 215.658 521.533 215.658 522.58V523.26H208.248ZM208.258 522.01H213.878C213.878 521.417 213.778 520.883 213.578 520.41C213.378 519.93 213.072 519.553 212.658 519.28C212.252 519 211.738 518.86 211.118 518.86C210.472 518.86 209.935 519.017 209.508 519.33C209.088 519.637 208.772 520.033 208.558 520.52C208.352 521 208.252 521.497 208.258 522.01ZM222.671 531.22V517.66H224.511L224.531 519.46C224.651 519.247 224.804 519.023 224.991 518.79C225.184 518.557 225.417 518.34 225.691 518.14C225.971 517.94 226.294 517.777 226.661 517.65C227.034 517.523 227.457 517.46 227.931 517.46C228.757 517.46 229.484 517.65 230.111 518.03C230.744 518.403 231.237 518.977 231.591 519.75C231.944 520.523 232.121 521.503 232.121 522.69C232.121 523.877 231.947 524.88 231.601 525.7C231.261 526.513 230.767 527.133 230.121 527.56C229.474 527.987 228.694 528.2 227.781 528.2C227.321 528.2 226.911 528.133 226.551 528C226.197 527.873 225.887 527.707 225.621 527.5C225.361 527.287 225.141 527.06 224.961 526.82C224.787 526.58 224.644 526.35 224.531 526.13V531.22H222.671ZM227.431 526.76C228.284 526.76 228.981 526.437 229.521 525.79C230.061 525.137 230.331 524.123 230.331 522.75C230.331 521.57 230.084 520.633 229.591 519.94C229.097 519.247 228.377 518.9 227.431 518.9C226.471 518.9 225.744 519.257 225.251 519.97C224.757 520.677 224.511 521.603 224.511 522.75C224.511 523.49 224.621 524.163 224.841 524.77C225.061 525.377 225.387 525.86 225.821 526.22C226.254 526.58 226.791 526.76 227.431 526.76ZM237.269 528.2C236.602 528.2 236.012 528.083 235.499 527.85C234.986 527.61 234.582 527.267 234.289 526.82C234.002 526.373 233.859 525.833 233.859 525.2C233.859 524.053 234.259 523.2 235.059 522.64C235.859 522.08 237.142 521.78 238.909 521.74L240.759 521.69V520.88C240.759 520.247 240.569 519.747 240.189 519.38C239.809 519.007 239.219 518.82 238.419 518.82C237.826 518.827 237.302 518.967 236.849 519.24C236.402 519.513 236.112 519.96 235.979 520.58H234.349C234.389 519.907 234.579 519.34 234.919 518.88C235.259 518.413 235.732 518.06 236.339 517.82C236.952 517.58 237.676 517.46 238.509 517.46C239.409 517.46 240.156 517.587 240.749 517.84C241.349 518.093 241.796 518.467 242.089 518.96C242.389 519.453 242.539 520.06 242.539 520.78V528H240.959L240.829 526.06C240.429 526.867 239.919 527.427 239.299 527.74C238.686 528.047 238.009 528.2 237.269 528.2ZM237.829 526.87C238.176 526.87 238.519 526.807 238.859 526.68C239.206 526.553 239.522 526.383 239.809 526.17C240.096 525.95 240.322 525.707 240.489 525.44C240.662 525.167 240.752 524.887 240.759 524.6V522.83L239.219 522.86C238.432 522.873 237.772 522.953 237.239 523.1C236.712 523.247 236.316 523.477 236.049 523.79C235.789 524.103 235.659 524.513 235.659 525.02C235.659 525.6 235.859 526.053 236.259 526.38C236.666 526.707 237.189 526.87 237.829 526.87ZM246.386 531.3C245.779 531.3 245.363 531.257 245.136 531.17C244.909 531.083 244.796 531.04 244.796 531.04V529.84L245.846 529.86C246.233 529.873 246.553 529.847 246.806 529.78C247.059 529.713 247.263 529.623 247.416 529.51C247.569 529.397 247.686 529.27 247.766 529.13C247.853 528.99 247.923 528.857 247.976 528.73L248.336 527.75L244.296 517.66H246.166L249.216 525.64L252.246 517.66H254.056L249.696 528.78C249.429 529.433 249.129 529.943 248.796 530.31C248.469 530.677 248.103 530.933 247.696 531.08C247.296 531.227 246.859 531.3 246.386 531.3ZM256.03 528V517.66H257.81V519.16C258.097 518.707 258.49 518.31 258.99 517.97C259.49 517.63 260.14 517.46 260.94 517.46C261.313 517.46 261.693 517.523 262.08 517.65C262.473 517.777 262.833 517.967 263.16 518.22C263.487 518.473 263.74 518.783 263.92 519.15C264.24 518.643 264.673 518.237 265.22 517.93C265.767 517.617 266.383 517.46 267.07 517.46C267.43 517.46 267.807 517.517 268.2 517.63C268.593 517.737 268.957 517.93 269.29 518.21C269.63 518.483 269.907 518.867 270.12 519.36C270.333 519.847 270.44 520.473 270.44 521.24V528H268.58V521.42C268.58 520.793 268.48 520.31 268.28 519.97C268.08 519.623 267.817 519.38 267.49 519.24C267.17 519.1 266.827 519.03 266.46 519.03C266.14 519.03 265.8 519.093 265.44 519.22C265.08 519.347 264.773 519.56 264.52 519.86C264.267 520.16 264.14 520.57 264.14 521.09V528H262.3V520.88C262.3 520.473 262.19 520.133 261.97 519.86C261.757 519.587 261.487 519.38 261.16 519.24C260.84 519.1 260.52 519.03 260.2 519.03C259.847 519.03 259.49 519.1 259.13 519.24C258.777 519.38 258.477 519.603 258.23 519.91C257.99 520.21 257.87 520.603 257.87 521.09V528H256.03ZM274.655 523.26C274.655 523.913 274.761 524.507 274.975 525.04C275.195 525.567 275.525 525.987 275.965 526.3C276.411 526.613 276.968 526.77 277.635 526.77C278.295 526.77 278.861 526.617 279.335 526.31C279.815 526.003 280.121 525.56 280.255 524.98H282.005C281.878 525.68 281.598 526.27 281.165 526.75C280.731 527.23 280.208 527.593 279.595 527.84C278.981 528.08 278.341 528.2 277.675 528.2C276.708 528.2 275.858 527.99 275.125 527.57C274.391 527.15 273.818 526.547 273.405 525.76C272.991 524.973 272.785 524.03 272.785 522.93C272.785 521.843 272.971 520.89 273.345 520.07C273.718 519.25 274.258 518.61 274.965 518.15C275.678 517.69 276.535 517.46 277.535 517.46C278.508 517.46 279.331 517.67 280.005 518.09C280.678 518.51 281.188 519.103 281.535 519.87C281.888 520.63 282.065 521.533 282.065 522.58V523.26H274.655ZM274.665 522.01H280.285C280.285 521.417 280.185 520.883 279.985 520.41C279.785 519.93 279.478 519.553 279.065 519.28C278.658 519 278.145 518.86 277.525 518.86C276.878 518.86 276.341 519.017 275.915 519.33C275.495 519.637 275.178 520.033 274.965 520.52C274.758 521 274.658 521.497 274.665 522.01ZM284.604 528V517.66H286.394V519.16C286.561 518.873 286.791 518.603 287.084 518.35C287.384 518.097 287.744 517.893 288.164 517.74C288.591 517.587 289.081 517.51 289.634 517.51C290.288 517.51 290.888 517.64 291.434 517.9C291.988 518.16 292.428 518.567 292.754 519.12C293.088 519.667 293.254 520.373 293.254 521.24V528H291.404V521.42C291.404 520.613 291.191 520.017 290.764 519.63C290.344 519.237 289.798 519.04 289.124 519.04C288.658 519.04 288.221 519.117 287.814 519.27C287.408 519.417 287.078 519.643 286.824 519.95C286.571 520.25 286.444 520.63 286.444 521.09V528H284.604ZM300.912 519.01H298.582V525.44C298.582 525.807 298.619 526.077 298.692 526.25C298.772 526.417 298.902 526.523 299.082 526.57C299.269 526.617 299.522 526.64 299.842 526.64H300.972V527.88C300.846 527.927 300.652 527.967 300.392 528C300.139 528.033 299.822 528.05 299.442 528.05C298.729 528.05 298.176 527.953 297.782 527.76C297.389 527.567 297.112 527.28 296.952 526.9C296.799 526.52 296.722 526.053 296.722 525.5V519.01H295.042V517.66H296.772L297.222 514.65H298.582V517.65H300.912V519.01ZM308.178 528V513.14H309.978V519.18C310.152 518.893 310.385 518.627 310.678 518.38C310.972 518.127 311.328 517.923 311.748 517.77C312.168 517.61 312.655 517.53 313.208 517.53C313.882 517.53 314.492 517.657 315.038 517.91C315.585 518.157 316.018 518.51 316.338 518.97C316.658 519.43 316.818 519.977 316.818 520.61V528H314.968V520.98C314.968 520.36 314.755 519.883 314.328 519.55C313.908 519.21 313.358 519.04 312.678 519.04C312.218 519.04 311.785 519.117 311.378 519.27C310.972 519.417 310.642 519.643 310.388 519.95C310.142 520.25 310.018 520.633 310.018 521.1V528H308.178ZM322.523 528.2C321.856 528.2 321.266 528.083 320.753 527.85C320.239 527.61 319.836 527.267 319.543 526.82C319.256 526.373 319.113 525.833 319.113 525.2C319.113 524.053 319.513 523.2 320.313 522.64C321.113 522.08 322.396 521.78 324.163 521.74L326.013 521.69V520.88C326.013 520.247 325.823 519.747 325.443 519.38C325.063 519.007 324.473 518.82 323.673 518.82C323.079 518.827 322.556 518.967 322.103 519.24C321.656 519.513 321.366 519.96 321.233 520.58H319.603C319.643 519.907 319.833 519.34 320.173 518.88C320.513 518.413 320.986 518.06 321.593 517.82C322.206 517.58 322.929 517.46 323.763 517.46C324.663 517.46 325.409 517.587 326.003 517.84C326.603 518.093 327.049 518.467 327.343 518.96C327.643 519.453 327.793 520.06 327.793 520.78V528H326.213L326.083 526.06C325.683 526.867 325.173 527.427 324.553 527.74C323.939 528.047 323.263 528.2 322.523 528.2ZM323.083 526.87C323.429 526.87 323.773 526.807 324.113 526.68C324.459 526.553 324.776 526.383 325.063 526.17C325.349 525.95 325.576 525.707 325.743 525.44C325.916 525.167 326.006 524.887 326.013 524.6V522.83L324.473 522.86C323.686 522.873 323.026 522.953 322.493 523.1C321.966 523.247 321.569 523.477 321.303 523.79C321.043 524.103 320.913 524.513 320.913 525.02C320.913 525.6 321.113 526.053 321.513 526.38C321.919 526.707 322.443 526.87 323.083 526.87ZM334.446 528.2C333.726 528.2 333.056 528.09 332.436 527.87C331.823 527.643 331.313 527.293 330.906 526.82C330.499 526.34 330.243 525.73 330.136 524.99H331.816C331.909 525.397 332.076 525.737 332.316 526.01C332.563 526.277 332.869 526.48 333.236 526.62C333.603 526.753 334.003 526.82 334.436 526.82C335.129 526.82 335.689 526.69 336.116 526.43C336.543 526.17 336.756 525.77 336.756 525.23C336.756 524.85 336.643 524.547 336.416 524.32C336.196 524.087 335.853 523.917 335.386 523.81L333.246 523.28C332.413 523.08 331.746 522.767 331.246 522.34C330.746 521.913 330.496 521.317 330.496 520.55C330.489 519.943 330.633 519.41 330.926 518.95C331.219 518.49 331.659 518.127 332.246 517.86C332.833 517.593 333.563 517.46 334.436 517.46C335.556 517.46 336.459 517.713 337.146 518.22C337.839 518.72 338.199 519.457 338.226 520.43H336.596C336.529 519.937 336.306 519.547 335.926 519.26C335.553 518.967 335.049 518.82 334.416 518.82C333.756 518.82 333.219 518.953 332.806 519.22C332.393 519.48 332.186 519.887 332.186 520.44C332.186 520.807 332.333 521.097 332.626 521.31C332.919 521.517 333.353 521.69 333.926 521.83L335.996 522.35C336.476 522.477 336.869 522.643 337.176 522.85C337.489 523.057 337.736 523.287 337.916 523.54C338.103 523.793 338.233 524.06 338.306 524.34C338.386 524.613 338.426 524.877 338.426 525.13C338.426 525.763 338.266 526.31 337.946 526.77C337.633 527.223 337.179 527.577 336.586 527.83C335.999 528.077 335.286 528.2 334.446 528.2ZM350.652 528.2C350.045 528.2 349.532 528.12 349.112 527.96C348.698 527.8 348.358 527.597 348.092 527.35C347.825 527.097 347.618 526.84 347.472 526.58C347.325 526.313 347.218 526.08 347.152 525.88L346.952 528H345.542V513.14H347.402V519.3C347.488 519.127 347.618 518.937 347.792 518.73C347.972 518.523 348.202 518.323 348.482 518.13C348.762 517.937 349.092 517.777 349.472 517.65C349.858 517.523 350.298 517.46 350.792 517.46C352.085 517.46 353.112 517.91 353.872 518.81C354.638 519.71 355.022 521.037 355.022 522.79C355.022 523.877 354.858 524.827 354.532 525.64C354.205 526.447 353.718 527.077 353.072 527.53C352.425 527.977 351.618 528.2 350.652 528.2ZM350.322 526.78C351.162 526.78 351.845 526.457 352.372 525.81C352.898 525.157 353.162 524.12 353.162 522.7C353.162 521.493 352.915 520.56 352.422 519.9C351.935 519.233 351.222 518.9 350.282 518.9C349.595 518.9 349.042 519.05 348.622 519.35C348.208 519.643 347.902 520.073 347.702 520.64C347.508 521.207 347.408 521.893 347.402 522.7C347.402 524.147 347.625 525.19 348.072 525.83C348.525 526.463 349.275 526.78 350.322 526.78ZM358.756 523.26C358.756 523.913 358.863 524.507 359.076 525.04C359.296 525.567 359.626 525.987 360.066 526.3C360.513 526.613 361.07 526.77 361.736 526.77C362.396 526.77 362.963 526.617 363.436 526.31C363.916 526.003 364.223 525.56 364.356 524.98H366.106C365.98 525.68 365.7 526.27 365.266 526.75C364.833 527.23 364.31 527.593 363.696 527.84C363.083 528.08 362.443 528.2 361.776 528.2C360.81 528.2 359.96 527.99 359.226 527.57C358.493 527.15 357.92 526.547 357.506 525.76C357.093 524.973 356.886 524.03 356.886 522.93C356.886 521.843 357.073 520.89 357.446 520.07C357.82 519.25 358.36 518.61 359.066 518.15C359.78 517.69 360.636 517.46 361.636 517.46C362.61 517.46 363.433 517.67 364.106 518.09C364.78 518.51 365.29 519.103 365.636 519.87C365.99 520.63 366.166 521.533 366.166 522.58V523.26H358.756ZM358.766 522.01H364.386C364.386 521.417 364.286 520.883 364.086 520.41C363.886 519.93 363.58 519.553 363.166 519.28C362.76 519 362.246 518.86 361.626 518.86C360.98 518.86 360.443 519.017 360.016 519.33C359.596 519.637 359.28 520.033 359.066 520.52C358.86 521 358.76 521.497 358.766 522.01ZM370.026 523.26C370.026 523.913 370.132 524.507 370.346 525.04C370.566 525.567 370.896 525.987 371.336 526.3C371.782 526.613 372.339 526.77 373.006 526.77C373.666 526.77 374.232 526.617 374.706 526.31C375.186 526.003 375.492 525.56 375.626 524.98H377.376C377.249 525.68 376.969 526.27 376.536 526.75C376.102 527.23 375.579 527.593 374.966 527.84C374.352 528.08 373.712 528.2 373.046 528.2C372.079 528.2 371.229 527.99 370.496 527.57C369.762 527.15 369.189 526.547 368.776 525.76C368.362 524.973 368.156 524.03 368.156 522.93C368.156 521.843 368.342 520.89 368.716 520.07C369.089 519.25 369.629 518.61 370.336 518.15C371.049 517.69 371.906 517.46 372.906 517.46C373.879 517.46 374.702 517.67 375.376 518.09C376.049 518.51 376.559 519.103 376.906 519.87C377.259 520.63 377.436 521.533 377.436 522.58V523.26H370.026ZM370.036 522.01H375.656C375.656 521.417 375.556 520.883 375.356 520.41C375.156 519.93 374.849 519.553 374.436 519.28C374.029 519 373.516 518.86 372.896 518.86C372.249 518.86 371.712 519.017 371.286 519.33C370.866 519.637 370.549 520.033 370.336 520.52C370.129 521 370.029 521.497 370.036 522.01ZM379.975 528V517.66H381.765V519.16C381.932 518.873 382.162 518.603 382.455 518.35C382.755 518.097 383.115 517.893 383.535 517.74C383.962 517.587 384.452 517.51 385.005 517.51C385.659 517.51 386.259 517.64 386.805 517.9C387.359 518.16 387.799 518.567 388.125 519.12C388.459 519.667 388.625 520.373 388.625 521.24V528H386.775V521.42C386.775 520.613 386.562 520.017 386.135 519.63C385.715 519.237 385.169 519.04 384.495 519.04C384.029 519.04 383.592 519.117 383.185 519.27C382.779 519.417 382.449 519.643 382.195 519.95C381.942 520.25 381.815 520.63 381.815 521.09V528H379.975ZM396.128 531.22V517.66H397.968L397.988 519.46C398.108 519.247 398.261 519.023 398.448 518.79C398.641 518.557 398.874 518.34 399.148 518.14C399.428 517.94 399.751 517.777 400.118 517.65C400.491 517.523 400.914 517.46 401.388 517.46C402.214 517.46 402.941 517.65 403.568 518.03C404.201 518.403 404.694 518.977 405.048 519.75C405.401 520.523 405.578 521.503 405.578 522.69C405.578 523.877 405.404 524.88 405.058 525.7C404.718 526.513 404.224 527.133 403.578 527.56C402.931 527.987 402.151 528.2 401.238 528.2C400.778 528.2 400.368 528.133 400.008 528C399.654 527.873 399.344 527.707 399.078 527.5C398.818 527.287 398.598 527.06 398.418 526.82C398.244 526.58 398.101 526.35 397.988 526.13V531.22H396.128ZM400.888 526.76C401.741 526.76 402.438 526.437 402.978 525.79C403.518 525.137 403.788 524.123 403.788 522.75C403.788 521.57 403.541 520.633 403.048 519.94C402.554 519.247 401.834 518.9 400.888 518.9C399.928 518.9 399.201 519.257 398.708 519.97C398.214 520.677 397.968 521.603 397.968 522.75C397.968 523.49 398.078 524.163 398.298 524.77C398.518 525.377 398.844 525.86 399.278 526.22C399.711 526.58 400.248 526.76 400.888 526.76ZM408.003 528V517.66H409.763V519.65C409.936 519.157 410.179 518.75 410.493 518.43C410.806 518.103 411.163 517.86 411.563 517.7C411.969 517.54 412.389 517.46 412.823 517.46C412.976 517.46 413.126 517.47 413.273 517.49C413.419 517.51 413.533 517.543 413.613 517.59V519.38C413.513 519.333 413.383 519.303 413.223 519.29C413.069 519.27 412.939 519.26 412.833 519.26C412.419 519.233 412.033 519.26 411.673 519.34C411.313 519.413 410.996 519.543 410.723 519.73C410.449 519.917 410.233 520.163 410.073 520.47C409.919 520.77 409.843 521.137 409.843 521.57V528H408.003ZM419.632 528.2C418.679 528.2 417.846 527.997 417.132 527.59C416.419 527.177 415.866 526.573 415.472 525.78C415.079 524.987 414.882 524.017 414.882 522.87C414.882 521.79 415.066 520.843 415.432 520.03C415.799 519.217 416.336 518.587 417.042 518.14C417.756 517.687 418.619 517.46 419.632 517.46C420.586 517.46 421.412 517.67 422.112 518.09C422.819 518.503 423.366 519.113 423.752 519.92C424.139 520.727 424.332 521.71 424.332 522.87C424.332 523.923 424.152 524.85 423.792 525.65C423.439 526.45 422.912 527.077 422.212 527.53C421.519 527.977 420.659 528.2 419.632 528.2ZM419.632 526.74C420.252 526.74 420.776 526.583 421.202 526.27C421.629 525.957 421.952 525.507 422.172 524.92C422.392 524.333 422.502 523.637 422.502 522.83C422.502 522.09 422.406 521.427 422.212 520.84C422.019 520.247 421.709 519.777 421.282 519.43C420.862 519.083 420.312 518.91 419.632 518.91C419.006 518.91 418.476 519.067 418.042 519.38C417.609 519.687 417.279 520.133 417.052 520.72C416.832 521.307 416.722 522.01 416.722 522.83C416.722 523.557 416.822 524.217 417.022 524.81C417.222 525.403 417.536 525.873 417.962 526.22C418.389 526.567 418.946 526.74 419.632 526.74ZM430.873 517.46C431.613 517.46 432.279 517.603 432.873 517.89C433.466 518.17 433.949 518.57 434.323 519.09C434.703 519.61 434.939 520.223 435.033 520.93H433.393C433.333 520.57 433.193 520.24 432.973 519.94C432.759 519.64 432.476 519.4 432.123 519.22C431.769 519.04 431.356 518.95 430.883 518.95C429.996 518.95 429.276 519.27 428.723 519.91C428.169 520.55 427.893 521.53 427.893 522.85C427.893 524.043 428.146 525 428.653 525.72C429.166 526.433 429.919 526.79 430.913 526.79C431.386 526.79 431.796 526.7 432.143 526.52C432.496 526.333 432.779 526.09 432.993 525.79C433.206 525.483 433.343 525.157 433.403 524.81H435.013C434.926 525.503 434.693 526.103 434.313 526.61C433.933 527.117 433.446 527.51 432.853 527.79C432.266 528.063 431.606 528.2 430.873 528.2C429.946 528.2 429.123 527.997 428.403 527.59C427.689 527.183 427.129 526.583 426.723 525.79C426.316 524.997 426.113 524.023 426.113 522.87C426.113 521.79 426.296 520.847 426.663 520.04C427.036 519.227 427.576 518.593 428.283 518.14C428.996 517.687 429.859 517.46 430.873 517.46ZM438.854 523.26C438.854 523.913 438.961 524.507 439.174 525.04C439.394 525.567 439.724 525.987 440.164 526.3C440.611 526.613 441.167 526.77 441.834 526.77C442.494 526.77 443.061 526.617 443.534 526.31C444.014 526.003 444.321 525.56 444.454 524.98H446.204C446.077 525.68 445.797 526.27 445.364 526.75C444.931 527.23 444.407 527.593 443.794 527.84C443.181 528.08 442.541 528.2 441.874 528.2C440.907 528.2 440.057 527.99 439.324 527.57C438.591 527.15 438.017 526.547 437.604 525.76C437.191 524.973 436.984 524.03 436.984 522.93C436.984 521.843 437.171 520.89 437.544 520.07C437.917 519.25 438.457 518.61 439.164 518.15C439.877 517.69 440.734 517.46 441.734 517.46C442.707 517.46 443.531 517.67 444.204 518.09C444.877 518.51 445.387 519.103 445.734 519.87C446.087 520.63 446.264 521.533 446.264 522.58V523.26H438.854ZM438.864 522.01H444.484C444.484 521.417 444.384 520.883 444.184 520.41C443.984 519.93 443.677 519.553 443.264 519.28C442.857 519 442.344 518.86 441.724 518.86C441.077 518.86 440.541 519.017 440.114 519.33C439.694 519.637 439.377 520.033 439.164 520.52C438.957 521 438.857 521.497 438.864 522.01ZM452.395 528.2C451.675 528.2 451.005 528.09 450.385 527.87C449.772 527.643 449.262 527.293 448.855 526.82C448.449 526.34 448.192 525.73 448.085 524.99H449.765C449.859 525.397 450.025 525.737 450.265 526.01C450.512 526.277 450.819 526.48 451.185 526.62C451.552 526.753 451.952 526.82 452.385 526.82C453.079 526.82 453.639 526.69 454.065 526.43C454.492 526.17 454.705 525.77 454.705 525.23C454.705 524.85 454.592 524.547 454.365 524.32C454.145 524.087 453.802 523.917 453.335 523.81L451.195 523.28C450.362 523.08 449.695 522.767 449.195 522.34C448.695 521.913 448.445 521.317 448.445 520.55C448.439 519.943 448.582 519.41 448.875 518.95C449.169 518.49 449.609 518.127 450.195 517.86C450.782 517.593 451.512 517.46 452.385 517.46C453.505 517.46 454.409 517.713 455.095 518.22C455.789 518.72 456.149 519.457 456.175 520.43H454.545C454.479 519.937 454.255 519.547 453.875 519.26C453.502 518.967 452.999 518.82 452.365 518.82C451.705 518.82 451.169 518.953 450.755 519.22C450.342 519.48 450.135 519.887 450.135 520.44C450.135 520.807 450.282 521.097 450.575 521.31C450.869 521.517 451.302 521.69 451.875 521.83L453.945 522.35C454.425 522.477 454.819 522.643 455.125 522.85C455.439 523.057 455.685 523.287 455.865 523.54C456.052 523.793 456.182 524.06 456.255 524.34C456.335 524.613 456.375 524.877 456.375 525.13C456.375 525.763 456.215 526.31 455.895 526.77C455.582 527.223 455.129 527.577 454.535 527.83C453.949 528.077 453.235 528.2 452.395 528.2ZM462.454 528.2C461.734 528.2 461.064 528.09 460.444 527.87C459.831 527.643 459.321 527.293 458.914 526.82C458.507 526.34 458.251 525.73 458.144 524.99H459.824C459.917 525.397 460.084 525.737 460.324 526.01C460.571 526.277 460.877 526.48 461.244 526.62C461.611 526.753 462.011 526.82 462.444 526.82C463.137 526.82 463.697 526.69 464.124 526.43C464.551 526.17 464.764 525.77 464.764 525.23C464.764 524.85 464.651 524.547 464.424 524.32C464.204 524.087 463.861 523.917 463.394 523.81L461.254 523.28C460.421 523.08 459.754 522.767 459.254 522.34C458.754 521.913 458.504 521.317 458.504 520.55C458.497 519.943 458.641 519.41 458.934 518.95C459.227 518.49 459.667 518.127 460.254 517.86C460.841 517.593 461.571 517.46 462.444 517.46C463.564 517.46 464.467 517.713 465.154 518.22C465.847 518.72 466.207 519.457 466.234 520.43H464.604C464.537 519.937 464.314 519.547 463.934 519.26C463.561 518.967 463.057 518.82 462.424 518.82C461.764 518.82 461.227 518.953 460.814 519.22C460.401 519.48 460.194 519.887 460.194 520.44C460.194 520.807 460.341 521.097 460.634 521.31C460.927 521.517 461.361 521.69 461.934 521.83L464.004 522.35C464.484 522.477 464.877 522.643 465.184 522.85C465.497 523.057 465.744 523.287 465.924 523.54C466.111 523.793 466.241 524.06 466.314 524.34C466.394 524.613 466.434 524.877 466.434 525.13C466.434 525.763 466.274 526.31 465.954 526.77C465.641 527.223 465.187 527.577 464.594 527.83C464.007 528.077 463.294 528.2 462.454 528.2ZM470.338 523.26C470.338 523.913 470.445 524.507 470.658 525.04C470.878 525.567 471.208 525.987 471.648 526.3C472.095 526.613 472.652 526.77 473.318 526.77C473.978 526.77 474.545 526.617 475.018 526.31C475.498 526.003 475.805 525.56 475.938 524.98H477.688C477.562 525.68 477.282 526.27 476.848 526.75C476.415 527.23 475.892 527.593 475.278 527.84C474.665 528.08 474.025 528.2 473.358 528.2C472.392 528.2 471.542 527.99 470.808 527.57C470.075 527.15 469.502 526.547 469.088 525.76C468.675 524.973 468.468 524.03 468.468 522.93C468.468 521.843 468.655 520.89 469.028 520.07C469.402 519.25 469.942 518.61 470.648 518.15C471.362 517.69 472.218 517.46 473.218 517.46C474.192 517.46 475.015 517.67 475.688 518.09C476.362 518.51 476.872 519.103 477.218 519.87C477.572 520.63 477.748 521.533 477.748 522.58V523.26H470.338ZM470.348 522.01H475.968C475.968 521.417 475.868 520.883 475.668 520.41C475.468 519.93 475.162 519.553 474.748 519.28C474.342 519 473.828 518.86 473.208 518.86C472.562 518.86 472.025 519.017 471.598 519.33C471.178 519.637 470.862 520.033 470.648 520.52C470.442 521 470.342 521.497 470.348 522.01ZM484.018 528.2C482.678 528.2 481.614 527.74 480.828 526.82C480.041 525.9 479.648 524.557 479.648 522.79C479.648 521.717 479.804 520.78 480.118 519.98C480.438 519.18 480.911 518.56 481.538 518.12C482.164 517.68 482.944 517.46 483.878 517.46C484.371 517.46 484.808 517.523 485.188 517.65C485.574 517.777 485.908 517.937 486.188 518.13C486.468 518.323 486.694 518.523 486.868 518.73C487.048 518.937 487.181 519.127 487.268 519.3V513.14H489.128V528H487.718L487.518 525.88C487.451 526.08 487.344 526.313 487.198 526.58C487.051 526.84 486.844 527.097 486.578 527.35C486.311 527.597 485.968 527.8 485.548 527.96C485.134 528.12 484.624 528.2 484.018 528.2ZM484.348 526.78C485.394 526.78 486.141 526.463 486.588 525.83C487.041 525.19 487.268 524.147 487.268 522.7C487.261 521.893 487.158 521.207 486.958 520.64C486.764 520.073 486.458 519.643 486.038 519.35C485.624 519.05 485.074 518.9 484.388 518.9C483.534 518.9 482.841 519.203 482.308 519.81C481.774 520.417 481.508 521.38 481.508 522.7C481.508 523.993 481.748 524.997 482.228 525.71C482.714 526.423 483.421 526.78 484.348 526.78ZM491.752 528V525.64H493.952V528H491.752ZM500.097 515.24V513.54H511.037V515.24H506.627V528H504.767V515.24H500.097ZM513.042 528V513.14H514.842V519.18C515.015 518.893 515.248 518.627 515.542 518.38C515.835 518.127 516.192 517.923 516.612 517.77C517.032 517.61 517.518 517.53 518.072 517.53C518.745 517.53 519.355 517.657 519.902 517.91C520.448 518.157 520.882 518.51 521.202 518.97C521.522 519.43 521.682 519.977 521.682 520.61V528H519.832V520.98C519.832 520.36 519.618 519.883 519.192 519.55C518.772 519.21 518.222 519.04 517.542 519.04C517.082 519.04 516.648 519.117 516.242 519.27C515.835 519.417 515.505 519.643 515.252 519.95C515.005 520.25 514.882 520.633 514.882 521.1V528H513.042ZM525.885 523.26C525.885 523.913 525.992 524.507 526.205 525.04C526.425 525.567 526.755 525.987 527.195 526.3C527.642 526.613 528.198 526.77 528.865 526.77C529.525 526.77 530.092 526.617 530.565 526.31C531.045 526.003 531.352 525.56 531.485 524.98H533.235C533.108 525.68 532.828 526.27 532.395 526.75C531.962 527.23 531.438 527.593 530.825 527.84C530.212 528.08 529.572 528.2 528.905 528.2C527.938 528.2 527.088 527.99 526.355 527.57C525.622 527.15 525.048 526.547 524.635 525.76C524.222 524.973 524.015 524.03 524.015 522.93C524.015 521.843 524.202 520.89 524.575 520.07C524.948 519.25 525.488 518.61 526.195 518.15C526.908 517.69 527.765 517.46 528.765 517.46C529.738 517.46 530.562 517.67 531.235 518.09C531.908 518.51 532.418 519.103 532.765 519.87C533.118 520.63 533.295 521.533 533.295 522.58V523.26H525.885ZM525.895 522.01H531.515C531.515 521.417 531.415 520.883 531.215 520.41C531.015 519.93 530.708 519.553 530.295 519.28C529.888 519 529.375 518.86 528.755 518.86C528.108 518.86 527.572 519.017 527.145 519.33C526.725 519.637 526.408 520.033 526.195 520.52C525.988 521 525.888 521.497 525.895 522.01ZM188.92 547.01H186.59V553.44C186.59 553.807 186.627 554.077 186.7 554.25C186.78 554.417 186.91 554.523 187.09 554.57C187.277 554.617 187.53 554.64 187.85 554.64H188.98V555.88C188.853 555.927 188.66 555.967 188.4 556C188.147 556.033 187.83 556.05 187.45 556.05C186.737 556.05 186.183 555.953 185.79 555.76C185.397 555.567 185.12 555.28 184.96 554.9C184.807 554.52 184.73 554.053 184.73 553.5V547.01H183.05V545.66H184.78L185.23 542.65H186.59V545.65H188.92V547.01ZM195.413 556.2C194.46 556.2 193.627 555.997 192.913 555.59C192.2 555.177 191.647 554.573 191.253 553.78C190.86 552.987 190.663 552.017 190.663 550.87C190.663 549.79 190.847 548.843 191.213 548.03C191.58 547.217 192.117 546.587 192.823 546.14C193.537 545.687 194.4 545.46 195.413 545.46C196.367 545.46 197.193 545.67 197.893 546.09C198.6 546.503 199.147 547.113 199.533 547.92C199.92 548.727 200.113 549.71 200.113 550.87C200.113 551.923 199.933 552.85 199.573 553.65C199.22 554.45 198.693 555.077 197.993 555.53C197.3 555.977 196.44 556.2 195.413 556.2ZM195.413 554.74C196.033 554.74 196.557 554.583 196.983 554.27C197.41 553.957 197.733 553.507 197.953 552.92C198.173 552.333 198.283 551.637 198.283 550.83C198.283 550.09 198.187 549.427 197.993 548.84C197.8 548.247 197.49 547.777 197.063 547.43C196.643 547.083 196.093 546.91 195.413 546.91C194.787 546.91 194.257 547.067 193.823 547.38C193.39 547.687 193.06 548.133 192.833 548.72C192.613 549.307 192.503 550.01 192.503 550.83C192.503 551.557 192.603 552.217 192.803 552.81C193.003 553.403 193.317 553.873 193.743 554.22C194.17 554.567 194.727 554.74 195.413 554.74ZM207.455 547.01H205.125V553.44C205.125 553.807 205.162 554.077 205.235 554.25C205.315 554.417 205.445 554.523 205.625 554.57C205.812 554.617 206.065 554.64 206.385 554.64H207.515V555.88C207.388 555.927 207.195 555.967 206.935 556C206.682 556.033 206.365 556.05 205.985 556.05C205.272 556.05 204.718 555.953 204.325 555.76C203.932 555.567 203.655 555.28 203.495 554.9C203.342 554.52 203.265 554.053 203.265 553.5V547.01H201.585V545.66H203.315L203.765 542.65H205.125V545.65H207.455V547.01ZM212.894 556.2C212.227 556.2 211.637 556.083 211.124 555.85C210.611 555.61 210.207 555.267 209.914 554.82C209.627 554.373 209.484 553.833 209.484 553.2C209.484 552.053 209.884 551.2 210.684 550.64C211.484 550.08 212.767 549.78 214.534 549.74L216.384 549.69V548.88C216.384 548.247 216.194 547.747 215.814 547.38C215.434 547.007 214.844 546.82 214.044 546.82C213.451 546.827 212.927 546.967 212.474 547.24C212.027 547.513 211.737 547.96 211.604 548.58H209.974C210.014 547.907 210.204 547.34 210.544 546.88C210.884 546.413 211.357 546.06 211.964 545.82C212.577 545.58 213.301 545.46 214.134 545.46C215.034 545.46 215.781 545.587 216.374 545.84C216.974 546.093 217.421 546.467 217.714 546.96C218.014 547.453 218.164 548.06 218.164 548.78V556H216.584L216.454 554.06C216.054 554.867 215.544 555.427 214.924 555.74C214.311 556.047 213.634 556.2 212.894 556.2ZM213.454 554.87C213.801 554.87 214.144 554.807 214.484 554.68C214.831 554.553 215.147 554.383 215.434 554.17C215.721 553.95 215.947 553.707 216.114 553.44C216.287 553.167 216.377 552.887 216.384 552.6V550.83L214.844 550.86C214.057 550.873 213.397 550.953 212.864 551.1C212.337 551.247 211.941 551.477 211.674 551.79C211.414 552.103 211.284 552.513 211.284 553.02C211.284 553.6 211.484 554.053 211.884 554.38C212.291 554.707 212.814 554.87 213.454 554.87ZM223.933 556.13C223.373 556.13 222.92 556.053 222.573 555.9C222.233 555.747 221.97 555.54 221.783 555.28C221.603 555.02 221.48 554.723 221.413 554.39C221.353 554.05 221.323 553.7 221.323 553.34V541.14H223.143V553.16C223.143 553.68 223.243 554.07 223.443 554.33C223.65 554.59 223.936 554.733 224.303 554.76L224.863 554.77V555.97C224.71 556.017 224.55 556.053 224.383 556.08C224.216 556.113 224.066 556.13 223.933 556.13ZM234.749 556.2C234.083 556.2 233.493 556.083 232.979 555.85C232.466 555.61 232.063 555.267 231.769 554.82C231.483 554.373 231.339 553.833 231.339 553.2C231.339 552.053 231.739 551.2 232.539 550.64C233.339 550.08 234.623 549.78 236.389 549.74L238.239 549.69V548.88C238.239 548.247 238.049 547.747 237.669 547.38C237.289 547.007 236.699 546.82 235.899 546.82C235.306 546.827 234.783 546.967 234.329 547.24C233.883 547.513 233.593 547.96 233.459 548.58H231.829C231.869 547.907 232.059 547.34 232.399 546.88C232.739 546.413 233.213 546.06 233.819 545.82C234.433 545.58 235.156 545.46 235.989 545.46C236.889 545.46 237.636 545.587 238.229 545.84C238.829 546.093 239.276 546.467 239.569 546.96C239.869 547.453 240.019 548.06 240.019 548.78V556H238.439L238.309 554.06C237.909 554.867 237.399 555.427 236.779 555.74C236.166 556.047 235.489 556.2 234.749 556.2ZM235.309 554.87C235.656 554.87 235.999 554.807 236.339 554.68C236.686 554.553 237.003 554.383 237.289 554.17C237.576 553.95 237.803 553.707 237.969 553.44C238.143 553.167 238.233 552.887 238.239 552.6V550.83L236.699 550.86C235.913 550.873 235.253 550.953 234.719 551.1C234.193 551.247 233.796 551.477 233.529 551.79C233.269 552.103 233.139 552.513 233.139 553.02C233.139 553.6 233.339 554.053 233.739 554.38C234.146 554.707 234.669 554.87 235.309 554.87ZM243.178 556V545.66H244.958V547.16C245.245 546.707 245.638 546.31 246.138 545.97C246.638 545.63 247.288 545.46 248.088 545.46C248.462 545.46 248.842 545.523 249.228 545.65C249.622 545.777 249.982 545.967 250.308 546.22C250.635 546.473 250.888 546.783 251.068 547.15C251.388 546.643 251.822 546.237 252.368 545.93C252.915 545.617 253.532 545.46 254.218 545.46C254.578 545.46 254.955 545.517 255.348 545.63C255.742 545.737 256.105 545.93 256.438 546.21C256.778 546.483 257.055 546.867 257.268 547.36C257.482 547.847 257.588 548.473 257.588 549.24V556H255.728V549.42C255.728 548.793 255.628 548.31 255.428 547.97C255.228 547.623 254.965 547.38 254.638 547.24C254.318 547.1 253.975 547.03 253.608 547.03C253.288 547.03 252.948 547.093 252.588 547.22C252.228 547.347 251.922 547.56 251.668 547.86C251.415 548.16 251.288 548.57 251.288 549.09V556H249.448V548.88C249.448 548.473 249.338 548.133 249.118 547.86C248.905 547.587 248.635 547.38 248.308 547.24C247.988 547.1 247.668 547.03 247.348 547.03C246.995 547.03 246.638 547.1 246.278 547.24C245.925 547.38 245.625 547.603 245.378 547.91C245.138 548.21 245.018 548.603 245.018 549.09V556H243.178ZM264.593 556.2C263.64 556.2 262.806 555.997 262.093 555.59C261.38 555.177 260.826 554.573 260.433 553.78C260.04 552.987 259.843 552.017 259.843 550.87C259.843 549.79 260.026 548.843 260.393 548.03C260.76 547.217 261.296 546.587 262.003 546.14C262.716 545.687 263.58 545.46 264.593 545.46C265.546 545.46 266.373 545.67 267.073 546.09C267.78 546.503 268.326 547.113 268.713 547.92C269.1 548.727 269.293 549.71 269.293 550.87C269.293 551.923 269.113 552.85 268.753 553.65C268.4 554.45 267.873 555.077 267.173 555.53C266.48 555.977 265.62 556.2 264.593 556.2ZM264.593 554.74C265.213 554.74 265.736 554.583 266.163 554.27C266.59 553.957 266.913 553.507 267.133 552.92C267.353 552.333 267.463 551.637 267.463 550.83C267.463 550.09 267.366 549.427 267.173 548.84C266.98 548.247 266.67 547.777 266.243 547.43C265.823 547.083 265.273 546.91 264.593 546.91C263.966 546.91 263.436 547.067 263.003 547.38C262.57 547.687 262.24 548.133 262.013 548.72C261.793 549.307 261.683 550.01 261.683 550.83C261.683 551.557 261.783 552.217 261.983 552.81C262.183 553.403 262.496 553.873 262.923 554.22C263.35 554.567 263.906 554.74 264.593 554.74ZM275.338 556.2C274.798 556.193 274.288 556.117 273.808 555.97C273.334 555.817 272.914 555.593 272.548 555.3C272.181 555.007 271.891 554.643 271.678 554.21C271.471 553.77 271.368 553.26 271.368 552.68V545.66H273.218V552.49C273.218 553.163 273.424 553.71 273.838 554.13C274.258 554.55 274.888 554.76 275.728 554.76C276.488 554.76 277.098 554.563 277.558 554.17C278.024 553.77 278.258 553.177 278.258 552.39V545.66H280.098V556H278.628L278.438 554.02C278.311 554.54 278.094 554.96 277.788 555.28C277.488 555.6 277.124 555.837 276.698 555.99C276.278 556.137 275.824 556.207 275.338 556.2ZM283.12 556V545.66H284.91V547.16C285.077 546.873 285.307 546.603 285.6 546.35C285.9 546.097 286.26 545.893 286.68 545.74C287.107 545.587 287.597 545.51 288.15 545.51C288.803 545.51 289.403 545.64 289.95 545.9C290.503 546.16 290.943 546.567 291.27 547.12C291.603 547.667 291.77 548.373 291.77 549.24V556H289.92V549.42C289.92 548.613 289.707 548.017 289.28 547.63C288.86 547.237 288.313 547.04 287.64 547.04C287.173 547.04 286.737 547.117 286.33 547.27C285.923 547.417 285.593 547.643 285.34 547.95C285.087 548.25 284.96 548.63 284.96 549.09V556H283.12ZM299.428 547.01H297.098V553.44C297.098 553.807 297.134 554.077 297.208 554.25C297.288 554.417 297.418 554.523 297.598 554.57C297.784 554.617 298.038 554.64 298.358 554.64H299.488V555.88C299.361 555.927 299.168 555.967 298.908 556C298.654 556.033 298.338 556.05 297.958 556.05C297.244 556.05 296.691 555.953 296.298 555.76C295.904 555.567 295.628 555.28 295.468 554.9C295.314 554.52 295.238 554.053 295.238 553.5V547.01H293.558V545.66H295.288L295.738 542.65H297.098V545.65H299.428V547.01ZM310.17 556.2C308.83 556.2 307.767 555.74 306.98 554.82C306.193 553.9 305.8 552.557 305.8 550.79C305.8 549.717 305.957 548.78 306.27 547.98C306.59 547.18 307.063 546.56 307.69 546.12C308.317 545.68 309.097 545.46 310.03 545.46C310.523 545.46 310.96 545.523 311.34 545.65C311.727 545.777 312.06 545.937 312.34 546.13C312.62 546.323 312.847 546.523 313.02 546.73C313.2 546.937 313.333 547.127 313.42 547.3V541.14H315.28V556H313.87L313.67 553.88C313.603 554.08 313.497 554.313 313.35 554.58C313.203 554.84 312.997 555.097 312.73 555.35C312.463 555.597 312.12 555.8 311.7 555.96C311.287 556.12 310.777 556.2 310.17 556.2ZM310.5 554.78C311.547 554.78 312.293 554.463 312.74 553.83C313.193 553.19 313.42 552.147 313.42 550.7C313.413 549.893 313.31 549.207 313.11 548.64C312.917 548.073 312.61 547.643 312.19 547.35C311.777 547.05 311.227 546.9 310.54 546.9C309.687 546.9 308.993 547.203 308.46 547.81C307.927 548.417 307.66 549.38 307.66 550.7C307.66 551.993 307.9 552.997 308.38 553.71C308.867 554.423 309.573 554.78 310.5 554.78ZM319.655 551.26C319.655 551.913 319.761 552.507 319.975 553.04C320.195 553.567 320.525 553.987 320.965 554.3C321.411 554.613 321.968 554.77 322.635 554.77C323.295 554.77 323.861 554.617 324.335 554.31C324.815 554.003 325.121 553.56 325.255 552.98H327.005C326.878 553.68 326.598 554.27 326.165 554.75C325.731 555.23 325.208 555.593 324.595 555.84C323.981 556.08 323.341 556.2 322.675 556.2C321.708 556.2 320.858 555.99 320.125 555.57C319.391 555.15 318.818 554.547 318.405 553.76C317.991 552.973 317.785 552.03 317.785 550.93C317.785 549.843 317.971 548.89 318.345 548.07C318.718 547.25 319.258 546.61 319.965 546.15C320.678 545.69 321.535 545.46 322.535 545.46C323.508 545.46 324.331 545.67 325.005 546.09C325.678 546.51 326.188 547.103 326.535 547.87C326.888 548.63 327.065 549.533 327.065 550.58V551.26H319.655ZM319.665 550.01H325.285C325.285 549.417 325.185 548.883 324.985 548.41C324.785 547.93 324.478 547.553 324.065 547.28C323.658 547 323.145 546.86 322.525 546.86C321.878 546.86 321.341 547.017 320.915 547.33C320.495 547.637 320.178 548.033 319.965 548.52C319.758 549 319.658 549.497 319.665 550.01ZM333.334 556.2C331.994 556.2 330.931 555.74 330.144 554.82C329.358 553.9 328.964 552.557 328.964 550.79C328.964 549.717 329.121 548.78 329.434 547.98C329.754 547.18 330.228 546.56 330.854 546.12C331.481 545.68 332.261 545.46 333.194 545.46C333.688 545.46 334.124 545.523 334.504 545.65C334.891 545.777 335.224 545.937 335.504 546.13C335.784 546.323 336.011 546.523 336.184 546.73C336.364 546.937 336.498 547.127 336.584 547.3V541.14H338.444V556H337.034L336.834 553.88C336.768 554.08 336.661 554.313 336.514 554.58C336.368 554.84 336.161 555.097 335.894 555.35C335.628 555.597 335.284 555.8 334.864 555.96C334.451 556.12 333.941 556.2 333.334 556.2ZM333.664 554.78C334.711 554.78 335.458 554.463 335.904 553.83C336.358 553.19 336.584 552.147 336.584 550.7C336.578 549.893 336.474 549.207 336.274 548.64C336.081 548.073 335.774 547.643 335.354 547.35C334.941 547.05 334.391 546.9 333.704 546.9C332.851 546.9 332.158 547.203 331.624 547.81C331.091 548.417 330.824 549.38 330.824 550.7C330.824 551.993 331.064 552.997 331.544 553.71C332.031 554.423 332.738 554.78 333.664 554.78ZM345.299 556.2C344.759 556.193 344.249 556.117 343.769 555.97C343.295 555.817 342.875 555.593 342.509 555.3C342.142 555.007 341.852 554.643 341.639 554.21C341.432 553.77 341.329 553.26 341.329 552.68V545.66H343.179V552.49C343.179 553.163 343.385 553.71 343.799 554.13C344.219 554.55 344.849 554.76 345.689 554.76C346.449 554.76 347.059 554.563 347.519 554.17C347.985 553.77 348.219 553.177 348.219 552.39V545.66H350.059V556H348.589L348.399 554.02C348.272 554.54 348.055 554.96 347.749 555.28C347.449 555.6 347.085 555.837 346.659 555.99C346.239 556.137 345.785 556.207 345.299 556.2ZM357.064 545.46C357.804 545.46 358.471 545.603 359.064 545.89C359.657 546.17 360.141 546.57 360.514 547.09C360.894 547.61 361.131 548.223 361.224 548.93H359.584C359.524 548.57 359.384 548.24 359.164 547.94C358.951 547.64 358.667 547.4 358.314 547.22C357.961 547.04 357.547 546.95 357.074 546.95C356.187 546.95 355.467 547.27 354.914 547.91C354.361 548.55 354.084 549.53 354.084 550.85C354.084 552.043 354.337 553 354.844 553.72C355.357 554.433 356.111 554.79 357.104 554.79C357.577 554.79 357.987 554.7 358.334 554.52C358.687 554.333 358.971 554.09 359.184 553.79C359.397 553.483 359.534 553.157 359.594 552.81H361.204C361.117 553.503 360.884 554.103 360.504 554.61C360.124 555.117 359.637 555.51 359.044 555.79C358.457 556.063 357.797 556.2 357.064 556.2C356.137 556.2 355.314 555.997 354.594 555.59C353.881 555.183 353.321 554.583 352.914 553.79C352.507 552.997 352.304 552.023 352.304 550.87C352.304 549.79 352.487 548.847 352.854 548.04C353.227 547.227 353.767 546.593 354.474 546.14C355.187 545.687 356.051 545.46 357.064 545.46ZM368.647 547.01H366.317V553.44C366.317 553.807 366.353 554.077 366.427 554.25C366.507 554.417 366.637 554.523 366.817 554.57C367.003 554.617 367.257 554.64 367.577 554.64H368.707V555.88C368.58 555.927 368.387 555.967 368.127 556C367.873 556.033 367.557 556.05 367.177 556.05C366.463 556.05 365.91 555.953 365.517 555.76C365.123 555.567 364.847 555.28 364.687 554.9C364.533 554.52 364.457 554.053 364.457 553.5V547.01H362.777V545.66H364.507L364.957 542.65H366.317V545.65H368.647V547.01ZM372.35 551.26C372.35 551.913 372.457 552.507 372.67 553.04C372.89 553.567 373.22 553.987 373.66 554.3C374.107 554.613 374.663 554.77 375.33 554.77C375.99 554.77 376.557 554.617 377.03 554.31C377.51 554.003 377.817 553.56 377.95 552.98H379.7C379.573 553.68 379.293 554.27 378.86 554.75C378.427 555.23 377.903 555.593 377.29 555.84C376.677 556.08 376.037 556.2 375.37 556.2C374.403 556.2 373.553 555.99 372.82 555.57C372.087 555.15 371.513 554.547 371.1 553.76C370.687 552.973 370.48 552.03 370.48 550.93C370.48 549.843 370.667 548.89 371.04 548.07C371.413 547.25 371.953 546.61 372.66 546.15C373.373 545.69 374.23 545.46 375.23 545.46C376.203 545.46 377.027 545.67 377.7 546.09C378.373 546.51 378.883 547.103 379.23 547.87C379.583 548.63 379.76 549.533 379.76 550.58V551.26H372.35ZM372.36 550.01H377.98C377.98 549.417 377.88 548.883 377.68 548.41C377.48 547.93 377.173 547.553 376.76 547.28C376.353 547 375.84 546.86 375.22 546.86C374.573 546.86 374.037 547.017 373.61 547.33C373.19 547.637 372.873 548.033 372.66 548.52C372.453 549 372.353 549.497 372.36 550.01ZM386.03 556.2C384.69 556.2 383.626 555.74 382.84 554.82C382.053 553.9 381.66 552.557 381.66 550.79C381.66 549.717 381.816 548.78 382.13 547.98C382.45 547.18 382.923 546.56 383.55 546.12C384.176 545.68 384.956 545.46 385.89 545.46C386.383 545.46 386.82 545.523 387.2 545.65C387.586 545.777 387.92 545.937 388.2 546.13C388.48 546.323 388.706 546.523 388.88 546.73C389.06 546.937 389.193 547.127 389.28 547.3V541.14H391.14V556H389.73L389.53 553.88C389.463 554.08 389.356 554.313 389.21 554.58C389.063 554.84 388.856 555.097 388.59 555.35C388.323 555.597 387.98 555.8 387.56 555.96C387.146 556.12 386.636 556.2 386.03 556.2ZM386.36 554.78C387.406 554.78 388.153 554.463 388.6 553.83C389.053 553.19 389.28 552.147 389.28 550.7C389.273 549.893 389.17 549.207 388.97 548.64C388.776 548.073 388.47 547.643 388.05 547.35C387.636 547.05 387.086 546.9 386.4 546.9C385.546 546.9 384.853 547.203 384.32 547.81C383.786 548.417 383.52 549.38 383.52 550.7C383.52 551.993 383.76 552.997 384.24 553.71C384.726 554.423 385.433 554.78 386.36 554.78ZM404.643 545.66V547.01H402.133V556H400.273V547.01H398.093V545.66H400.273V544.06C400.273 543.24 400.483 542.617 400.903 542.19C401.323 541.757 401.95 541.54 402.783 541.54H404.733L404.743 542.85H403.193C402.773 542.85 402.487 542.963 402.333 543.19C402.18 543.417 402.103 543.76 402.103 544.22V545.66H404.643ZM406.928 556V545.66H408.688V547.65C408.862 547.157 409.105 546.75 409.418 546.43C409.732 546.103 410.088 545.86 410.488 545.7C410.895 545.54 411.315 545.46 411.748 545.46C411.902 545.46 412.052 545.47 412.198 545.49C412.345 545.51 412.458 545.543 412.538 545.59V547.38C412.438 547.333 412.308 547.303 412.148 547.29C411.995 547.27 411.865 547.26 411.758 547.26C411.345 547.233 410.958 547.26 410.598 547.34C410.238 547.413 409.922 547.543 409.648 547.73C409.375 547.917 409.158 548.163 408.998 548.47C408.845 548.77 408.768 549.137 408.768 549.57V556H406.928ZM418.558 556.2C417.605 556.2 416.771 555.997 416.058 555.59C415.345 555.177 414.791 554.573 414.398 553.78C414.005 552.987 413.808 552.017 413.808 550.87C413.808 549.79 413.991 548.843 414.358 548.03C414.725 547.217 415.261 546.587 415.968 546.14C416.681 545.687 417.545 545.46 418.558 545.46C419.511 545.46 420.338 545.67 421.038 546.09C421.745 546.503 422.291 547.113 422.678 547.92C423.065 548.727 423.258 549.71 423.258 550.87C423.258 551.923 423.078 552.85 422.718 553.65C422.365 554.45 421.838 555.077 421.138 555.53C420.445 555.977 419.585 556.2 418.558 556.2ZM418.558 554.74C419.178 554.74 419.701 554.583 420.128 554.27C420.555 553.957 420.878 553.507 421.098 552.92C421.318 552.333 421.428 551.637 421.428 550.83C421.428 550.09 421.331 549.427 421.138 548.84C420.945 548.247 420.635 547.777 420.208 547.43C419.788 547.083 419.238 546.91 418.558 546.91C417.931 546.91 417.401 547.067 416.968 547.38C416.535 547.687 416.205 548.133 415.978 548.72C415.758 549.307 415.648 550.01 415.648 550.83C415.648 551.557 415.748 552.217 415.948 552.81C416.148 553.403 416.461 553.873 416.888 554.22C417.315 554.567 417.871 554.74 418.558 554.74ZM425.678 556V545.66H427.458V547.16C427.745 546.707 428.138 546.31 428.638 545.97C429.138 545.63 429.788 545.46 430.588 545.46C430.962 545.46 431.342 545.523 431.728 545.65C432.122 545.777 432.482 545.967 432.808 546.22C433.135 546.473 433.388 546.783 433.568 547.15C433.888 546.643 434.322 546.237 434.868 545.93C435.415 545.617 436.032 545.46 436.718 545.46C437.078 545.46 437.455 545.517 437.848 545.63C438.242 545.737 438.605 545.93 438.938 546.21C439.278 546.483 439.555 546.867 439.768 547.36C439.982 547.847 440.088 548.473 440.088 549.24V556H438.228V549.42C438.228 548.793 438.128 548.31 437.928 547.97C437.728 547.623 437.465 547.38 437.138 547.24C436.818 547.1 436.475 547.03 436.108 547.03C435.788 547.03 435.448 547.093 435.088 547.22C434.728 547.347 434.422 547.56 434.168 547.86C433.915 548.16 433.788 548.57 433.788 549.09V556H431.948V548.88C431.948 548.473 431.838 548.133 431.618 547.86C431.405 547.587 431.135 547.38 430.808 547.24C430.488 547.1 430.168 547.03 429.848 547.03C429.495 547.03 429.138 547.1 428.778 547.24C428.425 547.38 428.125 547.603 427.878 547.91C427.638 548.21 427.518 548.603 427.518 549.09V556H425.678ZM448.476 559.3C447.869 559.3 447.452 559.257 447.226 559.17C446.999 559.083 446.886 559.04 446.886 559.04V557.84L447.936 557.86C448.322 557.873 448.642 557.847 448.896 557.78C449.149 557.713 449.352 557.623 449.506 557.51C449.659 557.397 449.776 557.27 449.856 557.13C449.942 556.99 450.012 556.857 450.066 556.73L450.426 555.75L446.386 545.66H448.256L451.306 553.64L454.336 545.66H456.146L451.786 556.78C451.519 557.433 451.219 557.943 450.886 558.31C450.559 558.677 450.192 558.933 449.786 559.08C449.386 559.227 448.949 559.3 448.476 559.3ZM461.859 556.2C460.905 556.2 460.072 555.997 459.359 555.59C458.645 555.177 458.092 554.573 457.699 553.78C457.305 552.987 457.109 552.017 457.109 550.87C457.109 549.79 457.292 548.843 457.659 548.03C458.025 547.217 458.562 546.587 459.269 546.14C459.982 545.687 460.845 545.46 461.859 545.46C462.812 545.46 463.639 545.67 464.339 546.09C465.045 546.503 465.592 547.113 465.979 547.92C466.365 548.727 466.559 549.71 466.559 550.87C466.559 551.923 466.379 552.85 466.019 553.65C465.665 554.45 465.139 555.077 464.439 555.53C463.745 555.977 462.885 556.2 461.859 556.2ZM461.859 554.74C462.479 554.74 463.002 554.583 463.429 554.27C463.855 553.957 464.179 553.507 464.399 552.92C464.619 552.333 464.729 551.637 464.729 550.83C464.729 550.09 464.632 549.427 464.439 548.84C464.245 548.247 463.935 547.777 463.509 547.43C463.089 547.083 462.539 546.91 461.859 546.91C461.232 546.91 460.702 547.067 460.269 547.38C459.835 547.687 459.505 548.133 459.279 548.72C459.059 549.307 458.949 550.01 458.949 550.83C458.949 551.557 459.049 552.217 459.249 552.81C459.449 553.403 459.762 553.873 460.189 554.22C460.615 554.567 461.172 554.74 461.859 554.74ZM472.603 556.2C472.063 556.193 471.553 556.117 471.073 555.97C470.6 555.817 470.18 555.593 469.813 555.3C469.447 555.007 469.157 554.643 468.943 554.21C468.737 553.77 468.633 553.26 468.633 552.68V545.66H470.483V552.49C470.483 553.163 470.69 553.71 471.103 554.13C471.523 554.55 472.153 554.76 472.993 554.76C473.753 554.76 474.363 554.563 474.823 554.17C475.29 553.77 475.523 553.177 475.523 552.39V545.66H477.363V556H475.893L475.703 554.02C475.577 554.54 475.36 554.96 475.053 555.28C474.753 555.6 474.39 555.837 473.963 555.99C473.543 556.137 473.09 556.207 472.603 556.2ZM480.385 556V545.66H482.145V547.65C482.319 547.157 482.562 546.75 482.875 546.43C483.189 546.103 483.545 545.86 483.945 545.7C484.352 545.54 484.772 545.46 485.205 545.46C485.359 545.46 485.509 545.47 485.655 545.49C485.802 545.51 485.915 545.543 485.995 545.59V547.38C485.895 547.333 485.765 547.303 485.605 547.29C485.452 547.27 485.322 547.26 485.215 547.26C484.802 547.233 484.415 547.26 484.055 547.34C483.695 547.413 483.379 547.543 483.105 547.73C482.832 547.917 482.615 548.163 482.455 548.47C482.302 548.77 482.225 549.137 482.225 549.57V556H480.385ZM186.39 584.2C185.723 584.2 185.133 584.083 184.62 583.85C184.107 583.61 183.703 583.267 183.41 582.82C183.123 582.373 182.98 581.833 182.98 581.2C182.98 580.053 183.38 579.2 184.18 578.64C184.98 578.08 186.263 577.78 188.03 577.74L189.88 577.69V576.88C189.88 576.247 189.69 575.747 189.31 575.38C188.93 575.007 188.34 574.82 187.54 574.82C186.947 574.827 186.423 574.967 185.97 575.24C185.523 575.513 185.233 575.96 185.1 576.58H183.47C183.51 575.907 183.7 575.34 184.04 574.88C184.38 574.413 184.853 574.06 185.46 573.82C186.073 573.58 186.797 573.46 187.63 573.46C188.53 573.46 189.277 573.587 189.87 573.84C190.47 574.093 190.917 574.467 191.21 574.96C191.51 575.453 191.66 576.06 191.66 576.78V584H190.08L189.95 582.06C189.55 582.867 189.04 583.427 188.42 583.74C187.807 584.047 187.13 584.2 186.39 584.2ZM186.95 582.87C187.297 582.87 187.64 582.807 187.98 582.68C188.327 582.553 188.643 582.383 188.93 582.17C189.217 581.95 189.443 581.707 189.61 581.44C189.783 581.167 189.873 580.887 189.88 580.6V578.83L188.34 578.86C187.553 578.873 186.893 578.953 186.36 579.1C185.833 579.247 185.437 579.477 185.17 579.79C184.91 580.103 184.78 580.513 184.78 581.02C184.78 581.6 184.98 582.053 185.38 582.38C185.787 582.707 186.31 582.87 186.95 582.87ZM198.939 573.46C199.679 573.46 200.346 573.603 200.939 573.89C201.532 574.17 202.016 574.57 202.389 575.09C202.769 575.61 203.006 576.223 203.099 576.93H201.459C201.399 576.57 201.259 576.24 201.039 575.94C200.826 575.64 200.542 575.4 200.189 575.22C199.836 575.04 199.422 574.95 198.949 574.95C198.062 574.95 197.342 575.27 196.789 575.91C196.236 576.55 195.959 577.53 195.959 578.85C195.959 580.043 196.212 581 196.719 581.72C197.232 582.433 197.986 582.79 198.979 582.79C199.452 582.79 199.862 582.7 200.209 582.52C200.562 582.333 200.846 582.09 201.059 581.79C201.272 581.483 201.409 581.157 201.469 580.81H203.079C202.992 581.503 202.759 582.103 202.379 582.61C201.999 583.117 201.512 583.51 200.919 583.79C200.332 584.063 199.672 584.2 198.939 584.2C198.012 584.2 197.189 583.997 196.469 583.59C195.756 583.183 195.196 582.583 194.789 581.79C194.382 580.997 194.179 580.023 194.179 578.87C194.179 577.79 194.362 576.847 194.729 576.04C195.102 575.227 195.642 574.593 196.349 574.14C197.062 573.687 197.926 573.46 198.939 573.46ZM209.72 573.46C210.46 573.46 211.127 573.603 211.72 573.89C212.314 574.17 212.797 574.57 213.17 575.09C213.55 575.61 213.787 576.223 213.88 576.93H212.24C212.18 576.57 212.04 576.24 211.82 575.94C211.607 575.64 211.324 575.4 210.97 575.22C210.617 575.04 210.204 574.95 209.73 574.95C208.844 574.95 208.124 575.27 207.57 575.91C207.017 576.55 206.74 577.53 206.74 578.85C206.74 580.043 206.994 581 207.5 581.72C208.014 582.433 208.767 582.79 209.76 582.79C210.234 582.79 210.644 582.7 210.99 582.52C211.344 582.333 211.627 582.09 211.84 581.79C212.054 581.483 212.19 581.157 212.25 580.81H213.86C213.774 581.503 213.54 582.103 213.16 582.61C212.78 583.117 212.294 583.51 211.7 583.79C211.114 584.063 210.454 584.2 209.72 584.2C208.794 584.2 207.97 583.997 207.25 583.59C206.537 583.183 205.977 582.583 205.57 581.79C205.164 580.997 204.96 580.023 204.96 578.87C204.96 577.79 205.144 576.847 205.51 576.04C205.884 575.227 206.424 574.593 207.13 574.14C207.844 573.687 208.707 573.46 209.72 573.46ZM220.492 584.2C219.538 584.2 218.705 583.997 217.992 583.59C217.278 583.177 216.725 582.573 216.332 581.78C215.938 580.987 215.742 580.017 215.742 578.87C215.742 577.79 215.925 576.843 216.292 576.03C216.658 575.217 217.195 574.587 217.902 574.14C218.615 573.687 219.478 573.46 220.492 573.46C221.445 573.46 222.272 573.67 222.972 574.09C223.678 574.503 224.225 575.113 224.612 575.92C224.998 576.727 225.192 577.71 225.192 578.87C225.192 579.923 225.012 580.85 224.652 581.65C224.298 582.45 223.772 583.077 223.072 583.53C222.378 583.977 221.518 584.2 220.492 584.2ZM220.492 582.74C221.112 582.74 221.635 582.583 222.062 582.27C222.488 581.957 222.812 581.507 223.032 580.92C223.252 580.333 223.362 579.637 223.362 578.83C223.362 578.09 223.265 577.427 223.072 576.84C222.878 576.247 222.568 575.777 222.142 575.43C221.722 575.083 221.172 574.91 220.492 574.91C219.865 574.91 219.335 575.067 218.902 575.38C218.468 575.687 218.138 576.133 217.912 576.72C217.692 577.307 217.582 578.01 217.582 578.83C217.582 579.557 217.682 580.217 217.882 580.81C218.082 581.403 218.395 581.873 218.822 582.22C219.248 582.567 219.805 582.74 220.492 582.74ZM231.236 584.2C230.696 584.193 230.186 584.117 229.706 583.97C229.233 583.817 228.813 583.593 228.446 583.3C228.08 583.007 227.79 582.643 227.576 582.21C227.37 581.77 227.266 581.26 227.266 580.68V573.66H229.116V580.49C229.116 581.163 229.323 581.71 229.736 582.13C230.156 582.55 230.786 582.76 231.626 582.76C232.386 582.76 232.996 582.563 233.456 582.17C233.923 581.77 234.156 581.177 234.156 580.39V573.66H235.996V584H234.526L234.336 582.02C234.21 582.54 233.993 582.96 233.686 583.28C233.386 583.6 233.023 583.837 232.596 583.99C232.176 584.137 231.723 584.207 231.236 584.2ZM239.018 584V573.66H240.808V575.16C240.975 574.873 241.205 574.603 241.498 574.35C241.798 574.097 242.158 573.893 242.578 573.74C243.005 573.587 243.495 573.51 244.048 573.51C244.702 573.51 245.302 573.64 245.848 573.9C246.402 574.16 246.842 574.567 247.168 575.12C247.502 575.667 247.668 576.373 247.668 577.24V584H245.818V577.42C245.818 576.613 245.605 576.017 245.178 575.63C244.758 575.237 244.212 575.04 243.538 575.04C243.072 575.04 242.635 575.117 242.228 575.27C241.822 575.417 241.492 575.643 241.238 575.95C240.985 576.25 240.858 576.63 240.858 577.09V584H239.018ZM255.326 575.01H252.996V581.44C252.996 581.807 253.033 582.077 253.106 582.25C253.186 582.417 253.316 582.523 253.496 582.57C253.683 582.617 253.936 582.64 254.256 582.64H255.386V583.88C255.26 583.927 255.066 583.967 254.806 584C254.553 584.033 254.236 584.05 253.856 584.05C253.143 584.05 252.59 583.953 252.196 583.76C251.803 583.567 251.526 583.28 251.366 582.9C251.213 582.52 251.136 582.053 251.136 581.5V575.01H249.456V573.66H251.186L251.636 570.65H252.996V573.65H255.326V575.01ZM264.593 573.66V584H262.803V573.66H264.593ZM264.633 569.55V571.47H262.743V569.55H264.633ZM271.516 584.2C270.796 584.2 270.126 584.09 269.506 583.87C268.893 583.643 268.383 583.293 267.976 582.82C267.57 582.34 267.313 581.73 267.206 580.99H268.886C268.98 581.397 269.146 581.737 269.386 582.01C269.633 582.277 269.94 582.48 270.306 582.62C270.673 582.753 271.073 582.82 271.506 582.82C272.2 582.82 272.76 582.69 273.186 582.43C273.613 582.17 273.826 581.77 273.826 581.23C273.826 580.85 273.713 580.547 273.486 580.32C273.266 580.087 272.923 579.917 272.456 579.81L270.316 579.28C269.483 579.08 268.816 578.767 268.316 578.34C267.816 577.913 267.566 577.317 267.566 576.55C267.56 575.943 267.703 575.41 267.996 574.95C268.29 574.49 268.73 574.127 269.316 573.86C269.903 573.593 270.633 573.46 271.506 573.46C272.626 573.46 273.53 573.713 274.216 574.22C274.91 574.72 275.27 575.457 275.296 576.43H273.666C273.6 575.937 273.376 575.547 272.996 575.26C272.623 574.967 272.12 574.82 271.486 574.82C270.826 574.82 270.29 574.953 269.876 575.22C269.463 575.48 269.256 575.887 269.256 576.44C269.256 576.807 269.403 577.097 269.696 577.31C269.99 577.517 270.423 577.69 270.996 577.83L273.066 578.35C273.546 578.477 273.94 578.643 274.246 578.85C274.56 579.057 274.806 579.287 274.986 579.54C275.173 579.793 275.303 580.06 275.376 580.34C275.456 580.613 275.496 580.877 275.496 581.13C275.496 581.763 275.336 582.31 275.016 582.77C274.703 583.223 274.25 583.577 273.656 583.83C273.07 584.077 272.356 584.2 271.516 584.2ZM293.979 578.49C293.979 579.657 293.789 580.67 293.409 581.53C293.029 582.383 292.412 583.043 291.559 583.51C290.712 583.97 289.589 584.2 288.189 584.2C286.782 584.2 285.656 583.967 284.809 583.5C283.962 583.027 283.349 582.357 282.969 581.49C282.596 580.623 282.409 579.59 282.409 578.39V569.54H285.379V578.61C285.379 579.69 285.639 580.48 286.159 580.98C286.679 581.473 287.356 581.72 288.189 581.72C288.742 581.72 289.232 581.613 289.659 581.4C290.086 581.18 290.419 580.843 290.659 580.39C290.906 579.93 291.029 579.337 291.029 578.61V569.54H293.979V578.49ZM302.312 584.2C301.598 584.2 300.898 584.11 300.212 583.93C299.525 583.75 298.898 583.48 298.332 583.12C297.765 582.76 297.295 582.31 296.922 581.77C296.555 581.23 296.335 580.597 296.262 579.87H299.252C299.352 580.31 299.542 580.68 299.822 580.98C300.102 581.28 300.455 581.51 300.882 581.67C301.308 581.83 301.782 581.91 302.302 581.91C302.835 581.91 303.322 581.843 303.762 581.71C304.202 581.577 304.555 581.377 304.822 581.11C305.088 580.837 305.222 580.497 305.222 580.09C305.222 579.723 305.112 579.423 304.892 579.19C304.678 578.957 304.388 578.767 304.022 578.62C303.655 578.473 303.238 578.353 302.772 578.26L300.272 577.75C299.178 577.543 298.312 577.11 297.672 576.45C297.032 575.783 296.702 574.897 296.682 573.79C296.675 572.883 296.915 572.1 297.402 571.44C297.895 570.773 298.562 570.26 299.402 569.9C300.248 569.54 301.195 569.36 302.242 569.36C303.488 569.36 304.535 569.557 305.382 569.95C306.235 570.337 306.882 570.863 307.322 571.53C307.768 572.19 307.998 572.927 308.012 573.74H305.082C305.028 573.233 304.875 572.83 304.622 572.53C304.368 572.23 304.042 572.013 303.642 571.88C303.248 571.747 302.798 571.68 302.292 571.68C301.905 571.68 301.552 571.723 301.232 571.81C300.918 571.897 300.652 572.02 300.432 572.18C300.212 572.333 300.042 572.517 299.922 572.73C299.802 572.943 299.742 573.183 299.742 573.45C299.742 573.87 299.882 574.21 300.162 574.47C300.442 574.73 300.965 574.943 301.732 575.11L304.212 575.62C305.098 575.793 305.802 576.05 306.322 576.39C306.848 576.73 307.242 577.113 307.502 577.54C307.768 577.967 307.942 578.403 308.022 578.85C308.108 579.29 308.152 579.697 308.152 580.07C308.152 580.85 307.905 581.553 307.412 582.18C306.925 582.8 306.245 583.293 305.372 583.66C304.498 584.02 303.478 584.2 302.312 584.2ZM320.437 584.2C318.704 584.2 317.297 583.853 316.217 583.16C315.137 582.46 314.517 581.383 314.357 579.93L317.397 579.87C317.557 580.53 317.901 581.033 318.427 581.38C318.961 581.72 319.627 581.89 320.427 581.89C320.907 581.89 321.331 581.813 321.697 581.66C322.071 581.5 322.364 581.287 322.577 581.02C322.791 580.747 322.897 580.437 322.897 580.09C322.897 579.557 322.727 579.16 322.387 578.9C322.047 578.633 321.524 578.42 320.817 578.26L318.447 577.75C317.347 577.53 316.464 577.093 315.797 576.44C315.137 575.78 314.801 574.897 314.787 573.79C314.781 572.883 315.024 572.1 315.517 571.44C316.017 570.773 316.694 570.26 317.547 569.9C318.407 569.54 319.371 569.36 320.437 569.36C321.531 569.36 322.474 569.557 323.267 569.95C324.067 570.337 324.681 570.86 325.107 571.52C325.541 572.173 325.751 572.897 325.737 573.69L322.787 573.74C322.694 573.1 322.481 572.597 322.147 572.23C321.814 571.863 321.261 571.68 320.487 571.68C320.087 571.68 319.731 571.723 319.417 571.81C319.104 571.897 318.834 572.02 318.607 572.18C318.381 572.333 318.207 572.517 318.087 572.73C317.974 572.943 317.917 573.183 317.917 573.45C317.917 573.87 318.057 574.203 318.337 574.45C318.624 574.69 319.161 574.913 319.947 575.12L322.277 575.69C323.591 576.003 324.537 576.54 325.117 577.3C325.704 578.06 325.997 578.983 325.997 580.07C325.997 580.903 325.767 581.63 325.307 582.25C324.854 582.87 324.211 583.35 323.377 583.69C322.544 584.03 321.564 584.2 320.437 584.2ZM319.187 567.47H321.717V570.07H319.187V567.47ZM319.137 583.31H321.657V585.91H319.137V583.31ZM330.42 584V573.17H327.84V571.52C328.667 571.52 329.334 571.443 329.84 571.29C330.354 571.13 330.737 570.903 330.99 570.61C331.244 570.31 331.394 569.953 331.44 569.54H333.38V584H330.42ZM341.995 569.34C343.715 569.34 345.072 569.983 346.065 571.27C347.058 572.55 347.555 574.393 347.555 576.8C347.555 579.193 347.065 581.03 346.085 582.31C345.105 583.583 343.742 584.22 341.995 584.22C340.242 584.22 338.872 583.583 337.885 582.31C336.905 581.037 336.415 579.203 336.415 576.81C336.415 575.21 336.642 573.853 337.095 572.74C337.548 571.627 338.192 570.783 339.025 570.21C339.858 569.63 340.848 569.34 341.995 569.34ZM341.995 581.83C342.855 581.83 343.485 581.447 343.885 580.68C344.285 579.907 344.485 578.617 344.485 576.81C344.485 574.963 344.282 573.64 343.875 572.84C343.468 572.04 342.838 571.64 341.985 571.64C341.132 571.64 340.495 572.043 340.075 572.85C339.662 573.657 339.455 574.977 339.455 576.81C339.455 578.61 339.662 579.897 340.075 580.67C340.488 581.443 341.128 581.83 341.995 581.83ZM355.798 569.54H358.668V578.35H360.898V580.8H358.668V584H355.858L355.868 580.8H349.208V578.4L355.798 569.54ZM351.908 578.35H355.868V573.05L351.908 578.35ZM362.463 584V580.82H365.663V584H362.463ZM373.053 584.22C372.153 584.22 371.313 584.047 370.533 583.7C369.753 583.353 369.117 582.867 368.623 582.24C368.13 581.607 367.853 580.867 367.793 580.02H370.573C370.693 580.58 370.96 581.037 371.373 581.39C371.787 581.737 372.307 581.91 372.933 581.91C373.627 581.91 374.233 581.747 374.753 581.42C375.28 581.093 375.673 580.573 375.933 579.86C376.2 579.147 376.293 578.213 376.213 577.06C376.027 577.413 375.767 577.723 375.433 577.99C375.107 578.25 374.723 578.453 374.283 578.6C373.843 578.74 373.353 578.81 372.813 578.81C371.833 578.81 370.963 578.627 370.203 578.26C369.45 577.887 368.857 577.36 368.423 576.68C367.997 575.993 367.783 575.18 367.783 574.24C367.783 573.293 368.01 572.45 368.463 571.71C368.917 570.97 369.55 570.39 370.363 569.97C371.177 569.55 372.13 569.34 373.223 569.34C374.45 569.34 375.507 569.633 376.393 570.22C377.287 570.8 377.97 571.627 378.443 572.7C378.923 573.767 379.163 575.023 379.163 576.47C379.163 578.197 378.917 579.637 378.423 580.79C377.937 581.937 377.237 582.797 376.323 583.37C375.41 583.937 374.32 584.22 373.053 584.22ZM373.313 576.49C373.72 576.49 374.113 576.4 374.493 576.22C374.88 576.033 375.197 575.8 375.443 575.52C375.69 575.24 375.813 574.95 375.813 574.65C375.82 574.003 375.717 573.45 375.503 572.99C375.297 572.523 375.003 572.167 374.623 571.92C374.25 571.673 373.813 571.55 373.313 571.55C372.853 571.55 372.443 571.657 372.083 571.87C371.723 572.083 371.44 572.383 371.233 572.77C371.027 573.157 370.923 573.603 370.923 574.11C370.923 574.863 371.143 575.45 371.583 575.87C372.023 576.283 372.6 576.49 373.313 576.49ZM386.448 569.34C388.168 569.34 389.525 569.983 390.518 571.27C391.512 572.55 392.008 574.393 392.008 576.8C392.008 579.193 391.518 581.03 390.538 582.31C389.558 583.583 388.195 584.22 386.448 584.22C384.695 584.22 383.325 583.583 382.338 582.31C381.358 581.037 380.868 579.203 380.868 576.81C380.868 575.21 381.095 573.853 381.548 572.74C382.002 571.627 382.645 570.783 383.478 570.21C384.312 569.63 385.302 569.34 386.448 569.34ZM386.448 581.83C387.308 581.83 387.938 581.447 388.338 580.68C388.738 579.907 388.938 578.617 388.938 576.81C388.938 574.963 388.735 573.64 388.328 572.84C387.922 572.04 387.292 571.64 386.438 571.64C385.585 571.64 384.948 572.043 384.528 572.85C384.115 573.657 383.908 574.977 383.908 576.81C383.908 578.61 384.115 579.897 384.528 580.67C384.942 581.443 385.582 581.83 386.448 581.83ZM393.979 584V581.64H396.179V584H393.979Z" fill="#36536B"/>
</g>
</g>
<defs>
<filter id="filter0_d_0_4910" x="1.13574" y="1.13892" width="835.299" height="1317.72" filterUnits="userSpaceOnUse" color-interpolation-filters="sRGB">
<feFlood flood-opacity="0" result="BackgroundImageFix"/>
<feColorMatrix in="SourceAlpha" type="matrix" values="0 0 0 0 0 0 0 0 0 0 0 0 0 0 0 0 0 0 127 0" result="hardAlpha"/>
<feOffset dx="25" dy="25"/>
<feGaussianBlur stdDeviation="40"/>
<feColorMatrix type="matrix" values="0 0 0 0 0.212302 0 0 0 0 0.32521 0 0 0 0 0.419299 0 0 0 0.300727 0"/>
<feBlend mode="normal" in2="BackgroundImageFix" result="effect1_dropShadow_0_4910"/>
<feBlend mode="normal" in="SourceGraphic" in2="effect1_dropShadow_0_4910" result="shape"/>
</filter>
<filter id="filter1_d_0_4910" x="140" y="434" width="496" height="234" filterUnits="userSpaceOnUse" color-interpolation-filters="sRGB">
<feFlood flood-opacity="0" result="BackgroundImageFix"/>
<feColorMatrix in="SourceAlpha" type="matrix" values="0 0 0 0 0 0 0 0 0 0 0 0 0 0 0 0 0 0 127 0" result="hardAlpha"/>
<feMorphology radius="10" operator="erode" in="SourceAlpha" result="effect1_dropShadow_0_4910"/>
<feOffset dx="10" dy="10"/>
<feGaussianBlur stdDeviation="12.5"/>
<feColorMatrix type="matrix" values="0 0 0 0 0.212302 0 0 0 0 0.32521 0 0 0 0 0.419299 0 0 0 0.25 0"/>
<feBlend mode="normal" in2="BackgroundImageFix" result="effect1_dropShadow_0_4910"/>
<feBlend mode="normal" in="SourceGraphic" in2="effect1_dropShadow_0_4910" result="shape"/>
</filter>
<linearGradient id="paint0_linear_0_4910" x1="126.029" y1="110" x2="126.029" y2="134.648" gradientUnits="userSpaceOnUse">
<stop stop-color="#454545"/>
<stop offset="0.226279" stop-color="#999999"/>
<stop offset="1" stop-color="white"/>
</linearGradient>
<linearGradient id="paint1_linear_0_4910" x1="626.207" y1="281.495" x2="607.285" y2="281.495" gradientUnits="userSpaceOnUse">
<stop stop-color="white" stop-opacity="0.01"/>
<stop offset="0.222178" stop-color="#BABABA"/>
<stop offset="0.54678" stop-color="white" stop-opacity="0.01"/>
<stop offset="1" stop-color="white" stop-opacity="0.01"/>
</linearGradient>
<linearGradient id="paint2_linear_0_4910" x1="111.136" y1="280.974" x2="130.088" y2="280.974" gradientUnits="userSpaceOnUse">
<stop stop-color="white" stop-opacity="0.01"/>
<stop offset="0.222178" stop-color="#BABABA"/>
<stop offset="0.54678" stop-color="white" stop-opacity="0.01"/>
<stop offset="1" stop-color="white" stop-opacity="0.01"/>
</linearGradient>
<linearGradient id="paint3_linear_0_4910" x1="137.814" y1="134.889" x2="137.814" y2="1057.65" gradientUnits="userSpaceOnUse">
<stop stop-color="#9CB6CD"/>
<stop offset="0.420564" stop-color="#9AB3CA"/>
<stop offset="0.716592" stop-color="#557496"/>
<stop offset="1" stop-color="#475178"/>
</linearGradient>
<clipPath id="clip0_0_4910">
<rect width="233" height="465" fill="white" transform="matrix(2 0 0 2 136.148 134.889)"/>
</clipPath>
<clipPath id="clip1_0_4910">
<rect width="218" height="87" fill="white" transform="matrix(2 0 0 2 150 444)"/>
</clipPath>
<clipPath id="clip2_0_4910">
<rect width="187" height="11" fill="white" transform="matrix(2 0 0 2 182 476)"/>
</clipPath>
</defs>
</svg>
